<svg xmlns="http://www.w3.org/2000/svg" xmlns:xlink="http://www.w3.org/1999/xlink" contentStyleType="text/css" data-diagram-type="CLASS" height="842.7083px" preserveAspectRatio="none" style="width:903px;height:842px;" version="1.1" viewBox="0 0 903 842" width="903.125px" zoomAndPan="magnify"><defs/><g><!--cluster CEO--><g id="cluster_CEO"><path d="M233.3333,181.1458 L233.3333,181.3404 L241.6123,180.7622 L249.8914,181.3248 L258.1704,181.5159 L266.4494,180.4853 L274.7284,181.1458 L278.8951,185.3125 L278.8252,185.2952 L279.97,191.1129 L281.467,197.0176 L283.2088,202.9829 L284.107,208.7395 L286.1867,214.7884 L286.1867,216.3263 L296.8032,213.0376 L307.4197,214.2391 L318.0361,215.9883 L328.6526,214.5501 L339.2691,214.978 L349.8855,214.6997 L360.502,215.2843 L371.1185,215.4527 L381.7349,216.4153 L392.3514,216.6525 L402.9679,216.6752 L413.5843,215.4957 L424.2008,216.0761 L434.8173,216.7391 L445.4337,212.7851 L456.0502,216.6732 L466.6667,214.7884 L470.8333,218.9551 L470.0097,218.9551 L472.3161,228.9526 L469.4583,238.9501 L470.6431,248.9475 L472.8933,258.945 L470.698,268.9425 L471.1258,278.94 L470.8333,288.9375 L466.6667,293.1042 L466.6667,294.0448 L456.0606,294.2604 L445.4545,293.0933 L434.8485,293.902 L424.2424,291.5141 L413.6364,293.8941 L403.0303,294.6269 L392.4242,294.339 L381.8182,294.807 L371.2121,291.7623 L360.6061,291.2925 L350,291.3781 L339.3939,292.9406 L328.7879,292.5583 L318.1818,294.997 L307.5758,292.619 L296.9697,292.1512 L286.3636,293.7382 L275.7576,291.2518 L265.1515,291.6622 L254.5455,294.9068 L243.9394,294.3144 L233.3333,293.1042 L229.1667,288.9375 L231.2069,288.9375 L228.2728,278.575 L230.0533,268.2125 L230.8067,257.85 L227.8544,247.4875 L228.9004,237.125 L229.5166,226.7625 L230.9771,216.4 L229.155,206.0375 L230.4516,195.675 L229.1667,185.3125 L233.3333,181.1458 " fill="none" style="stroke:#FFFFFF;stroke-width:2.0833;"/><path d="M229.1667,214.7884 L229.1667,215.0803 L240.5707,214.213 L251.9747,215.0569 L263.3787,215.3435 L274.7827,213.7976 L286.1867,214.7884 " fill="none" style="stroke:#FFFFFF;stroke-width:2.0833;"/><text fill="#FFFF00" font-family="Segoe Script" font-size="14.5833" font-weight="bold" lengthAdjust="spacing" textLength="33.0617" x="238.5417" y="201.9741">CEO</text></g><!--cluster TOT--><g id="cluster_TOT"><polygon fill="none" points="294.7917,360.8125,294.7917,361.0314,305.1802,360.3809,315.5687,361.0138,325.9572,361.2288,336.3457,360.0694,346.7342,360.7315,357.1227,360.3682,367.5113,360.413,377.8998,360.7415,388.2883,360.0923,398.6768,361.3892,409.0653,360.156,419.4538,360.6065,429.8423,361.2624,440.2309,360.7231,450.6194,360.8836,461.0079,360.7792,471.3964,360.9985,481.7849,361.0616,492.1734,361.4226,502.5619,361.5115,512.9505,361.5201,523.339,361.0777,533.7275,361.2954,544.116,361.544,554.5045,360.0613,564.893,361.5193,575.2815,360.5036,585.67,361.3686,596.0586,360.2969,606.4471,360.7411,616.8356,361.585,627.2241,360.7617,637.6126,360.9222,648.0011,361.1652,658.3896,361.2461,668.7782,360.8084,679.1667,360.8125,679.2048,360.9046,679.6799,360.873,680.383,361.3919,681.0073,361.7206,681.5828,361.9314,682.1129,362.0329,682.3096,362.1143,682.2021,362.558,682.3919,363.1247,682.6458,363.7181,683.0704,364.3821,683.3333,364.9792,683.1286,364.9792,684.0431,375.5141,683.1514,386.0491,682.976,396.5841,683.5711,407.119,682.6387,417.654,682.7926,428.189,684.0093,438.724,683.7872,449.2589,684.0984,459.7939,682.9981,470.3289,683.6658,480.8638,683.9484,491.3988,682.8412,501.9338,683.3333,512.4688,683.3026,512.456,683.1297,513.0747,683.0543,513.7339,682.5998,514.236,682.5054,514.8872,682.1129,515.415,682.0394,515.2374,681.4337,515.4418,681.0014,516.0647,680.2499,515.9173,679.8236,516.5546,679.1667,516.6354,679.1667,516.8507,668.7782,516.3563,658.3896,516.2669,648.0011,517.1133,637.6126,516.3236,627.2241,517.2519,616.8356,516.0596,606.4471,517.2786,596.0586,517.1399,585.67,516.8906,575.2815,516.6846,564.893,517.3923,554.5045,517.2746,544.116,516.8117,533.7275,516.9148,523.339,516.4997,512.9505,517.3817,502.5619,516.7967,492.1734,516.8152,481.7849,516.0017,471.3964,516.2133,461.0079,517.1883,450.6194,517.0831,440.2309,516.5907,429.8423,516.2998,419.4538,516.4074,409.0653,515.9207,398.6768,517.0674,388.2883,517.4058,377.8998,517.1837,367.5113,517.3593,357.1227,516.493,346.7342,516.7263,336.3457,516.2317,325.9572,516.9313,315.5687,516.8925,305.1802,517.2108,294.7917,516.6354,294.7612,516.5617,294.1846,516.3482,293.6721,516.2895,293.0993,516.0852,292.3665,515.4947,291.8454,515.415,291.7832,515.3893,291.6492,514.8456,291.1613,514.1554,291.2265,513.6942,290.9518,513.0923,290.625,512.4688,290.52,512.4688,290.7732,501.9338,291.384,491.3988,290.2991,480.8638,290.9531,470.3289,290.9225,459.7939,290.7456,449.2589,290.7718,438.724,290.7432,428.189,289.9748,417.654,290.2075,407.119,290.1442,396.5841,290.6915,386.0491,290.7168,375.5141,290.625,364.9792,290.6769,365.0007,290.7757,364.3512,291.0915,363.7917,291.3187,363.1954,291.7864,362.6988,291.8454,362.0329,291.9021,362.1697,292.3701,361.6331,293.0142,361.5213,293.5365,361.1155,294.2407,361.1491,294.7917,360.8125" style="stroke:#008000;stroke-width:2.0833;stroke-dasharray:5.0,5.0;"/><path d="M343.6849,360.8125 L343.8795,360.8125 L343.3013,364.3477 L343.8639,367.8828 L344.055,371.418 L343.0243,374.9531 L343.6849,378.4883 L343.634,378.4374 L341.3223,380.2924 L339.2671,382.4039 L337.3903,384.6937 L334.8989,386.369 L333.2682,388.9049 L333.2682,389.4176 L324.7396,388.3214 L316.2109,388.7218 L307.6823,389.3049 L299.1536,388.8255 L290.625,388.9049 " fill="none" style="stroke:#008000;stroke-width:2.0833;stroke-dasharray:5.0,5.0;"/><text fill="#17A2B8" font-family="Segoe Script" font-size="12.5" font-weight="bold" lengthAdjust="spacing" textLength="32.2266" x="298.9583" y="378.6653">PMO</text></g><!--cluster CFO--><g id="cluster_CFO"><path d="M121.875,16.6667 L121.875,16.8613 L130.154,16.283 L138.433,16.8456 L146.712,17.0367 L154.991,16.0061 L163.2701,16.6667 L167.4367,20.8333 L167.3669,20.8161 L168.5117,26.6337 L170.0087,32.5384 L171.7505,38.5037 L172.6486,44.2603 L174.7284,50.3092 L174.7284,51.8471 L185.0858,48.5585 L195.4433,49.7599 L205.8007,51.5091 L216.1581,50.071 L226.5155,50.4988 L236.873,50.2205 L247.2304,50.8052 L257.5878,50.9735 L267.9453,51.9362 L278.3027,52.1733 L288.6601,52.1961 L299.0176,51.0165 L309.375,50.3092 L313.5417,54.4759 L314.8294,54.4759 L315.4923,64.9973 L311.5384,75.5187 L315.4264,86.04 L312.718,96.5614 L315.0245,107.0828 L313.5417,117.6042 L309.375,121.7708 L309.375,120.3958 L298.9583,121.5806 L288.5417,123.8308 L278.125,121.6355 L267.7083,122.0633 L257.2917,122.7115 L246.875,122.927 L236.4583,121.76 L226.0417,122.5686 L215.625,120.1808 L205.2083,122.5608 L194.7917,123.2936 L184.375,123.0056 L173.9583,123.4737 L163.5417,120.4289 L153.125,119.9592 L142.7083,120.0447 L132.2917,121.6073 L121.875,121.7708 L117.7083,117.6042 L117.1624,117.6042 L119.6011,106.8519 L117.2231,96.0995 L116.7554,85.3472 L118.3424,74.5949 L115.856,63.8426 L116.2663,53.0903 L119.511,42.338 L118.9185,31.5856 L117.7083,20.8333 L121.875,16.6667 " fill="none" style="stroke:#FFFFFF;stroke-width:2.0833;"/><path d="M117.7083,50.3092 L117.7083,50.6012 L129.1123,49.7338 L140.5164,50.5777 L151.9204,50.8644 L163.3244,49.3184 L174.7284,50.3092 " fill="none" style="stroke:#FFFFFF;stroke-width:2.0833;"/><text fill="#FFFF00" font-family="Segoe Script" font-size="14.5833" font-weight="bold" lengthAdjust="spacing" textLength="33.0617" x="127.0833" y="37.4949">CFO</text></g><!--cluster Chatgpt--><g id="cluster_Chatgpt"><path d="M67.7083,592.6771 L67.7083,593.2609 L77.7965,591.5262 L87.8847,593.214 L97.9729,593.7873 L108.0611,590.6954 L118.1493,592.4612 L128.2375,591.4924 L138.3257,591.6118 L148.4139,592.4878 L158.5021,590.7566 L168.5903,592.6771 L172.757,596.8438 L173.2546,596.9669 L173.6488,602.5988 L175.4959,608.5901 L177.5202,614.6253 L178.5132,620.4054 L180.0486,626.3197 L180.0486,626.5092 L190.9345,626.2309 L201.8204,626.8156 L212.7064,626.9839 L223.5923,627.9466 L234.4782,628.1837 L245.3641,628.2065 L256.25,626.3197 L260.4167,630.4863 L261.124,630.4863 L261.7044,640.8105 L262.3673,651.1347 L258.4134,661.4589 L262.3014,671.7831 L259.593,682.1073 L261.8995,692.4314 L259.0416,702.7556 L260.2264,713.0798 L262.4767,723.404 L260.2813,733.7282 L260.7092,744.0524 L261.3573,754.3765 L261.5729,764.7007 L260.4058,775.0249 L261.2145,785.3491 L258.8266,795.6733 L261.2066,805.9975 L261.9394,816.3216 L260.4167,826.6458 L256.25,830.8125 L256.25,832.0473 L245.7755,832.5153 L235.3009,829.4706 L224.8264,829.0009 L214.3519,829.0864 L203.8773,830.6489 L193.4028,830.2666 L182.9282,832.7053 L172.4537,830.3273 L161.9792,829.8596 L151.5046,831.4466 L141.0301,828.9602 L130.5556,829.3705 L120.081,832.6151 L109.6065,832.0227 L99.1319,832.8528 L88.6574,829.9186 L78.1829,831.6992 L67.7083,830.8125 L63.5417,826.6458 L65.1817,826.6458 L62.2294,816.2003 L63.2754,805.7547 L63.8916,795.3092 L65.3521,784.8636 L63.53,774.4181 L64.8266,763.9725 L62.0034,753.527 L61.6604,743.0814 L64.9406,732.6359 L61.5502,722.1903 L64.9555,711.7448 L64.1156,701.2992 L62.7975,690.8537 L62.559,680.4081 L64.816,669.9626 L62.7102,659.517 L65.1857,649.0715 L62.0063,638.6259 L65.2567,628.1804 L64.887,617.7348 L64.2221,607.2893 L63.5417,596.8438 L67.7083,592.6771 " fill="none" style="stroke:#FFFFFF;stroke-width:2.0833;"/><path d="M63.5417,626.3197 L63.5417,626.6116 L74.1332,625.7442 L84.7247,626.5881 L95.3163,626.8748 L105.9078,625.3288 L116.4994,626.2117 L127.0909,625.7273 L137.6825,625.787 L148.274,626.225 L158.8655,625.3594 L169.4571,627.0886 L180.0486,626.3197 " fill="none" style="stroke:#FFFFFF;stroke-width:2.0833;"/><text fill="#FFFF00" font-family="Segoe Script" font-size="14.5833" font-weight="bold" lengthAdjust="spacing" textLength="92.5486" x="72.9167" y="613.5053">IT Manager</text></g><!--cluster Gemini--><g id="cluster_Gemini"><path d="M306.25,603.0938 L306.25,603.6776 L316.5295,601.9429 L326.809,603.6307 L337.0884,604.204 L347.3679,601.1121 L357.6474,602.8779 L367.9269,601.909 L378.2064,602.0285 L388.4859,602.9044 L398.7653,601.1733 L409.0448,604.6316 L419.3243,601.343 L429.6038,602.5444 L439.8833,604.2936 L450.1628,603.0938 L454.3294,607.2604 L454.2523,607.2413 L455.8491,613.1708 L457.2174,619.0437 L458.8649,624.9857 L460.3777,630.8943 L461.6211,636.7363 L461.6211,637.2786 L461.3802,637.3577 L461.1393,637.3653 L460.8984,636.9721 L460.6576,637.1656 L460.4167,636.7363 L464.5833,640.903 L466.534,640.903 L462.58,651.2163 L466.4681,661.5296 L463.7597,671.8429 L466.0661,682.1562 L463.2083,692.4695 L464.3931,702.7828 L466.6433,713.0961 L464.448,723.4094 L464.8758,733.7227 L465.524,744.036 L465.7395,754.3493 L464.5725,764.6626 L465.3811,774.9759 L462.9933,785.2893 L465.3733,795.6026 L466.1061,805.9159 L464.5833,816.2292 L460.4167,820.3958 L460.4167,821.6306 L450.1389,822.0987 L439.8611,819.0539 L429.5833,818.5842 L419.3056,818.6697 L409.0278,820.2323 L398.75,819.8499 L388.4722,822.2886 L378.1944,819.9106 L367.9167,819.4429 L357.6389,821.0299 L347.3611,818.5435 L337.0833,818.9538 L326.8056,822.1985 L316.5278,821.606 L306.25,820.3958 L302.0833,816.2292 L304.1236,816.2292 L301.1895,805.7807 L302.97,795.3323 L303.7234,784.8839 L300.7711,774.4354 L301.8171,763.987 L302.4333,753.5385 L303.8938,743.0901 L302.0717,732.6417 L303.3682,722.1932 L300.545,711.7448 L300.2021,701.2964 L303.4823,690.8479 L300.0918,680.3995 L303.4971,669.951 L302.6573,659.5026 L301.3391,649.0542 L301.1006,638.6057 L303.3577,628.1573 L301.2519,617.7089 L302.0833,607.2604 L306.25,603.0938 " fill="none" style="stroke:#FFFFFF;stroke-width:2.0833;"/><path d="M302.0833,636.7363 L302.0833,637.0282 L312.7192,636.1609 L323.355,637.0048 L333.9909,637.2914 L344.6267,635.7455 L355.2626,636.6284 L365.8984,636.144 L376.5343,636.2037 L387.1701,636.6417 L397.806,635.7761 L408.4418,637.5053 L419.0777,635.8609 L429.7135,636.4617 L440.3494,637.3363 L450.9852,636.6172 L461.6211,636.7363 " fill="none" style="stroke:#FFFFFF;stroke-width:2.0833;"/><text fill="#FFFF00" font-family="Segoe Script" font-size="14.5833" font-weight="bold" lengthAdjust="spacing" textLength="135.5794" x="311.4583" y="623.922">Project Manager</text></g><!--cluster Claude--><g id="cluster_Claude"><path d="M502.0833,632.2604 L502.0833,632.8443 L512.6729,631.1095 L523.2625,632.7973 L533.8521,633.3706 L544.4417,630.2788 L555.0313,632.0445 L565.6209,631.0757 L576.2105,631.1951 L586.8001,632.0711 L597.3897,630.3399 L607.9793,633.7983 L618.5689,630.5096 L629.1585,631.7111 L639.7481,633.4603 L650.3377,632.0221 L660.9273,632.45 L671.5169,632.2604 L675.6836,636.4271 L675.6549,636.42 L677.3024,642.362 L678.8152,648.2706 L680.585,654.2429 L682.1201,660.157 L682.9753,665.903 L682.9753,666.5319 L682.6302,666.1388 L682.2852,666.3322 L681.9401,666.5532 L681.5951,665.2352 L681.25,665.903 L685.4167,670.0697 L687.3014,670.0697 L684.593,680.7054 L686.8995,691.3411 L684.0416,701.9768 L685.2264,712.6125 L687.4767,723.2482 L685.2813,733.8839 L685.7092,744.5196 L686.3573,755.1554 L686.5729,765.7911 L685.4058,776.4268 L685.4167,787.0625 L681.25,791.2292 L681.25,792.027 L670.7108,789.6391 L660.1716,792.0191 L649.6324,792.7519 L639.0931,792.464 L628.5539,792.932 L618.0147,789.8873 L607.4755,789.4175 L596.9363,789.5031 L586.3971,791.0656 L575.8578,790.6833 L565.3186,793.122 L554.7794,790.744 L544.2402,790.2762 L533.701,791.8632 L523.1618,789.3768 L512.6225,789.7872 L502.0833,791.2292 L497.9167,787.0625 L499.7193,787.0625 L499.1269,776.3028 L499.9569,765.5432 L497.0228,754.7835 L498.8033,744.0238 L499.5567,733.2641 L496.6044,722.5045 L497.6504,711.7448 L498.2666,700.9851 L499.7271,690.2254 L497.905,679.4658 L499.2016,668.7061 L496.3784,657.9464 L496.0354,647.1868 L497.9167,636.4271 L502.0833,632.2604 " fill="none" style="stroke:#FFFFFF;stroke-width:2.0833;"/><path d="M497.9167,665.903 L497.9167,666.1949 L508.1977,665.3275 L518.4787,666.1714 L528.7598,666.4581 L539.0408,664.9122 L549.3218,665.7951 L559.6029,665.3106 L569.8839,665.3704 L580.1649,665.8083 L590.446,664.9428 L600.727,666.6719 L611.008,665.0276 L621.2891,665.6283 L631.5701,666.5029 L641.8511,665.7839 L652.1322,665.9978 L662.4132,665.8586 L672.6942,666.1509 L682.9753,665.903 " fill="none" style="stroke:#FFFFFF;stroke-width:2.0833;"/><text fill="#FFFF00" font-family="Segoe Script" font-size="14.5833" font-weight="bold" lengthAdjust="spacing" textLength="161.1003" x="507.2917" y="653.0887">Marketing Manager</text></g><!--cluster Technical Support Expert--><g id="cluster_Technical Support Expert"><path d="M20.8333,384.6146 L20.8333,385.1984 L31.1202,383.4637 L41.4071,385.1515 L51.694,385.7248 L61.9809,382.6329 L72.2678,384.3987 L82.5547,383.4299 L92.8416,383.5493 L103.1285,384.4253 L113.4154,382.6941 L123.7023,386.1525 L133.9892,382.8638 L144.2761,384.0652 L154.563,385.8144 L164.8499,384.3763 L175.1367,384.8041 L185.4236,384.5258 L195.7105,385.1105 L205.9974,385.2788 L216.2843,386.2415 L226.5712,386.4786 L236.8581,384.6146 L241.0248,388.7813 L241.6353,388.9323 L242.712,394.733 L244.3581,400.6747 L246.031,406.6229 L246.2099,412.2016 L248.3164,418.2572 L248.3164,418.8854 L248.0282,417.9826 L247.7399,418.7514 L247.4516,417.7988 L247.1633,418.1937 L246.875,418.2572 L251.0417,422.4238 L253.1017,422.4238 L250.9063,432.9435 L251.3342,443.4631 L251.9823,453.9827 L252.1979,464.5024 L251.0308,475.022 L251.0417,485.5417 L246.875,489.7083 L246.875,490.5061 L236.6004,488.1183 L226.3258,490.4983 L216.0511,491.2311 L205.7765,490.9431 L195.5019,491.4112 L185.2273,488.3664 L174.9527,487.8967 L164.678,487.9822 L154.4034,489.5448 L144.1288,489.1624 L133.8542,491.6011 L123.5795,489.2231 L113.3049,488.7554 L103.0303,490.3424 L92.7557,487.856 L82.4811,488.2663 L72.2064,491.511 L61.9318,490.9185 L51.6572,491.7486 L41.3826,488.8145 L31.108,490.595 L20.8333,489.7083 L16.6667,485.5417 L18.3067,485.5417 L15.3544,474.7905 L16.4004,464.0394 L17.0166,453.2882 L18.4771,442.537 L16.655,431.7859 L17.9516,421.0347 L15.1284,410.2836 L14.7854,399.5324 L16.6667,388.7813 L20.8333,384.6146 " fill="none" style="stroke:#FFFFFF;stroke-width:2.0833;"/><path d="M16.6667,418.2572 L16.6667,418.5491 L27.1962,417.6817 L37.7257,418.5256 L48.2553,418.8123 L58.7848,417.2663 L69.3143,418.1492 L79.8439,417.6648 L90.3734,417.7245 L100.903,418.1625 L111.4325,417.2969 L121.962,419.0261 L132.4916,417.3818 L143.0211,417.9825 L153.5506,418.8571 L164.0802,418.138 L174.6097,418.3519 L185.1392,418.2128 L195.6688,418.5051 L206.1983,418.5893 L216.7278,419.0706 L227.2574,419.1892 L237.7869,419.2006 L248.3164,418.2572 " fill="none" style="stroke:#FFFFFF;stroke-width:2.0833;"/><text fill="#FFFF00" font-family="Segoe Script" font-size="14.5833" font-weight="bold" lengthAdjust="spacing" textLength="207.6914" x="26.0417" y="405.4428">Technical Support Expert</text></g><!--cluster Perplexity--><g id="cluster_Perplexity"><path d="M714.5833,632.2604 L714.5833,632.8443 L724.7239,631.1095 L734.8644,632.7973 L745.005,633.3706 L755.1455,630.2788 L765.2861,632.0445 L775.4266,631.0757 L785.5672,631.1951 L795.7077,632.0711 L805.8482,630.3399 L815.9888,633.7983 L826.1293,630.5096 L836.2699,631.7111 L846.4104,633.4603 L856.551,632.0221 L866.6915,632.45 L876.8321,632.2604 L880.9987,636.4271 L880.97,636.42 L882.6175,642.362 L884.1303,648.2706 L885.9002,654.2429 L887.4352,660.157 L888.2904,665.903 L888.2904,666.5319 L887.924,666.1388 L887.5576,666.3322 L887.1912,666.5532 L886.8247,665.2352 L886.4583,665.903 L890.625,670.0697 L892.5098,670.0697 L889.8014,680.7054 L892.1078,691.3411 L889.2499,701.9768 L890.4347,712.6125 L892.685,723.2482 L890.4896,733.8839 L890.9175,744.5196 L891.5656,755.1554 L891.7812,765.7911 L890.6141,776.4268 L890.625,787.0625 L886.4583,791.2292 L886.4583,792.027 L876.348,789.6391 L866.2377,792.0191 L856.1275,792.7519 L846.0172,792.464 L835.9069,792.932 L825.7966,789.8873 L815.6863,789.4175 L805.576,789.5031 L795.4657,791.0656 L785.3554,790.6833 L775.2451,793.122 L765.1348,790.744 L755.0245,790.2762 L744.9142,791.8632 L734.8039,789.3768 L724.6936,789.7872 L714.5833,791.2292 L710.4167,787.0625 L712.2193,787.0625 L711.6269,776.3028 L712.4569,765.5432 L709.5228,754.7835 L711.3033,744.0238 L712.0567,733.2641 L709.1044,722.5045 L710.1504,711.7448 L710.7666,700.9851 L712.2271,690.2254 L710.405,679.4658 L711.7016,668.7061 L708.8784,657.9464 L708.5354,647.1868 L710.4167,636.4271 L714.5833,632.2604 " fill="none" style="stroke:#FFFFFF;stroke-width:2.0833;"/><path d="M710.4167,665.903 L710.4167,666.1949 L720.8798,665.3275 L731.343,666.1714 L741.8061,666.4581 L752.2693,664.9122 L762.7325,665.7951 L773.1956,665.3106 L783.6588,665.3704 L794.122,665.8083 L804.5851,664.9428 L815.0483,666.6719 L825.5114,665.0276 L835.9746,665.6283 L846.4378,666.5029 L856.9009,665.7839 L867.3641,665.9978 L877.8272,665.8586 L888.2904,665.903 " fill="none" style="stroke:#FFFFFF;stroke-width:2.0833;"/><text fill="#FFFF00" font-family="Segoe Script" font-size="14.5833" font-weight="bold" lengthAdjust="spacing" textLength="153.9154" x="719.7917" y="653.0887">Develope Manager</text></g><g id="elem_HoyasTrader"><polygon fill="none" points="452.1243,255.8816,450.0469,259.9787,442.1179,263.0961,433.02,266.202,425.5095,269.8093,411.3394,271.866,398.3941,274.0761,383.2001,275.5021,366.4596,276.1854,351.9212,276.8858,332.2023,275.784,319.6192,275.6615,303.3451,273.9285,287.6865,271.537,276.7147,269.4041,265.6906,266.416,257.4429,263.2416,250.6151,259.596,246.6379,255.8629,244.3968,251.852,245.4403,248.0097,249.2266,244.3105,256.6483,241.075,264.5944,237.701,274.5296,234.6582,290.884,233.11,300.9152,230.2215,318.6937,229.3971,332.2573,227.9743,351.3767,228.3404,366.4606,228.3631,380.0803,228.727,397.3466,230.691,410.8319,232.5764,422.5924,234.893,432.9741,237.7316,442.6647,241.2419,448.1016,244.5636,454.2944,248.8125,453.1987,252.0465" style="stroke:none;stroke-width:2.0833;"/><text fill="#FFA500" font-family="Segoe Script" font-size="16.6667" font-weight="bold" lengthAdjust="spacing" text-decoration="underline" textLength="119.7184" x="290.1449" y="255.9167">HoyasTrader</text></g><!--entity CIO--><g id="elem_CIO"><path d="M340.1771,412.8958 L340.1771,413.4797 L350.0489,411.7449 L359.9207,413.4327 L369.7926,414.0061 L379.6644,410.9142 L389.5362,412.8958 L393.7029,417.0625 L393.633,417.0452 L394.7779,422.8629 L396.2748,428.7676 L398.0166,434.7329 L398.9148,440.4895 L400.9945,446.5384 L400.9945,448.0763 L411.9951,444.7876 L422.9957,445.9891 L433.9963,447.7383 L444.9968,446.3001 L455.9974,446.728 L466.998,446.4497 L477.9985,447.0343 L488.9991,446.5384 L493.1658,450.7051 L493.3872,450.7051 L493.7081,458.0586 L493.7871,465.4121 L493.7947,472.7656 L493.4015,480.1191 L493.1658,487.4727 L488.9991,491.6393 L488.9991,492.9271 L478.369,493.59 L467.7388,489.636 L457.1087,493.5241 L446.4785,490.8157 L435.8484,493.1221 L425.2182,490.2643 L414.5881,491.449 L403.9579,493.6993 L393.3278,491.5039 L382.6977,491.9318 L372.0675,492.58 L361.4374,492.7955 L350.8072,491.6285 L340.1771,491.6393 L336.0104,487.4727 L336.8082,487.4727 L334.4204,477.4141 L336.8004,467.3555 L337.5332,457.2969 L337.2452,447.2383 L337.7133,437.1797 L334.6685,427.1211 L336.0104,417.0625 L340.1771,412.8958 " fill="none" style="stroke:#FFFFFF;stroke-width:2.0833;"/><path d="M336.0104,446.5384 L336.0104,446.8303 L346.8411,445.963 L357.6718,446.8069 L368.5025,447.0935 L379.3332,445.5476 L390.1639,446.4305 L400.9945,446.5384 " fill="none" style="stroke:#FFFFFF;stroke-width:2.0833;"/><text fill="#FFFF00" font-family="Segoe Script" font-size="14.5833" font-weight="bold" lengthAdjust="spacing" textLength="28.5258" x="351.6354" y="434.7657">CIO</text><text fill="#FFFFFF" font-family="Segoe Script" font-size="14.5833" font-weight="bold" lengthAdjust="spacing" textLength="113.4054" x="352.6771" y="472.575">&#171;TensorFlow&#187;</text></g><!--entity CTO--><g id="elem_CTO"><path d="M533.8333,412.8958 L533.8333,413.4797 L544.6095,411.7449 L555.3857,413.4327 L566.1618,414.0061 L576.938,410.9142 L587.7142,412.8958 L591.8808,417.0625 L591.811,417.0452 L592.9558,422.8629 L594.4528,428.7676 L596.1946,434.7329 L597.0927,440.4895 L599.1725,446.5384 L599.1725,448.0763 L610.0728,444.7876 L620.973,445.9891 L631.8733,447.7383 L642.7736,446.3001 L653.6738,446.5384 L657.8405,450.7051 L657.9037,450.7051 L657.8109,458.0586 L658.0058,465.4121 L658.0619,472.7656 L658.3828,480.1191 L657.8405,487.4727 L653.6738,491.6393 L653.6738,493.5034 L643.6871,493.5261 L633.7004,492.3466 L623.7137,492.9271 L613.727,493.59 L603.7403,489.636 L593.7536,493.5241 L583.7669,490.8157 L573.7802,493.1221 L563.7935,490.2643 L553.8067,491.449 L543.82,493.6993 L533.8333,491.6393 L529.6667,487.4727 L529.5313,487.4727 L529.9592,477.4141 L530.6073,467.3555 L530.8229,457.2969 L529.6558,447.2383 L530.4645,437.1797 L528.0766,427.1211 L529.6667,417.0625 L533.8333,412.8958 " fill="none" style="stroke:#FFFFFF;stroke-width:2.0833;"/><path d="M529.6667,446.5384 L529.6667,446.8303 L539.5961,445.963 L549.5255,446.8069 L559.4549,447.0935 L569.3843,445.5476 L579.3137,446.4305 L589.2431,445.9461 L599.1725,446.5384 " fill="none" style="stroke:#FFFFFF;stroke-width:2.0833;"/><text fill="#FFFF00" font-family="Segoe Script" font-size="14.5833" font-weight="bold" lengthAdjust="spacing" textLength="33.0475" x="545.2917" y="434.7657">CTO</text><text fill="#FFFFFF" font-family="Segoe Script" font-size="14.5833" font-weight="bold" lengthAdjust="spacing" textLength="84.4238" x="546.3333" y="472.575">&#171;Prophet&#187;</text></g><g id="elem_Madam"><polygon fill="none" points="295.0496,87.4555,293.434,90.9722,287.2675,93.648,280.192,96.3138,274.351,99.4101,263.3307,101.1755,253.263,103.0725,241.4464,104.2964,228.4272,104.8829,217.1204,105.4841,201.7848,104.5384,191.9988,104.4332,179.3422,102.9457,167.1643,100.8931,158.6314,99.0623,150.0579,96.4975,143.6435,93.7728,138.3334,90.6437,135.2404,87.4395,133.4974,83.9968,134.3089,80.6988,137.2536,77.5237,143.0255,74.7465,149.2053,71.8505,156.932,69.2388,169.6511,67.9099,177.4525,65.4305,191.279,64.723,201.8276,63.5017,216.697,63.816,228.4279,63.8355,239.0201,64.1478,252.4483,65.8335,262.936,67.4519,272.0823,69.4402,280.1563,71.8767,287.6927,74.8897,291.9211,77.7409,296.7373,81.3879,295.8852,84.1637" style="stroke:none;stroke-width:2.0833;"/><text fill="#FFA500" font-family="Segoe Script" font-size="12.5" font-weight="bold" lengthAdjust="spacing" textLength="87.03" x="172.1145" y="86.5654">Madam Jung</text></g><!--class part--><g id="elem_part"><polygon fill="none" points="112.8854,647.8854,112.8854,648.1044,123.6117,647.4538,134.338,648.0868,145.0643,648.3017,155.7905,647.1423,166.5168,647.8045,177.2431,647.4412,187.9694,647.4859,198.6957,647.8144,209.4219,647.1652,220.1482,648.4621,230.8745,647.8854,230.7908,647.6832,231.4375,648.0661,232.1104,648.5121,232.6309,648.5901,233.2406,648.8836,233.8208,649.1058,233.8105,649.1016,234.1221,649.7188,234.3857,650.3161,234.7409,650.9514,235.0124,651.552,235.0412,652.0521,235.7487,652.0521,235.3064,662.7373,235.5241,673.4225,235.7727,684.1077,234.2899,694.793,235.748,705.4782,234.7323,716.1634,235.5972,726.8486,234.5255,737.5339,234.9698,748.2191,235.8137,758.9043,234.9904,769.5895,235.1509,780.2747,235.3939,790.96,235.0412,801.6452,235.1747,801.7005,234.7958,802.2339,234.6452,802.8619,234.1253,803.3369,234.1561,804.04,233.8208,804.5915,233.8936,804.7673,233.2906,804.9781,232.7237,805.2763,231.9888,805.1687,231.3771,805.3586,230.8745,805.8118,230.8745,805.1646,220.1482,805.7505,209.4219,805.6071,198.6957,806.5217,187.9694,805.6299,177.2431,805.4545,166.5168,806.0496,155.7905,805.1172,145.0643,805.2711,134.338,806.4878,123.6117,806.2657,112.8854,805.8118,112.983,806.0475,112.2534,805.4645,111.7493,805.4261,111.1961,805.269,110.4656,804.684,109.9391,804.5915,109.9084,804.5787,109.7355,804.0189,109.6601,803.4996,109.2056,802.8231,109.1112,802.2959,108.7188,801.6452,108.1419,801.6452,108.0133,790.96,109.2433,780.2747,107.9719,769.5895,109.2489,758.9043,108.934,748.2191,108.4397,737.5339,108.3502,726.8486,109.1966,716.1634,108.4069,705.4782,109.3353,694.793,108.143,684.1077,109.3619,673.4225,109.2232,662.7373,108.7188,652.0521,108.7973,652.0846,108.978,651.4691,109.44,650.9701,109.6478,650.3658,109.7494,649.7176,109.9391,649.1058,109.9748,649.1918,110.5111,648.8199,111.2128,648.8475,111.7275,648.4233,112.3191,648.1849,112.8854,647.8854" style="stroke:#FF0000;stroke-width:4.1667;"/><polygon fill="none" points="149.3796,668.1112,147.8527,670.1975,146.0467,673.2533,143.4638,675.3127,140.7495,676.4388,138.5853,676.5366,135.8038,675.1282,133.1792,674.2081,131.1872,672.34,130.1422,670.2013,129.5225,668.4984,128.9154,666.2742,127.93,664.3601,128.6873,662.4913,129.3507,660.4442,131.8404,658.8251,133.5919,656.7243,135.76,656.0268,138.3373,655.426,141.6425,655.7829,143.4528,656.6367,145.5576,657.0237,148.1168,659.6456,149.0089,662.4136,149.3965,664.3022,148.9575,667.4145" style="stroke:#2E2E2E;stroke-width:1.0417;"/><path d="M140.8097,670.0046 Q140.3865,670.2161 139.9145,670.3301 Q139.4425,670.444 138.938,670.444 Q137.0825,670.444 136.1059,669.2396 Q135.1457,668.0189 135.1457,665.724 Q135.1457,663.4128 136.1059,662.2083 Q137.0825,660.9876 138.938,660.9876 Q139.4425,660.9876 139.9145,661.1016 Q140.4028,661.1992 140.8097,661.4271 L140.8097,663.429 Q140.354,663.0059 139.9145,662.8105 Q139.4751,662.599 139.0193,662.599 Q138.0265,662.599 137.522,663.3965 Q137.0174,664.1777 137.0174,665.724 Q137.0174,667.2539 137.522,668.0352 Q138.0265,668.8164 139.0193,668.8164 Q139.4751,668.8164 139.9145,668.6211 Q140.354,668.4258 140.8097,668.0026 L140.8097,670.0046 Z " fill="#FFFFFF"/><text fill="#FFFFFF" font-family="Segoe Script" font-size="12.5" lengthAdjust="spacing" textLength="49.9817" x="161.1228" y="669.9049">Chatgpt</text><path d="M109.7604,683.2695 L109.7604,683.5615 L120.1137,682.6941 L130.4669,683.538 L140.8202,683.8246 L151.1734,682.2787 L161.5267,683.1616 L171.88,682.6772 L182.2332,682.7369 L192.5865,683.1749 L202.9397,682.3093 L213.293,684.0385 L223.6463,682.3941 L233.9995,683.2695 " fill="none" style="stroke:#FF0000;stroke-width:4.1667;"/><polygon fill="none" points="123.3193,701.03,122.8613,701.6559,122.3195,702.5726,121.5446,703.1904,120.7303,703.5283,120.0811,703.5576,119.2466,703.1351,118.4592,702.859,117.8616,702.2986,117.5481,701.657,117.3622,701.1461,117.1801,700.4789,116.8845,699.9047,117.1116,699.344,117.3107,698.7299,118.0576,698.2441,118.583,697.6139,119.2334,697.4046,120.0067,697.2244,120.9982,697.3315,121.5413,697.5876,122.1727,697.7037,122.9405,698.4903,123.2081,699.3207,123.3244,699.8873,123.1927,700.821" style="stroke:#2E2E2E;stroke-width:1.0417;"/><text fill="#FFFFFF" font-family="Segoe Script" font-size="10.4167" lengthAdjust="spacing" textLength="89.8641" x="133.7188" y="702.3135">Al Developement</text><path d="M109.7604,714.1452 L109.7604,714.4371 L120.1137,713.5697 L130.4669,714.4136 L140.8202,714.7003 L151.1734,713.1544 L161.5267,714.0372 L171.88,713.5528 L182.2332,713.6125 L192.5865,714.0505 L202.9397,713.1849 L213.293,714.9141 L223.6463,713.2698 L233.9995,714.1452 " fill="none" style="stroke:#FF0000;stroke-width:1.0417;"/><polygon fill="none" points="117.0521,727.166,117.0521,727.239,118.3021,727.0222,119.5521,727.2331,120.8021,727.3048,122.0521,726.9183,123.3021,727.166,123.2751,727.166,123.154,728.416,123.1689,729.666,123.2784,730.916,123.062,732.166,123.3021,733.416,123.3021,733.6083,122.0521,733.1972,120.8021,733.3473,119.5521,733.566,118.3021,733.3862,117.0521,733.416,117.0758,733.416,117.041,732.166,117.1141,730.916,117.1351,729.666,117.2554,728.416,117.0521,727.166" style="stroke:#2E2E2E;stroke-width:1.0417;"/><text fill="#FFFFFF" font-family="Segoe Script" font-size="8.3333" lengthAdjust="spacing" textLength="32.0841" x="133.7188" y="731.2554">chatgpt</text><polygon fill="none" points="117.0521,747.9993,117.0521,748.0723,118.3021,747.8555,119.5521,748.0665,120.8021,748.1381,122.0521,747.7516,123.3021,747.9993,123.2751,747.9993,123.154,749.2493,123.1689,750.4993,123.2784,751.7493,123.062,752.9993,123.3021,754.2493,123.3021,754.4416,122.0521,754.0305,120.8021,754.1807,119.5521,754.3993,118.3021,754.2196,117.0521,754.2493,117.0758,754.2493,117.041,752.9993,117.1141,751.7493,117.1351,750.4993,117.2554,749.2493,117.0521,747.9993" style="stroke:#2E2E2E;stroke-width:1.0417;"/><text fill="#FFFFFF" font-family="Segoe Script" font-size="8.3333" lengthAdjust="spacing" textLength="28.4465" x="133.7188" y="752.0887">gemini</text><polygon fill="none" points="117.0521,768.8327,117.0521,768.9057,118.3021,768.6888,119.5521,768.8998,120.8021,768.9715,122.0521,768.585,123.3021,768.8327,123.2751,768.8327,123.154,770.0827,123.1689,771.3327,123.2784,772.5827,123.062,773.8327,123.3021,775.0827,123.3021,775.2749,122.0521,774.8638,120.8021,775.014,119.5521,775.2327,118.3021,775.0529,117.0521,775.0827,117.0758,775.0827,117.041,773.8327,117.1141,772.5827,117.1351,771.3327,117.2554,770.0827,117.0521,768.8327" style="stroke:#2E2E2E;stroke-width:1.0417;"/><text fill="#FFFFFF" font-family="Segoe Script" font-size="8.3333" lengthAdjust="spacing" textLength="27.7018" x="133.7188" y="772.922">claude</text><polygon fill="none" points="117.0521,789.666,117.0521,789.739,118.3021,789.5222,119.5521,789.7331,120.8021,789.8048,122.0521,789.4183,123.3021,789.666,123.2751,789.666,123.154,790.916,123.1689,792.166,123.2784,793.416,123.062,794.666,123.3021,795.916,123.3021,796.1083,122.0521,795.6972,120.8021,795.8473,119.5521,796.066,118.3021,795.8862,117.0521,795.916,117.0758,795.916,117.041,794.666,117.1141,793.416,117.1351,792.166,117.2554,790.916,117.0521,789.666" style="stroke:#2E2E2E;stroke-width:1.0417;"/><text fill="#FFFFFF" font-family="Segoe Script" font-size="8.3333" lengthAdjust="spacing" textLength="53.186" x="133.7188" y="793.7554">hugingspace</text></g><!--class part--><g id="elem_part"><polygon fill="none" points="358,658.3021,358,658.521,369.1078,657.8705,380.2156,658.5034,391.3235,658.7184,402.4313,657.559,413.5391,658.2211,424.6469,657.8578,435.7547,658.3021,435.7038,658.1791,436.3349,658.5243,436.8414,658.5685,437.5961,659.2119,438.028,659.0762,438.701,659.5225,438.6376,659.4962,439.0836,660.1691,439.1616,660.6896,439.4551,661.2993,439.6671,661.8752,439.9214,662.4688,440.1074,662.4688,440.1705,673.1987,440.5315,683.9287,440.6204,694.6587,440.6289,705.3887,440.1866,716.1187,440.4043,726.8486,440.6529,737.5786,439.1702,748.3086,440.6282,759.0386,439.6125,769.7686,440.4774,780.4985,439.9214,791.2285,439.7626,791.1627,439.6553,791.8087,439.6711,792.5056,439.1735,792.9898,438.9789,793.5995,438.701,794.1748,438.746,794.2834,438.167,794.5524,437.522,794.6617,436.9714,794.9992,436.2679,794.9675,435.7547,795.3952,435.7547,795.6914,424.6469,795.9662,413.5391,795.8582,402.4313,796.0337,391.3235,794.892,380.2156,794.7158,369.1078,794.7479,358,795.3952,357.9922,795.3763,357.3846,795.0881,356.912,795.1256,356.209,794.6069,355.5974,794.3088,355.0537,794.1748,355.1269,794.2051,354.5957,793.4969,354.399,792.9273,354.5297,792.4933,354.2172,791.8757,353.8333,791.2285,354.5984,791.2285,353.4981,780.4985,354.1658,769.7686,354.4484,759.0386,353.3412,748.3086,353.7335,737.5786,353.9646,726.8486,354.5122,716.1187,353.829,705.3887,354.3152,694.6587,353.2565,683.9287,353.1279,673.1987,353.8333,662.4688,353.9949,662.5357,353.8474,661.7842,354.4848,661.3579,354.6319,660.7284,354.7237,660.0761,355.0537,659.5225,355.0067,659.409,355.7039,659.4256,356.1925,658.9383,356.9001,658.9801,357.3373,658.3688,358,658.3021" style="stroke:#FF0000;stroke-width:4.1667;"/><polygon fill="none" points="378.8909,678.5279,377.364,680.6142,375.558,683.67,372.975,685.7294,370.2608,686.8555,368.0966,686.9533,365.315,685.5448,362.6905,684.6247,360.6984,682.7566,359.6535,680.618,359.0338,678.9151,358.4267,676.6908,357.4413,674.7768,358.1985,672.908,358.8619,670.8608,361.3516,669.2418,363.1032,667.141,365.2712,666.4434,367.8486,665.8427,371.1538,666.1996,372.9641,667.0534,375.0689,667.4403,377.628,670.0623,378.5201,672.8303,378.9077,674.7189,378.4687,677.8311" style="stroke:#2E2E2E;stroke-width:1.0417;"/><path d="M370.321,680.4212 Q369.8978,680.6328 369.4258,680.7467 Q368.9538,680.8607 368.4492,680.8607 Q366.5938,680.8607 365.6172,679.6563 Q364.6569,678.4355 364.6569,676.1406 Q364.6569,673.8294 365.6172,672.625 Q366.5938,671.4043 368.4492,671.4043 Q368.9538,671.4043 369.4258,671.5182 Q369.9141,671.6159 370.321,671.8438 L370.321,673.8457 Q369.8652,673.4225 369.4258,673.2272 Q368.9863,673.0156 368.5306,673.0156 Q367.5378,673.0156 367.0332,673.8132 Q366.5286,674.5944 366.5286,676.1406 Q366.5286,677.6706 367.0332,678.4518 Q367.5378,679.2331 368.5306,679.2331 Q368.9863,679.2331 369.4258,679.0378 Q369.8652,678.8424 370.321,678.4193 L370.321,680.4212 Z " fill="#FFFFFF"/><text fill="#FFFFFF" font-family="Segoe Script" font-size="12.5" lengthAdjust="spacing" textLength="44.4214" x="387.1667" y="680.3215">Gemini</text><path d="M354.875,693.6862 L354.875,693.9781 L365.3756,693.1108 L375.8762,693.9547 L386.3768,694.2413 L396.8774,692.6954 L407.378,693.5783 L417.8785,693.0938 L428.3791,693.1536 L438.8797,693.6862 " fill="none" style="stroke:#FF0000;stroke-width:4.1667;"/><polygon fill="none" points="368.4339,711.4466,367.9759,712.0725,367.4341,712.9893,366.6592,713.6071,365.8449,713.9449,365.1956,713.9743,364.3612,713.5517,363.5738,713.2757,362.9762,712.7153,362.6627,712.0737,362.4768,711.5628,362.2947,710.8955,361.999,710.3213,362.2262,709.7607,362.4252,709.1465,363.1721,708.6608,363.6976,708.0306,364.348,707.8213,365.1212,707.6411,366.1128,707.7482,366.6559,708.0043,367.2873,708.1204,368.0551,708.907,368.3227,709.7374,368.439,710.304,368.3073,711.2376" style="stroke:#2E2E2E;stroke-width:1.0417;"/><text fill="#FFFFFF" font-family="Segoe Script" font-size="10.4167" lengthAdjust="spacing" textLength="36.0514" x="378.8333" y="712.7302">Project</text><path d="M354.875,724.5618 L354.875,724.8538 L365.3756,723.9864 L375.8762,724.8303 L386.3768,725.117 L396.8774,723.571 L407.378,724.4539 L417.8785,723.9695 L428.3791,724.0292 L438.8797,724.5618 " fill="none" style="stroke:#FF0000;stroke-width:1.0417;"/><polygon fill="none" points="362.1667,737.5827,362.1667,737.6557,363.4167,737.4388,364.6667,737.6498,365.9167,737.7215,367.1667,737.335,368.4167,737.5827,368.3897,737.5827,368.2686,738.8327,368.2835,740.0827,368.393,741.3327,368.1766,742.5827,368.4167,743.8327,368.4167,744.0249,367.1667,743.6138,365.9167,743.764,364.6667,743.9827,363.4167,743.8029,362.1667,743.8327,362.1904,743.8327,362.1556,742.5827,362.2287,741.3327,362.2497,740.0827,362.37,738.8327,362.1667,737.5827" style="stroke:#2E2E2E;stroke-width:1.0417;"/><text fill="#FFFFFF" font-family="Segoe Script" font-size="8.3333" lengthAdjust="spacing" textLength="36.9751" x="378.8333" y="741.672">plantuml</text><polygon fill="none" points="362.1667,758.416,362.1667,758.489,363.4167,758.2722,364.6667,758.4831,365.9167,758.5548,367.1667,758.1683,368.4167,758.416,368.3897,758.416,368.2686,759.666,368.2835,760.916,368.393,762.166,368.1766,763.416,368.4167,764.666,368.4167,764.8583,367.1667,764.4472,365.9167,764.5973,364.6667,764.816,363.4167,764.6362,362.1667,764.666,362.1904,764.666,362.1556,763.416,362.2287,762.166,362.2497,760.916,362.37,759.666,362.1667,758.416" style="stroke:#2E2E2E;stroke-width:1.0417;"/><text fill="#FFFFFF" font-family="Segoe Script" font-size="8.3333" lengthAdjust="spacing" textLength="22.3918" x="378.8333" y="762.5054">colab</text><polygon fill="none" points="362.1667,779.2493,362.1667,779.3223,363.4167,779.1055,364.6667,779.3165,365.9167,779.3881,367.1667,779.0016,368.4167,779.2493,368.3897,779.2493,368.2686,780.4993,368.2835,781.7493,368.393,782.9993,368.1766,784.2493,368.4167,785.4993,368.4167,785.6916,367.1667,785.2805,365.9167,785.4307,364.6667,785.6493,363.4167,785.4696,362.1667,785.4993,362.1904,785.4993,362.1556,784.2493,362.2287,782.9993,362.2497,781.7493,362.37,780.4993,362.1667,779.2493" style="stroke:#2E2E2E;stroke-width:1.0417;"/><text fill="#FFFFFF" font-family="Segoe Script" font-size="8.3333" lengthAdjust="spacing" textLength="39.7949" x="378.8333" y="783.3387">devspace</text></g><!--class part--><g id="elem_part"><polygon fill="none" points="518.9167,679.1354,518.9167,679.3544,529.8797,678.7038,540.8428,679.3368,551.8059,679.5517,562.769,678.3923,573.732,679.0545,584.6951,678.6912,595.6582,679.1354,595.6072,679.0124,596.2384,679.3576,596.7448,679.4018,597.4995,680.0453,597.9315,679.9095,598.6045,680.3558,598.541,680.3295,598.9871,681.0025,599.0651,681.5229,599.3586,682.1326,599.5705,682.7086,599.8249,683.3021,600.0108,683.3021,600.074,694.1887,600.435,705.0754,600.5239,715.962,600.5324,726.8486,600.0901,737.7353,600.3078,748.6219,600.5564,759.5085,599.8249,770.3952,599.5935,770.2994,599.7985,771.0746,599.2416,771.5343,599.2639,772.2339,598.6898,772.6864,598.6045,773.3415,598.5954,773.3195,598.1138,773.8234,597.4195,773.814,596.8507,774.1075,596.2925,774.4264,595.6582,774.5618,595.6582,774.9954,584.6951,774.5578,573.732,774.861,562.769,773.9656,551.8059,774.8581,540.8428,775.1329,529.8797,775.0249,518.9167,774.5618,518.9981,774.7585,518.2632,774.1628,517.6515,773.8645,517.0663,773.6303,516.5518,773.5666,515.9704,773.3415,515.9073,773.3153,515.9449,772.8427,515.4262,772.1397,515.1281,771.5281,515.0673,771.0148,514.75,770.3952,514.0554,770.3952,514.2092,759.5085,515.426,748.6219,515.2038,737.7353,515.5151,726.8486,514.4148,715.962,515.0825,705.0754,515.365,694.1887,514.75,683.3021,514.5985,683.2393,514.9633,682.7001,515.2786,682.1403,515.6913,681.6209,515.725,680.9445,515.9704,680.3558,516.0319,680.5042,516.4861,679.9341,517.0589,679.6504,517.8051,679.7851,518.2321,679.1495,518.9167,679.1354" style="stroke:#FF0000;stroke-width:4.1667;"/><polygon fill="none" points="539.8075,699.3612,538.2806,701.4475,536.4746,704.5033,533.8917,706.5627,531.1774,707.6888,529.0133,707.7866,526.2317,706.3782,523.6072,705.4581,521.6151,703.59,520.5701,701.4513,519.9504,699.7484,519.3433,697.5242,518.3579,695.6101,519.1152,693.7413,519.7786,691.6942,522.2683,690.0751,524.0199,687.9743,526.1879,687.2768,528.7653,686.676,532.0705,687.0329,533.8808,687.8867,535.9855,688.2737,538.5447,690.8956,539.4368,693.6636,539.8244,695.5522,539.3854,698.6645" style="stroke:#2E2E2E;stroke-width:1.0417;"/><path d="M531.2376,701.2546 Q530.8145,701.4661 530.3424,701.5801 Q529.8704,701.694 529.3659,701.694 Q527.5104,701.694 526.5339,700.4896 Q525.5736,699.2689 525.5736,696.974 Q525.5736,694.6628 526.5339,693.4583 Q527.5104,692.2376 529.3659,692.2376 Q529.8704,692.2376 530.3424,692.3516 Q530.8307,692.4492 531.2376,692.6771 L531.2376,694.679 Q530.7819,694.2559 530.3424,694.0605 Q529.903,693.849 529.4473,693.849 Q528.4544,693.849 527.9499,694.6465 Q527.4453,695.4277 527.4453,696.974 Q527.4453,698.5039 527.9499,699.2852 Q528.4544,700.0664 529.4473,700.0664 Q529.903,700.0664 530.3424,699.8711 Q530.7819,699.6758 531.2376,699.2526 L531.2376,701.2546 Z " fill="#FFFFFF"/><text fill="#FFFFFF" font-family="Segoe Script" font-size="12.5" lengthAdjust="spacing" textLength="43.4082" x="548.0833" y="701.1549">Claude</text><path d="M515.7917,714.5195 L515.7917,714.8115 L526.1656,713.9441 L536.5396,714.788 L546.9135,715.0746 L557.2874,713.5287 L567.6614,714.4116 L578.0353,713.9272 L588.4093,713.9869 L598.7832,714.5195 " fill="none" style="stroke:#FF0000;stroke-width:4.1667;"/><polygon fill="none" points="529.3506,732.28,528.8925,732.9059,528.3507,733.8226,527.5758,734.4404,526.7616,734.7783,526.1123,734.8076,525.2778,734.3851,524.4905,734.109,523.8929,733.5486,523.5794,732.907,523.3935,732.3961,523.2113,731.7289,522.9157,731.1547,523.1429,730.594,523.3419,729.9799,524.0888,729.4941,524.6143,728.8639,525.2647,728.6546,526.0379,728.4744,527.0295,728.5815,527.5726,728.8376,528.204,728.9537,528.9717,729.7403,529.2394,730.5707,529.3557,731.1373,529.2239,732.071" style="stroke:#2E2E2E;stroke-width:1.0417;"/><text fill="#FFFFFF" font-family="Segoe Script" font-size="10.4167" lengthAdjust="spacing" textLength="21.1589" x="539.75" y="733.5635">Mail</text><path d="M515.7917,745.3952 L515.7917,745.6871 L526.1656,744.8197 L536.5396,745.6636 L546.9135,745.9503 L557.2874,744.4044 L567.6614,745.2872 L578.0353,744.8028 L588.4093,744.8625 L598.7832,745.3952 " fill="none" style="stroke:#FF0000;stroke-width:1.0417;"/><polygon fill="none" points="523.0833,758.416,523.0833,758.489,524.3333,758.2722,525.5833,758.4831,526.8333,758.5548,528.0833,758.1683,529.3333,758.416,529.3063,758.416,529.1852,759.666,529.2002,760.916,529.3097,762.166,529.0933,763.416,529.3333,764.666,529.3333,764.8583,528.0833,764.4472,526.8333,764.5973,525.5833,764.816,524.3333,764.6362,523.0833,764.666,523.107,764.666,523.0722,763.416,523.1453,762.166,523.1664,760.916,523.2867,759.666,523.0833,758.416" style="stroke:#2E2E2E;stroke-width:1.0417;"/><text fill="#FFFFFF" font-family="Segoe Script" font-size="8.3333" lengthAdjust="spacing" textLength="27.7018" x="539.75" y="762.5054">claude</text></g><g id="elem_Chan"><polygon fill="none" points="221.1924,455.393,219.8925,458.9097,214.9311,461.5855,209.2384,464.2513,204.5389,467.3476,195.6724,469.113,187.5723,471.01,178.065,472.2339,167.5902,472.8204,158.4932,473.4216,146.1547,472.4759,138.2812,472.3707,128.0981,470.8832,118.3002,468.8306,111.4349,466.9998,104.537,464.435,99.3762,461.7103,95.1039,458.5812,92.6153,455.377,91.213,451.9343,91.8659,448.6363,94.2351,445.4612,98.879,442.684,103.851,439.788,110.0677,437.1763,120.301,435.8474,126.5777,433.368,137.7021,432.6605,146.1891,431.4392,158.1525,431.7535,167.5908,431.773,176.1129,432.0853,186.9168,433.771,195.3548,435.3894,202.7136,437.3777,209.2097,439.8142,215.2733,442.8272,218.6753,445.6784,222.5502,449.3254,221.8647,452.1012" style="stroke:none;stroke-width:2.0833;"/><text fill="#FFA500" font-family="Segoe Script" font-size="12.5" font-weight="bold" lengthAdjust="spacing" textLength="64.679" x="124.9541" y="454.5029">Chan Lee</text></g><!--class part--><g id="elem_part"><polygon fill="none" points="731.1875,679.1354,731.1875,679.3544,741.8506,678.7038,752.5136,679.3368,763.1767,679.5517,773.8398,678.3923,784.5028,679.0545,795.1659,678.6912,805.829,678.7359,816.492,679.0644,827.1551,679.1354,827.0632,678.9136,827.8179,679.5571,828.2499,679.4214,828.8966,679.8042,829.5695,680.2503,830.1014,680.3558,830.0739,680.3444,830.3674,680.9541,830.5793,681.5301,830.8909,682.1473,831.1544,682.7446,831.3218,683.3021,831.9319,683.3021,832.0208,694.1887,832.0293,705.0754,831.587,715.962,831.8047,726.8486,832.0533,737.7353,830.5705,748.6219,832.0286,759.5085,831.3218,770.3952,831.2267,770.3558,831.2489,771.0554,830.6748,771.5079,830.5676,772.1538,830.5834,772.8507,830.1014,773.3415,830.0949,773.3258,829.5261,773.6193,828.9679,773.9382,828.3889,774.2072,827.7438,774.3165,827.1551,774.5618,827.1551,774.861,816.492,773.9656,805.829,774.8581,795.1659,775.1329,784.5028,775.0249,773.8398,775.2004,763.1767,774.0586,752.5136,773.8825,741.8506,773.9146,731.1875,774.5618,731.1797,774.543,730.5721,774.2547,730.0995,774.2923,729.3965,773.7736,728.7849,773.4755,728.2412,773.3415,728.3144,773.3718,727.7832,772.6636,727.5865,772.094,727.7172,771.6599,727.4047,771.0423,727.0208,770.3952,727.7859,770.3952,726.6856,759.5085,727.3533,748.6219,727.6359,737.7353,726.5287,726.8486,726.921,715.962,727.1521,705.0754,727.6997,694.1887,727.0208,683.3021,727.0195,683.3015,727.4133,682.7743,727.3313,682.05,727.5358,681.4443,728.1587,681.012,728.2412,680.3558,728.146,680.1258,728.8981,680.275,729.4472,679.9339,729.9734,679.5376,730.5512,679.266,731.1875,679.1354" style="stroke:#FF0000;stroke-width:4.1667;"/><polygon fill="none" points="752.0784,699.3612,750.5515,701.4475,748.7455,704.5033,746.1625,706.5627,743.4483,707.6888,741.2841,707.7866,738.5025,706.3782,735.878,705.4581,733.8859,703.59,732.841,701.4513,732.2213,699.7484,731.6142,697.5242,730.6288,695.6101,731.386,693.7413,732.0494,691.6942,734.5391,690.0751,736.2907,687.9743,738.4587,687.2768,741.0361,686.676,744.3413,687.0329,746.1516,687.8867,748.2564,688.2737,750.8155,690.8956,751.7076,693.6636,752.0952,695.5522,751.6562,698.6645" style="stroke:#2E2E2E;stroke-width:1.0417;"/><path d="M743.5085,701.2546 Q743.0853,701.4661 742.6133,701.5801 Q742.1413,701.694 741.6367,701.694 Q739.7813,701.694 738.8047,700.4896 Q737.8444,699.2689 737.8444,696.974 Q737.8444,694.6628 738.8047,693.4583 Q739.7813,692.2376 741.6367,692.2376 Q742.1413,692.2376 742.6133,692.3516 Q743.1016,692.4492 743.5085,692.6771 L743.5085,694.679 Q743.0527,694.2559 742.6133,694.0605 Q742.1738,693.849 741.7181,693.849 Q740.7253,693.849 740.2207,694.6465 Q739.7161,695.4277 739.7161,696.974 Q739.7161,698.5039 740.2207,699.2852 Q740.7253,700.0664 741.7181,700.0664 Q742.1738,700.0664 742.6133,699.8711 Q743.0527,699.6758 743.5085,699.2526 L743.5085,701.2546 Z " fill="#FFFFFF"/><text fill="#FFFFFF" font-family="Segoe Script" font-size="12.5" lengthAdjust="spacing" textLength="62.6343" x="760.3542" y="701.1549">Perplexity</text><path d="M728.0625,714.5195 L728.0625,714.8115 L738.2843,713.9441 L748.506,714.788 L758.7278,715.0746 L768.9495,713.5287 L779.1713,714.4116 L789.3931,713.9272 L799.6148,713.9869 L809.8366,714.4249 L820.0583,713.5593 L830.2801,714.5195 " fill="none" style="stroke:#FF0000;stroke-width:4.1667;"/><polygon fill="none" points="741.6214,732.28,741.1634,732.9059,740.6216,733.8226,739.8467,734.4404,739.0324,734.7783,738.3831,734.8076,737.5487,734.3851,736.7613,734.109,736.1637,733.5486,735.8502,732.907,735.6643,732.3961,735.4822,731.7289,735.1865,731.1547,735.4137,730.594,735.6127,729.9799,736.3596,729.4941,736.8851,728.8639,737.5355,728.6546,738.3087,728.4744,739.3003,728.5815,739.8434,728.8376,740.4748,728.9537,741.2426,729.7403,741.5102,730.5707,741.6265,731.1373,741.4948,732.071" style="stroke:#2E2E2E;stroke-width:1.0417;"/><text fill="#FFFFFF" font-family="Segoe Script" font-size="10.4167" lengthAdjust="spacing" textLength="36.1074" x="752.0208" y="733.5635">Python</text><path d="M728.0625,745.3952 L728.0625,745.6871 L738.2843,744.8197 L748.506,745.6636 L758.7278,745.9503 L768.9495,744.4044 L779.1713,745.2872 L789.3931,744.8028 L799.6148,744.8625 L809.8366,745.3005 L820.0583,744.4349 L830.2801,745.3952 " fill="none" style="stroke:#FF0000;stroke-width:1.0417;"/><polygon fill="none" points="735.3542,758.416,735.3542,758.489,736.6042,758.2722,737.8542,758.4831,739.1042,758.5548,740.3542,758.1683,741.6042,758.416,741.5772,758.416,741.4561,759.666,741.471,760.916,741.5805,762.166,741.3641,763.416,741.6042,764.666,741.6042,764.8583,740.3542,764.4472,739.1042,764.5973,737.8542,764.816,736.6042,764.6362,735.3542,764.666,735.3779,764.666,735.3431,763.416,735.4162,762.166,735.4372,760.916,735.5575,759.666,735.3542,758.416" style="stroke:#2E2E2E;stroke-width:1.0417;"/><text fill="#FFFFFF" font-family="Segoe Script" font-size="8.3333" lengthAdjust="spacing" textLength="38.2324" x="752.0208" y="762.5054">Streamlit</text></g><!--link Madam to HoyasTrader--><g id="link_Madam_HoyasTrader"><path d="M235.4972,109.8872 L235.724,110.071 L241.6108,117.6207 L248.8271,126.2477 L255.6104,134.5239 L260.97,141.6463 L268.2166,150.298 L274.4009,158.0887 L281.0079,166.222 L287.9089,174.5935 L293.797,182.1443 L301.7011,191.3287 L306.9843,198.3892 L314.0116,206.8631 L321.2518,215.5095 L327.3463,223.2275 " fill="none" style="stroke:#FFA500;stroke-width:3.125;"/><polygon fill="#FFA500" points="231.5625,105.0313,231.633,105.0502,231.9565,106.9753,232.6932,109.0115,233.2954,111.0116,233.4551,112.8926,234.2272,114.9384,234.2004,114.9356,234.2028,113.7508,234.3405,112.5803,234.5722,111.4196,234.4798,110.225,234.8414,109.0779,234.8615,109.2691,235.9907,108.9831,237.1785,109.2553,238.3733,109.5956,239.5267,109.5396,240.7019,109.6921,240.7126,109.7132,238.869,108.75,237.0743,107.883,235.256,106.9696,233.4828,106.1446,231.5625,105.0313" style="stroke:#FFA500;stroke-width:3.125;"/><polygon fill="#FFA500" points="331.2813,228.0833,331.3517,228.1023,330.6093,226.0646,330.28,224.138,329.8161,222.1752,328.9099,220.0934,328.6161,218.1763,328.5892,218.1735,328.346,219.333,328.2381,220.5067,328.2242,221.6902,327.8862,222.8397,328.0021,224.0368,328.0222,224.228,326.8072,223.6964,325.6508,223.723,324.5015,223.8176,323.3106,223.5161,322.1417,223.4229,322.1524,223.444,323.9645,224.3451,325.8257,225.3423,327.6631,226.2931,329.5457,227.3324,331.2813,228.0833" style="stroke:#FFA500;stroke-width:3.125;"/><text fill="#FFFFFF" font-family="Segoe Script" font-size="12.5" lengthAdjust="spacing" textLength="30.9692" x="284.375" y="156.2903">Fund</text></g><!--link HoyasTrader to Chan--><g id="link_HoyasTrader_Chan"><path d="M286.4023,275.2729 L286.4441,275.3608 L283.4119,276.4842 L280.6249,278.1227 L277.758,279.5935 L274.6286,280.5127 L271.8627,282.1954 L271.8447,282.1643 L269.0832,283.5677 L266.4121,285.1284 L263.8039,286.7983 L260.979,288.0917 L258.4576,289.9125 L258.6061,290.1215 L255.7487,291.479 L253.3246,293.4466 L250.9535,295.4886 L248.2747,297.0975 L245.7577,298.9342 L245.7784,298.9581 L243.2631,301.0904 L240.8423,303.3312 L238.3758,305.5196 L235.9964,307.8079 L233.3333,309.7708 L233.5596,309.9837 L230.9598,312.7523 L228.214,315.3837 L225.6819,318.216 L223.1598,321.0577 L220.3205,323.6009 L220.0572,323.3956 L218.248,326.7679 L215.572,329.4639 L213.5549,332.6741 L210.8592,335.3548 L208.7198,338.4695 L208.6933,338.452 L206.9568,341.7547 L204.6024,344.6484 L202.6125,347.7835 L200.6533,350.9388 L198.4733,353.9479 L198.6406,354.0435 L196.6817,357.0789 L195.0086,360.2777 L192.8731,363.2121 L191.4274,366.5409 L189.5231,369.6074 L189.75,369.721 L188.1647,372.7819 L186.6921,375.8992 L184.6959,378.7545 L183.0835,381.8019 L181.8111,385.0194 L181.5481,384.9028 L180.4799,387.9555 L179.1153,390.8768 L178.1805,393.9886 L176.5119,396.7752 L175.2795,399.7551 L175.1319,399.6965 L174.2958,402.5202 L172.8288,405.0935 L171.8105,407.8449 L171.2313,410.7705 L169.8702,413.3859 L170.06,413.4541 L169.3212,415.9203 L167.992,418.1744 L167.4023,420.6941 L166.6515,423.156 L165.5253,425.4831 " fill="none" style="stroke:#FFA500;stroke-width:3.125;"/><polygon fill="#FFA500" points="292.125,272.7604,292.1253,272.8334,290.0725,272.6073,288.0217,272.809,285.9702,272.8713,283.9166,272.4756,281.8659,272.714,281.8561,272.6889,282.9101,273.0041,284.0136,273.446,285.1514,273.976,286.1708,274.2025,287.356,274.8542,287.5352,274.924,286.7241,275.8727,286.436,277.0253,286.2117,278.2027,285.6162,279.2355,285.2159,280.3443,285.2334,280.3603,286.5895,278.8201,288.0253,277.3525,289.4227,275.8499,290.8935,274.4142,292.125,272.7604" style="stroke:#FFA500;stroke-width:3.125;"/><polygon fill="#FFA500" points="163.5,431.3958,163.5535,431.4455,164.7905,429.7942,166.3411,428.4339,167.7896,426.9789,168.9023,425.2121,170.4798,423.8769,170.4679,423.8527,169.3562,424.2622,168.3044,424.794,167.2941,425.4106,166.1406,425.7346,165.1877,426.4685,165.3604,426.5531,164.4729,425.3139,164.0894,424.3215,163.7674,423.3593,163.0877,422.2218,162.5961,421.1765,162.6197,421.1786,162.7658,423.2194,163.0194,425.2697,163.2211,427.3154,163.5218,429.3699,163.5,431.3958" style="stroke:#FFA500;stroke-width:3.125;"/><text fill="#FFFFFF" font-family="Segoe Script" font-size="12.5" lengthAdjust="spacing" textLength="47.4304" x="239.5833" y="327.6236">Discuss</text></g><!--link Madam to Chan--><g id="link_Madam_Chan"><path d="M198.6412,110.4204 L198.7244,110.4709 L196.8424,113.013 L195.448,115.8511 L193.8948,118.5928 L191.8195,121.0175 L190.467,123.8811 L190.4352,123.8643 L188.7259,126.7547 L187.177,129.7298 L185.7395,132.7638 L183.9179,135.5949 L182.6344,138.7102 L182.8697,138.8119 L180.9583,141.8508 L179.7338,145.1868 L178.593,148.5589 L176.9647,151.7202 L175.5929,154.9924 L175.6229,155.0022 L174.4186,158.5519 L173.351,162.1461 L172.2174,165.7187 L171.2097,169.3324 L169.7917,172.8125 L170.0933,172.887 L169.2182,176.4466 L168.1485,179.9583 L167.3636,183.5402 L166.5921,187.1254 L165.3976,190.6063 L165.0705,190.5393 L164.9647,194.2878 L163.7818,197.8158 L163.4178,201.5115 L162.2105,205.0345 L161.6943,208.699 L161.6631,208.6938 L161.4206,212.4097 L160.4473,216.0031 L159.9052,219.6688 L159.3994,223.3406 L158.6324,226.9686 L158.8233,226.9944 L158.1366,230.6332 L157.7761,234.316 L156.8877,237.9277 L156.7868,241.6456 L156.1623,245.2928 L156.4147,245.3194 L155.9815,248.9657 L155.6736,252.6252 L154.7834,256.2233 L154.3201,259.8664 L154.2349,263.5494 L153.9481,263.5266 L153.9208,267.1606 L153.5704,270.7689 L153.6887,274.4145 L153.0068,277.9965 L152.8005,281.6162 L152.642,281.6074 L152.7079,285.1731 L152.0961,288.7009 L151.9662,292.2557 L152.3081,295.8368 L151.81,299.371 L152.0115,299.378 L152.0306,302.8469 L151.4226,306.2942 L151.5999,309.7685 L151.6062,313.2369 L151.2138,316.6917 L150.9951,316.6884 L151.1191,320.0438 L151.1716,323.3982 L151.3647,326.7547 L151.0108,330.103 L150.9625,333.4559 L151.1767,333.4565 L150.715,336.6723 L150.6667,339.8893 L151.2223,343.1079 L150.6661,346.3235 L151.0069,349.5415 L151.2425,349.546 L151.1606,352.6003 L150.9991,355.6531 L151.0174,358.7093 L151.4516,361.7734 L151.2974,364.8263 L151.1589,364.8216 L151.6687,367.708 L151.2366,370.5624 L151.8755,373.4531 L151.9113,376.3234 L151.7847,379.1882 L151.898,379.1936 L151.9335,381.8525 L152.3746,384.5308 L152.4493,387.1917 L152.3707,389.8452 L152.4194,392.5048 L152.5434,392.5123 L152.5058,394.931 L153.0436,397.3844 L152.9306,399.7986 L153.0853,402.229 L153.1521,404.654 L152.8713,404.6324 L153.2774,408.7011 L154.0219,412.7958 L154.2876,416.8537 L154.3818,420.8984 L154.714,424.9614 " fill="none" style="stroke:#FFA500;stroke-width:3.125;"/><polygon fill="#FFA500" points="202.0104,105.1563,202.0506,105.2172,200.2185,106.1662,198.6221,107.4723,196.9489,108.6621,195.0234,109.4696,193.4472,110.8063,193.4414,110.78,194.5666,110.409,195.7209,110.171,196.8955,110.0252,198.0002,109.5612,199.2028,109.543,199.3905,109.5842,199.2417,110.6472,199.641,111.8305,200.1072,113.0285,200.1843,114.1411,200.4661,115.2986,200.4895,115.3021,200.764,113.2684,201.1451,111.251,201.4748,109.2257,201.9026,107.2153,202.0104,105.1563" style="stroke:#FFA500;stroke-width:3.125;"/><polygon fill="#FFA500" points="155.2604,431.1875,155.3294,431.2112,155.7906,429.2001,156.6563,427.3279,157.3903,425.4105,157.691,423.3444,158.5915,421.4841,158.5708,421.4668,157.7207,422.2919,156.9749,423.2045,156.3015,424.1779,155.3784,424.9419,154.805,425.9991,154.9286,426.1464,153.7614,425.0741,152.9549,424.4319,152.1924,423.8422,151.1739,422.9472,150.29,422.2127,150.3108,422.2242,151.2744,424.0023,152.3324,425.8326,153.3449,427.6378,154.4442,429.4911,155.2604,431.1875" style="stroke:#FFA500;stroke-width:3.125;"/><text fill="#FFFFFF" font-family="Segoe Script" font-size="12.5" lengthAdjust="spacing" textLength="47.4304" x="176.0417" y="257.0611">Discuss</text></g><!--link HoyasTrader to CIO--><g id="link_HoyasTrader_CIO"><path d="M360.6667,276.6563 L360.7563,276.6941 L361.8558,279.8197 L363.4809,283.1671 L364.9348,286.4422 L365.8259,289.48 L367.4961,292.8464 L367.4625,292.8335 L368.6041,296.1608 L369.9151,299.5528 L371.344,302.9898 L372.3669,306.2718 L373.9583,309.7708 L374.2031,309.8469 L374.5648,312.5321 L375.6411,315.4393 L376.8045,318.3737 L377.4607,321.1504 L378.3837,324.01 L378.4143,324.0178 L379.2082,327.3078 L380.1414,330.6332 L381.0074,333.9416 L382.0017,337.2825 L382.5777,340.5172 L382.881,340.5843 L383.6784,344.1716 L384.2801,347.7156 L385.1682,351.323 L386.0698,354.9334 L386.546,358.4497 L386.2187,358.3834 L387.6035,362.215 L387.9107,365.8284 L389.0372,369.6077 L389.32,373.2162 L390.2942,376.9646 L390.2631,376.9586 L392.0031,384.1112 L393.0157,391.1229 L394.4575,398.2178 L395.9354,405.3196 L397.1533,412.3711 L397.3421,412.4098 L397.776,415.4119 L398.5325,418.4802 L398.7671,421.4413 L399.7801,424.5623 L400.2755,427.577 L400.5226,427.6352 L401.0608,430.1076 L401.7217,432.609 L401.8128,434.9761 L402.3216,437.4417 L403.2004,439.9944 " fill="none" style="stroke:#FFA500;stroke-width:3.125;"/><polygon fill="#FFA500" points="404.7917,446.0384,404.8637,446.0501,404.9782,443.99,405.5149,441.9984,405.9142,439.9845,405.8612,437.8972,406.4342,435.9115,406.4109,435.8979,405.7125,436.855,405.1317,437.8805,404.6326,438.9537,403.852,439.8627,403.4656,441.0017,403.5625,441.1678,402.3374,440.219,401.395,439.755,400.4871,439.3501,399.3785,438.6011,398.3755,438.0332,398.3939,438.048,399.65,439.6273,400.9903,441.274,402.29,442.8882,403.6671,444.5645,404.7917,446.0384" style="stroke:#FFA500;stroke-width:3.125;"/><text fill="#FFFFFF" font-family="Segoe Script" font-size="12.5" lengthAdjust="spacing" textLength="84.1553" x="387.5" y="327.6236">Deeplearning</text></g><!--link HoyasTrader to CTO--><g id="link_HoyasTrader_CTO"><path d="M413.3021,271.8854 L413.3384,271.9757 L416.9173,273.1902 L420.709,274.9339 L424.4315,276.5053 L427.926,277.51 L431.736,279.2992 L431.7207,279.2666 L435.3862,280.8715 L439.1287,282.6406 L442.9248,284.5239 L446.5363,286.0138 L450.4063,288.0547 L450.5313,288.2784 L453.8933,289.8284 L457.6203,292.0317 L461.3919,294.3146 L464.9043,296.1338 L468.5531,298.1969 L468.5709,298.223 L471.9174,300.4995 L475.3453,302.8946 L478.7339,305.2326 L482.1974,307.6796 L485.4167,309.7708 L485.6146,310.0103 L488.2713,312.2079 L490.8002,314.2511 L493.516,316.5204 L496.2406,318.8002 L498.6876,320.7444 L498.4587,320.5013 L501.3889,323.3141 L503.5654,325.3266 L506.3149,327.9474 L508.4743,329.9417 L511.1173,332.4496 L511.0943,332.4278 L513.6864,335.1342 L515.7407,337.331 L518.1123,339.8286 L520.5106,342.3514 L522.7167,344.692 L522.8631,344.8174 L524.8714,347.2079 L527.1298,349.8126 L528.9836,352.0708 L531.4409,354.8459 L533.497,357.2773 L533.6968,357.4337 L535.6534,359.9509 L537.7093,362.5457 L539.3042,364.7796 L541.237,367.278 L543.4691,370.0109 L543.236,369.8424 L545.2821,372.5325 L547.0655,375.0327 L549.2298,377.8084 L550.7437,380.1137 L552.6442,382.6987 L552.5125,382.6099 L554.4097,385.2472 L555.7439,387.5051 L557.4784,390.0328 L559.6047,392.8245 L561.0334,395.146 L561.2037,395.254 L562.8434,397.7306 L563.9532,399.8713 L565.7267,402.4327 L567.3556,404.9025 L568.6476,407.1587 " fill="none" style="stroke:#FFA500;stroke-width:3.125;"/><polygon fill="#FFA500" points="571.9271,412.4792,571.9994,412.4889,571.5101,410.4265,571.4447,408.4213,571.2413,406.3975,570.5838,404.3124,570.5549,402.3121,570.5286,402.3059,570.1387,403.4246,569.881,404.5747,569.7154,405.7466,569.2328,406.8433,569.1942,408.0454,569.2386,408.2325,567.997,407.5604,566.885,407.4343,565.7888,407.3749,564.6007,406.9279,563.4609,406.6847,563.4743,406.7043,565.1479,407.8345,566.8824,409.0537,568.5875,410.2299,570.3487,411.4881,571.9271,412.4792" style="stroke:#FFA500;stroke-width:3.125;"/><text fill="#FFFFFF" font-family="Segoe Script" font-size="12.5" lengthAdjust="spacing" textLength="43.5486" x="516.6667" y="327.6236">Predict</text></g><!--link TOT to Chatgpt--><g id="link_TOT_Chatgpt"><path d="M290.4831,470.5089 L290.5686,470.5553 L290.2438,470.5477 L290.4203,470.8122 L290.4335,470.9881 L289.9099,470.8725 L290.1294,471.1604 L290.0979,471.1431 L289.6599,471.6023 L289.3807,472.1492 L289.2119,472.7571 L288.6627,473.1549 L288.6463,473.8469 L288.8668,473.9777 L286.9971,476.0541 L285.771,478.5125 L284.6235,481.0174 L283.0191,483.2512 L281.6549,485.6276 L281.6811,485.6453 L279.9209,488.1694 L278.2798,490.774 L276.5813,493.3398 L274.9924,495.9797 L273.0459,498.378 L273.2896,498.5707 L271.2678,501.1342 L269.0888,503.5734 L267.1399,506.1945 L265.2018,508.8241 L262.922,511.1836 L262.6819,510.9517 L260.8409,513.791 L258.209,515.8667 L256.1784,518.523 L253.5286,520.5814 L251.3863,523.1298 L251.3666,523.1049 L249.0306,525.4334 L246.2345,527.181 L243.7098,529.2714 L241.2079,531.3905 L238.5417,533.3021 L238.6091,533.4826 L235.458,534.4525 L232.4221,535.7308 L229.1997,536.5101 L226.2555,538.0337 L223.1263,539.0625 L223.1646,539.3134 L219.7821,539.7805 L216.4186,540.3722 L212.9668,540.3852 L209.5798,540.8223 L206.25,541.6354 L206.1895,541.3542 L202.6018,542.3922 L198.946,543.1133 L195.3891,544.2941 L191.6633,544.69 L188.0379,545.5525 L188.0207,545.3946 L184.7597,546.0148 L181.4254,545.9602 L178.1432,546.3855 L174.912,547.2804 L171.59,547.339 L171.6004,547.5405 L168.6055,547.8337 L165.5783,547.5005 L162.5916,547.952 L159.596,548.2325 L156.5799,548.1146 L156.566,547.8963 L153.7973,548.2471 L151.024,548.5264 L148.2597,548.9462 L145.4606,548.8199 L142.681,548.9987 L142.715,549.2101 L140.0174,549.168 L137.3854,549.534 L134.8495,550.4962 L132.1368,550.3607 L129.5668,551.1108 L129.6451,551.3331 L127.0673,552.093 L124.4631,552.7777 L121.9187,553.6321 L119.5125,554.8789 L116.9106,555.5705 L116.8365,555.4534 L114.5523,557.3873 L111.764,558.5249 L109.5488,560.568 L107.0109,562.1013 L104.3861,563.4972 L104.4657,563.578 L101.8576,566.0154 L99.5343,568.7423 L96.9537,571.2076 L94.2655,573.5636 L91.6667,576.0104 L91.7668,576.0838 L90.1595,577.9634 L89.0172,580.1839 L87.349,582.0188 L85.8971,584.0123 L84.3742,585.9537 L84.1312,585.8113 L83.5898,586.9213 L83.341,588.2029 L82.6781,589.2418 L81.8667,590.1937 L81.2612,591.2663 L81.1289,591.1974 L81.6062,590.384 L81.8492,589.4487 L82.7361,588.8486 L83.3044,588.0826 L83.4355,587.089 " fill="none" style="stroke:#FFA500;stroke-width:3.125;"/><polygon fill="#FFA500" points="80.5358,592.6257,80.5811,592.6829,82.0546,591.2385,83.7938,590.1295,85.4464,588.9114,86.8145,587.3341,88.5765,586.2539,88.5684,586.2281,87.4075,586.4641,86.2871,586.83,85.1949,587.2861,84.0055,587.4311,82.9523,588.0118,83.1357,588.0692,82.3918,586.8217,82.1835,585.7416,82.0407,584.682,81.5175,583.5035,81.1943,582.3876,81.218,582.3891,81.0516,584.4345,80.9928,586.4868,80.8821,588.5358,80.8705,590.5911,80.5358,592.6257" style="stroke:#FFA500;stroke-width:3.125;"/><text fill="#00FFFF" font-family="Segoe Script" font-size="12.5" lengthAdjust="spacing" textLength="43.6401" x="212.5" y="559.4882">Coding</text></g><!--link CIO to part--><g id="link_CIO_part"><path d="M410.5104,492.0938 L410.605,492.1165 L409.3603,496.0645 L408.6702,500.1456 L407.7995,504.1834 L406.3348,508.0787 L405.6924,512.1712 L405.6582,512.1599 L404.8212,514.1775 L404.1564,516.2521 L403.6114,518.3662 L402.6537,520.3439 L402.274,522.5127 L402.5111,522.6101 L401.1644,524.4467 L400.5099,526.5676 L399.9399,528.7232 L398.8785,530.677 L398.0755,532.737 L398.1036,532.7514 L397.0506,534.7038 L396.1256,536.7218 L395.1388,538.7082 L394.2698,540.7549 L393.0167,542.6048 L393.2776,542.7736 L392.0809,544.6301 L390.7159,546.3777 L389.5972,548.2847 L388.4901,550.1991 L387.0173,551.877 L386.7606,551.6634 L385.8546,553.7653 L384.1035,555.164 L382.9949,557.0973 L381.2247,558.4801 L379.9968,560.3141 L379.9755,560.2906 L378.603,562.0411 L376.7329,563.2426 L375.1565,564.768 L373.6047,566.3206 L371.875,567.6771 L371.9718,567.8437 L369.87,568.8398 L367.9337,570.1206 L365.7297,570.9407 L363.9249,572.4479 L361.8547,573.4984 L361.9112,573.7458 L359.9983,574.1331 L358.1135,574.6433 L356.0984,574.5828 L354.1788,574.9406 L352.3438,575.6691 L352.312,575.3832 L348.6673,575.234 L344.9868,574.7626 L341.3583,574.7585 L337.6411,573.9566 L333.9766,573.6289 L333.9523,573.472 L330.2029,573.1468 L326.3497,572.1507 L322.5703,571.6317 L318.8631,571.5796 L315.0273,570.6961 L315.048,570.8968 L313.0145,571.2454 L310.9167,570.9699 L308.8994,571.4761 L306.8645,571.8121 L304.7888,571.7512 L304.7101,571.5471 L302.5651,572.5616 L300.3943,573.5093 L298.2741,574.5882 L295.9571,575.1568 L293.75,576.0104 L293.8584,576.1951 L291.3988,577.0934 L289.1484,578.3482 L287.2037,580.1237 L284.6962,580.9405 L282.6428,582.5308 L282.7756,582.7255 L280.6196,584.0255 L278.4188,585.2597 L276.3193,586.6425 L274.454,588.3691 L272.2573,589.6093 L272.1719,589.5001 L270.4787,591.3482 L268.2049,592.454 L266.5914,594.4039 L264.606,595.8785 L262.5206,597.225 L262.5959,597.3098 L260.703,598.8678 L259.0797,600.7294 L257.2128,602.3167 L255.2441,603.7893 L253.36,605.3572 L253.4476,605.4451 L251.586,607.04 L250.1313,609.0432 L248.2163,610.5846 L246.4907,612.316 L244.7028,613.985 L244.4939,613.7961 L242.9184,615.6797 L241.5946,617.7907 L239.9146,619.5799 L238.1069,621.2537 L236.4764,623.0875 L236.3612,622.9927 L234.8244,624.9344 L233.0837,626.7082 L231.9035,628.9435 L230.4459,630.9503 L228.6079,632.644 L228.802,632.7914 L227.3475,634.8365 L225.5242,636.6016 L224.0901,638.6622 L222.3984,640.5272 L221.0247,642.6336 " fill="none" style="stroke:#FFA500;stroke-width:3.125;"/><polygon fill="#FFA500" points="217.3333,647.6771,217.3696,647.7404,219.0416,646.5314,220.9264,645.6936,222.742,644.7349,224.3295,643.3788,226.2326,642.5728,226.2285,642.5461,225.0453,642.6067,223.883,642.8017,222.7351,643.0902,221.5374,643.0567,220.4094,643.4742,220.5994,643.5036,220.0129,642.2761,219.981,641.1344,220.0168,640.0032,219.6589,638.8111,219.508,637.651,219.5312,637.656,219.0622,639.6539,218.6987,641.6746,218.2844,643.6842,217.967,645.715,217.3333,647.6771" style="stroke:#FFA500;stroke-width:3.125;"/><text fill="#00FFFF" font-family="Segoe Script" font-size="12.5" lengthAdjust="spacing" textLength="26.593" x="398.9583" y="559.4882">Plan</text></g><!--link TOT to Gemini--><g id="link_TOT_Gemini"><path d="M290.5982,474.2453 L290.6894,474.2792 L290.367,474.3168 L290.5793,474.5531 L290.6175,474.7247 L290.0831,474.6836 L290.3413,474.9369 L290.3076,474.9245 L289.9467,475.4386 L289.7561,476.0152 L289.6839,476.6354 L289.2038,477.1057 L289.295,477.7858 L289.5364,477.872 L288.5875,478.9007 L288.3434,480.1808 L288.1853,481.4917 L287.5268,482.624 L287.1315,483.8503 L287.1615,483.8602 L286.2289,486.5135 L285.4328,489.2121 L284.5708,491.8889 L283.8345,494.6075 L282.6887,497.1897 L282.9866,497.2778 L282.1345,500.1722 L281.0902,503.0098 L280.3273,505.9306 L279.5775,508.8553 L278.41,511.6564 L278.086,511.5759 L277.9684,514.7342 L276.784,517.6273 L276.4106,520.722 L275.202,523.6091 L274.678,526.6664 L274.6468,526.6605 L274.4548,529.7234 L273.5346,532.6498 L273.0441,535.6568 L272.5897,538.6705 L271.875,541.6354 L272.0667,541.6552 L271.5543,544.7254 L271.3694,547.8293 L270.6546,550.8786 L270.7303,554.0094 L270.2804,557.0861 L270.5341,557.0912 L270.4229,560.2319 L270.4377,563.3752 L269.8672,566.5068 L269.7257,569.6469 L269.9644,572.7947 L269.677,572.7801 L270.0977,575.9531 L270.1946,579.1096 L270.7611,582.2899 L270.5259,585.4296 L270.7672,588.5934 L270.6094,588.5757 L271.2247,591.7493 L271.1652,594.8473 L271.5856,597.9991 L272.4755,601.2034 L272.5293,604.3141 L272.7283,604.3471 L273.3771,607.4646 L273.407,610.4797 L274.2121,613.6231 L274.8483,616.7386 L275.0909,619.7889 L274.877,619.7434 L275.6878,622.7918 L276.4286,625.8253 L277.307,628.8881 L277.6503,631.8371 L278.2925,634.8497 L278.5,634.9024 L278.7804,637.6822 L279.4613,640.5639 L280.7275,643.5944 L280.9162,646.3509 L281.9742,649.3285 L282.2005,649.3944 L282.8665,652.101 L283.4561,654.7853 L284.2184,657.5199 L285.38,660.371 L285.9766,663.0573 L285.8445,663.0153 L286.9948,665.5224 L287.2468,667.7439 L288.5202,670.2901 L289.2185,672.6535 L289.7619,674.9677 L289.8692,675.0044 L290.4492,676.9235 L291.4134,678.9741 L292.0305,680.9059 L292.5025,682.7881 L293.0949,684.7115 L293.2106,684.7566 L294.3357,688.0173 L295.9978,691.4873 L297.0525,694.7206 L298.3571,698.0512 L299.5795,701.3499 " fill="none" style="stroke:#FFA500;stroke-width:3.125;"/><polygon fill="#FFA500" points="301.998,707.113,302.071,707.1145,301.8971,705.0586,302.1509,703.0116,302.2654,700.9617,301.9218,698.9022,302.2123,696.856,302.1874,696.8458,301.6293,697.8908,301.1972,698.9873,300.8526,700.1197,300.2063,701.1287,299.9826,702.3104,300.0554,702.4883,298.8089,701.6619,297.7749,701.3549,296.7667,701.1114,295.6078,700.499,294.5282,700.0807,294.5444,700.0979,296.0146,701.479,297.5586,702.9387,299.067,704.3605,300.6435,705.8546,301.998,707.113" style="stroke:#FFA500;stroke-width:3.125;"/><text fill="#00FFFF" font-family="Segoe Script" font-size="12.5" lengthAdjust="spacing" textLength="84.1492" x="278.125" y="559.4882">Development</text></g><!--link CTO to part--><g id="link_CTO_part"><path d="M586.2396,491.9688 L586.3329,491.9965 L585.4748,493.8682 L585.1634,495.9025 L584.674,497.8839 L583.5991,499.6912 L583.3347,501.7395 L583.3008,501.7277 L582.4435,503.7033 L581.7577,505.7385 L581.1909,507.815 L580.2137,509.749 L579.8114,511.8826 L580.0487,511.9794 L578.7022,513.8296 L578.0486,515.9623 L577.4795,518.1295 L576.4186,520.0961 L575.6164,522.1682 L575.6448,522.1819 L574.6191,524.2013 L573.7229,526.2832 L572.7642,528.3349 L571.9248,530.4442 L570.6966,532.3659 L570.9657,532.5211 L569.8295,534.499 L568.5197,536.3767 L567.464,538.401 L566.4202,540.4322 L564.999,542.2457 L564.7255,542.0544 L563.9507,544.2922 L562.2752,545.8998 L561.2844,547.9865 L559.5885,549.5799 L558.4705,551.5776 L558.4466,551.5569 L557.2475,553.5132 L555.4885,554.9844 L554.0599,556.7419 L552.659,558.5234 L551.058,560.1314 L551.1872,560.2744 L549.3869,561.6392 L547.8073,563.2484 L545.8705,564.4622 L544.4665,566.2656 L542.7083,567.6771 L542.8113,567.9091 L540.5261,568.8706 L538.2919,569.9474 L535.8204,570.489 L533.5228,571.4228 L531.3796,572.7043 L531.3708,572.4167 L529.2419,572.6119 L527.1031,572.4832 L524.9786,572.8244 L522.8297,572.3631 L520.6953,572.3789 L520.6867,572.2203 L518.5259,572.3658 L516.3282,571.8335 L514.1568,571.7832 L512.0111,572.2046 L509.8197,571.786 L509.8871,571.9761 L507.5528,572.9513 L505.0086,573.3353 L502.7273,574.4599 L500.3887,575.4231 L497.9167,576.0104 L497.7897,575.8323 L495.7088,577.5299 L493.5863,579.1691 L491.5456,580.9229 L489.1872,582.2312 L487.0062,583.7884 L487.1434,583.9529 L484.83,585.2701 L482.7814,586.9047 L481.1196,589.003 L478.7456,590.2477 L476.9463,592.1811 L477.1099,592.3506 L475.1566,594.0408 L473.1479,595.6737 L471.2642,597.436 L469.6693,599.4976 L467.6657,601.1357 L467.563,601.0426 L466.1543,603.2124 L464.0471,604.7494 L462.7342,607.0059 L460.9741,608.8573 L459.0934,610.5995 L459.182,610.6703 L457.5235,612.5972 L456.1821,614.7778 L454.5542,616.7292 L452.8066,618.5847 L451.1584,620.5199 L451.2594,620.592 L449.6355,622.5497 L448.4808,624.8423 L446.7954,626.7561 L445.3282,628.8257 L443.7894,630.8441 L443.5526,630.6916 L442.2569,632.8776 L441.2464,635.2473 L439.8324,637.357 L438.2736,639.3736 L436.9155,641.5195 L436.7869,641.4439 L435.5381,643.6629 L434.0616,645.748 L433.211,648.201 L432.0507,650.472 L430.4655,652.4933 " fill="none" style="stroke:#FFA500;stroke-width:3.125;"/><polygon fill="#FFA500" points="427.3958,657.9375,427.4394,657.9961,428.9568,656.5981,430.7295,655.5434,432.419,654.377,433.8353,652.8428,435.6298,651.8176,435.6226,651.7916,434.4549,651.9916,433.3237,652.3226,432.2179,652.7446,431.0246,652.8528,429.9539,653.4006,430.1391,653.4523,429.4265,652.2067,429.2545,651.1118,429.1485,650.0354,428.6588,648.8519,428.3709,647.7247,428.3945,647.727,428.1648,649.7662,428.0426,651.8157,427.8685,653.8603,427.7933,655.9143,427.3958,657.9375" style="stroke:#FFA500;stroke-width:3.125;"/><text fill="#00FFFF" font-family="Segoe Script" font-size="12.5" lengthAdjust="spacing" textLength="43.158" x="570.8333" y="559.4882">Design</text></g><!--link CTO to part--><g id="link_CTO_part"><path d="M623.3542,492.0625 L623.4324,492.1204 L626.8028,496.8174 L630.6318,501.8537 L634.3115,506.7796 L637.5001,511.3421 L641.3685,516.4076 L641.3393,516.3865 L643.0398,518.8289 L644.8874,521.3775 L646.8371,523.9999 L648.4346,526.368 L650.5256,529.0923 L650.735,529.24 L652.057,531.4327 L653.9905,534.0568 L655.9986,536.7334 L657.5727,539.1039 L659.375,541.6354 L659.401,541.6533 L661.7478,545.0861 L664.2131,548.6004 L666.6212,552.0754 L669.1383,555.6255 L671.3001,558.9306 L671.5572,559.105 L673.9172,562.5821 L676.1113,565.9467 L678.5482,569.4759 L680.9965,573.0129 L683.0842,576.3054 L682.8061,576.1206 L687.9108,583.3513 L692.0997,589.9736 L696.9847,597.0585 L701.1529,603.667 L705.9086,610.666 L705.882,610.6487 L710.456,617.4122 L714.4085,623.7721 L718.7278,630.3702 L723.0778,636.9883 L727.2057,643.4621 L727.3681,643.5658 L731.0296,649.4565 L734.9687,655.5243 L738.4586,661.3055 L742.6185,667.5142 L746.3329,673.4387 " fill="none" style="stroke:#FFA500;stroke-width:3.125;"/><polygon fill="#FFA500" points="749.6771,678.7188,749.7493,678.7294,749.2355,676.6679,749.145,674.6687,748.9166,672.6493,748.235,670.563,748.1808,668.5692,748.1545,668.5633,747.7782,669.6867,747.5347,670.8398,747.3834,672.0137,746.9142,673.1162,746.8903,674.3187,746.9324,674.5063,745.6924,673.8471,744.5754,673.7355,743.4734,673.6907,742.2842,673.2572,741.1408,673.0281,741.1539,673.0478,742.8419,674.157,744.5897,675.356,746.3086,676.5116,748.0826,677.7498,749.6771,678.7188" style="stroke:#FFA500;stroke-width:3.125;"/><text fill="#00FFFF" font-family="Segoe Script" font-size="12.5" lengthAdjust="spacing" textLength="43.158" x="682.2917" y="559.4882">Design</text></g><!--link CIO to part--><g id="link_CIO_part"><path d="M434.875,492.0625 L435.1336,492.1979 L439.1145,500.864 L444.6114,510.324 L449.6146,519.5255 L452.9944,527.8768 L458.5258,537.3549 L462.8459,546.1986 L467.6481,555.2948 L472.7854,564.5665 L476.7679,573.2334 L483.049,583.1041 L486.3416,591.4097 L491.623,600.7569 L497.1471,610.2311 L501.2593,618.966 L506.1981,628.1338 L510.8241,637.1377 L515.8324,646.3418 L520.6562,655.4493 L525.8319,664.7411 L529.8605,673.4322 " fill="none" style="stroke:#FFA500;stroke-width:3.125;"/><polygon fill="#FFA500" points="532.7604,678.9688,532.8332,678.9734,532.4851,676.9119,532.5639,674.8778,532.5036,672.8348,531.9862,670.7624,532.1016,668.7307,532.0759,668.7226,531.6087,669.8114,531.2714,670.9407,531.0244,672.0982,530.4663,673.1585,530.3438,674.355,530.4012,674.5385,529.1537,673.7945,528.0737,673.5863,527.014,673.4435,525.8355,672.9203,524.7196,672.5972,524.7343,672.6158,526.3209,673.8628,527.9744,675.1944,529.5956,676.4852,531.2785,677.8538,532.7604,678.9688" style="stroke:#FFA500;stroke-width:3.125;"/><text fill="#008000" font-family="Segoe Script" font-size="12.5" lengthAdjust="spacing" textLength="49.2554" x="479.1667" y="559.4882">Analyze</text></g><!--link HoyasTrader to TOT--><g id="link_HoyasTrader_TOT"><path d="M328.4167,276.2292 L328.4959,276.2856 L326.0045,279.2845 L323.9776,282.6144 L321.7994,285.8365 L319.1237,288.7042 L317.1367,292.0625 L317.1045,292.0465 L315.1992,295.5163 L313.4564,299.0668 L311.8264,302.6735 L309.8074,306.0867 L308.3333,309.7708 L308.5771,309.85 L307.3315,311.9123 L306.7976,314.2057 L306.3506,316.5273 L305.3983,318.6849 L304.7117,320.9288 L304.7424,320.9365 L304.1143,323.2323 L303.6256,325.5634 L303.0697,327.8774 L302.6421,330.2239 L301.7961,332.4646 L302.1011,332.5236 L301.65,334.8776 L301.0021,337.1935 L300.6422,339.5652 L300.2959,341.9394 L299.5218,344.231 L299.1913,344.1837 L299.4933,346.6455 L298.707,348.9514 L298.748,351.3759 L297.937,353.6783 L297.8244,356.0807 L297.7929,356.0771 L298.0971,356.7118 L297.6653,357.2614 L297.6677,357.8612 L297.7067,358.4653 L297.4826,359.0389 L297.6742,359.0589 L297.5798,358.091 L297.8129,357.1572 L297.5161,356.1681 L298.0096,355.2616 L297.9777,354.3001 " fill="none" style="stroke:#FFA500;stroke-width:3.125;"/><polygon fill="#FFA500" points="297.3234,360.5158,297.3866,360.5523,298.2238,358.6665,299.4316,356.9944,300.5187,355.2528,301.209,353.2822,302.4486,351.6285,302.4316,351.6075,301.4394,352.2549,300.5328,353.008,299.6857,353.8347,298.6336,354.408,297.8686,355.3361,298.018,355.457,296.957,354.2824,296.3322,353.4609,295.7607,352.6825,294.8794,351.6534,294.1611,350.7561,294.1836,350.7634,294.783,352.7046,295.485,354.6791,296.1374,356.6375,296.8844,358.6265,297.3234,360.5158" style="stroke:#FFA500;stroke-width:3.125;"/><text fill="#008000" font-family="Segoe Script" font-size="12.5" lengthAdjust="spacing" textLength="49.2554" x="314.5833" y="327.6236">Analyze</text></g><!--SRC=[lLR1RjD04BtxAxQvS411j2e8HP6ba2Qbg6aZuZlQs5DxwMRNhDTDNPGR9owSk7FW0pZoKUq_CDwDOxj9YgDMvD36CszdthoT6OToBkSVP-oQYT3Pqn7CW2INeFqeSvndvExxxxjlVyZjrr-tFtyuoIKJCLLqHWAue2dNGodq6SKZhGc44iZ4LopMhSt02Ri1id-mnQap3cGgUU0uUsXd0iY7GT_hdHsV3eZFQP9K3awfVnagcOgWBxbKH2ig4dI1q4u55YECXa2-E8H4L0HpnRG6WV0KqFJsWIZebIe0PJtpYEdynBPwhSSMU5WybHLPWmsLGQuucYOQ54YTnL0wYpmzfUJScYII2i5PLEjIu6kqyYUeR4LdMscrn486_prdce1FaoT8M_SqodsXSiIZCuSAGAniYMcCLqqvcDv_F0S5mShYHSo_581X3vkoME_8qhV6ooa6hzKVdBS8JGZ-DoMGrNMskbEtcxhT18Uci__QxLuWZKwLWTlrytmTcyzz9pEQU8eYVnEoyfnJjLVL6eziGk_SMoOikFHFpactwu58f1fY_xbktUtbxh6ISGGQVOkoYlvm8tdB_E3Vp4SqG9NUfo8qrCnZDNxhn4EZmA-sidv4THZhPKvx_wsbqG1GziARVvvlOc3PlNHxd1p15N0PusetNM4_xNRvTUlvDwvlqpR2XZ1ZWZKBosaQG2Deb8RuRiAczYr-KPCEB-mJRiEQViU6Hrq-QzjPlMNuNLMBEHKwdV5cMaXEfusG0Lnjqs545RwrKQXw9ncPxpMIiUsin8WoldFpbBUyoF_K67lWHuBvb9D96iSIcGokOr3OuO-PDHmJGKu1Ya4IjPp59DH46eEAELmpdTM5Aksxjqsc8obsbMkY5T0PPxgkc5qVtNRRhUuyqY53NFjErMGmHe4EEMA9d-AFfkBqcgDwq9p3_OXU02oQAf7_7bo3U3baZAyIXZEHhzXbGhEkEcHv5VHpIjs-3F8GUTGAw8LHiOuSux2iWjavhGEMjsRMLqwXn6qATmG92yKAMDxYG-22fMdOUq3pzdPxWlBi1jOqoOblXlu5]--></g></svg>