<svg xmlns="http://www.w3.org/2000/svg" xmlns:xlink="http://www.w3.org/1999/xlink" contentStyleType="text/css" data-diagram-type="CLASS" height="841.6667px" preserveAspectRatio="none" style="width:903px;height:841px;background:#000000;" version="1.1" viewBox="0 0 903 841" width="903.125px" zoomAndPan="magnify"><defs/><g><!--cluster CEO--><g id="cluster_CEO"><path d="M233.3333,181.1458 L233.3333,181.3404 L241.6123,180.7622 L249.8914,181.3248 L258.1704,181.5159 L266.4494,180.4853 L274.7284,181.1458 L278.8951,185.3125 L278.8252,185.2952 L279.97,191.1129 L281.467,197.0176 L283.2088,202.9829 L284.107,208.7395 L286.1867,214.7884 L286.1867,216.3263 L296.8032,213.0376 L307.4197,214.2391 L318.0361,215.9883 L328.6526,214.5501 L339.2691,214.978 L349.8855,214.6997 L360.502,215.2843 L371.1185,215.4527 L381.7349,216.4153 L392.3514,216.6525 L402.9679,216.6752 L413.5843,215.4957 L424.2008,216.0761 L434.8173,216.7391 L445.4337,212.7851 L456.0502,216.6732 L466.6667,214.7884 L470.8333,218.9551 L470.0097,218.9551 L472.3161,228.9526 L469.4583,238.9501 L470.6431,248.9475 L472.8933,258.945 L470.698,268.9425 L471.1258,278.94 L470.8333,288.9375 L466.6667,293.1042 L466.6667,294.0448 L456.0606,294.2604 L445.4545,293.0933 L434.8485,293.902 L424.2424,291.5141 L413.6364,293.8941 L403.0303,294.6269 L392.4242,294.339 L381.8182,294.807 L371.2121,291.7623 L360.6061,291.2925 L350,291.3781 L339.3939,292.9406 L328.7879,292.5583 L318.1818,294.997 L307.5758,292.619 L296.9697,292.1512 L286.3636,293.7382 L275.7576,291.2518 L265.1515,291.6622 L254.5455,294.9068 L243.9394,294.3144 L233.3333,293.1042 L229.1667,288.9375 L231.2069,288.9375 L228.2728,278.575 L230.0533,268.2125 L230.8067,257.85 L227.8544,247.4875 L228.9004,237.125 L229.5166,226.7625 L230.9771,216.4 L229.155,206.0375 L230.4516,195.675 L229.1667,185.3125 L233.3333,181.1458 " fill="none" style="stroke:#FFFFFF;stroke-width:2.0833;"/><path d="M229.1667,214.7884 L229.1667,215.0803 L240.5707,214.213 L251.9747,215.0569 L263.3787,215.3435 L274.7827,213.7976 L286.1867,214.7884 " fill="none" style="stroke:#FFFFFF;stroke-width:2.0833;"/><text fill="#FFFF00" font-family="Segoe Print" font-size="14.5833" font-weight="bold" lengthAdjust="spacing" textLength="33.0617" x="238.5417" y="201.9741">CEO</text></g><!--cluster TOT--><g id="cluster_TOT"><polygon fill="none" points="294.7917,360.8125,294.7917,361.0314,305.1802,360.3809,315.5687,361.0138,325.9572,361.2288,336.3457,360.0694,346.7342,360.7315,357.1227,360.3682,367.5113,360.413,377.8998,360.7415,388.2883,360.0923,398.6768,361.3892,409.0653,360.156,419.4538,360.6065,429.8423,361.2624,440.2309,360.7231,450.6194,360.8836,461.0079,360.7792,471.3964,360.9985,481.7849,361.0616,492.1734,361.4226,502.5619,361.5115,512.9505,361.5201,523.339,361.0777,533.7275,361.2954,544.116,361.544,554.5045,360.0613,564.893,361.5193,575.2815,360.5036,585.67,361.3686,596.0586,360.2969,606.4471,360.7411,616.8356,361.585,627.2241,360.7617,637.6126,360.9222,648.0011,361.1652,658.3896,361.2461,668.7782,360.8084,679.1667,360.8125,679.2048,360.9046,679.6799,360.873,680.383,361.3919,681.0073,361.7206,681.5828,361.9314,682.1129,362.0329,682.3096,362.1143,682.2021,362.558,682.3919,363.1247,682.6458,363.7181,683.0704,364.3821,683.3333,364.9792,683.1286,364.9792,684.0431,375.5141,683.1514,386.0491,682.976,396.5841,683.5711,407.119,682.6387,417.654,682.7926,428.189,684.0093,438.724,683.7872,449.2589,684.0984,459.7939,682.9981,470.3289,683.6658,480.8638,683.9484,491.3988,682.8412,501.9338,683.3333,512.4688,683.3026,512.456,683.1297,513.0747,683.0543,513.7339,682.5998,514.236,682.5054,514.8872,682.1129,515.415,682.0394,515.2374,681.4337,515.4418,681.0014,516.0647,680.2499,515.9173,679.8236,516.5546,679.1667,516.6354,679.1667,516.8507,668.7782,516.3563,658.3896,516.2669,648.0011,517.1133,637.6126,516.3236,627.2241,517.2519,616.8356,516.0596,606.4471,517.2786,596.0586,517.1399,585.67,516.8906,575.2815,516.6846,564.893,517.3923,554.5045,517.2746,544.116,516.8117,533.7275,516.9148,523.339,516.4997,512.9505,517.3817,502.5619,516.7967,492.1734,516.8152,481.7849,516.0017,471.3964,516.2133,461.0079,517.1883,450.6194,517.0831,440.2309,516.5907,429.8423,516.2998,419.4538,516.4074,409.0653,515.9207,398.6768,517.0674,388.2883,517.4058,377.8998,517.1837,367.5113,517.3593,357.1227,516.493,346.7342,516.7263,336.3457,516.2317,325.9572,516.9313,315.5687,516.8925,305.1802,517.2108,294.7917,516.6354,294.7612,516.5617,294.1846,516.3482,293.6721,516.2895,293.0993,516.0852,292.3665,515.4947,291.8454,515.415,291.7832,515.3893,291.6492,514.8456,291.1613,514.1554,291.2265,513.6942,290.9518,513.0923,290.625,512.4688,290.52,512.4688,290.7732,501.9338,291.384,491.3988,290.2991,480.8638,290.9531,470.3289,290.9225,459.7939,290.7456,449.2589,290.7718,438.724,290.7432,428.189,289.9748,417.654,290.2075,407.119,290.1442,396.5841,290.6915,386.0491,290.7168,375.5141,290.625,364.9792,290.6769,365.0007,290.7757,364.3512,291.0915,363.7917,291.3187,363.1954,291.7864,362.6988,291.8454,362.0329,291.9021,362.1697,292.3701,361.6331,293.0142,361.5213,293.5365,361.1155,294.2407,361.1491,294.7917,360.8125" style="stroke:#008000;stroke-width:2.0833;stroke-dasharray:5.0,5.0;"/><path d="M343.6849,360.8125 L343.8795,360.8125 L343.3013,364.3477 L343.8639,367.8828 L344.055,371.418 L343.0243,374.9531 L343.6849,378.4883 L343.634,378.4374 L341.3223,380.2924 L339.2671,382.4039 L337.3903,384.6937 L334.8989,386.369 L333.2682,388.9049 L333.2682,389.4176 L324.7396,388.3214 L316.2109,388.7218 L307.6823,389.3049 L299.1536,388.8255 L290.625,388.9049 " fill="none" style="stroke:#008000;stroke-width:2.0833;stroke-dasharray:5.0,5.0;"/><text fill="#17A2B8" font-family="Segoe Print" font-size="12.5" font-weight="bold" lengthAdjust="spacing" textLength="32.2266" x="298.9583" y="378.6653">PMO</text></g><!--cluster CFO--><g id="cluster_CFO"><path d="M121.875,16.6667 L121.875,16.8613 L130.154,16.283 L138.433,16.8456 L146.712,17.0367 L154.991,16.0061 L163.2701,16.6667 L167.4367,20.8333 L167.3669,20.8161 L168.5117,26.6337 L170.0087,32.5384 L171.7505,38.5037 L172.6486,44.2603 L174.7284,50.3092 L174.7284,51.8471 L185.0858,48.5585 L195.4433,49.7599 L205.8007,51.5091 L216.1581,50.071 L226.5155,50.4988 L236.873,50.2205 L247.2304,50.8052 L257.5878,50.9735 L267.9453,51.9362 L278.3027,52.1733 L288.6601,52.1961 L299.0176,51.0165 L309.375,50.3092 L313.5417,54.4759 L314.8294,54.4759 L315.4923,64.9973 L311.5384,75.5187 L315.4264,86.04 L312.718,96.5614 L315.0245,107.0828 L313.5417,117.6042 L309.375,121.7708 L309.375,120.3958 L298.9583,121.5806 L288.5417,123.8308 L278.125,121.6355 L267.7083,122.0633 L257.2917,122.7115 L246.875,122.927 L236.4583,121.76 L226.0417,122.5686 L215.625,120.1808 L205.2083,122.5608 L194.7917,123.2936 L184.375,123.0056 L173.9583,123.4737 L163.5417,120.4289 L153.125,119.9592 L142.7083,120.0447 L132.2917,121.6073 L121.875,121.7708 L117.7083,117.6042 L117.1624,117.6042 L119.6011,106.8519 L117.2231,96.0995 L116.7554,85.3472 L118.3424,74.5949 L115.856,63.8426 L116.2663,53.0903 L119.511,42.338 L118.9185,31.5856 L117.7083,20.8333 L121.875,16.6667 " fill="none" style="stroke:#FFFFFF;stroke-width:2.0833;"/><path d="M117.7083,50.3092 L117.7083,50.6012 L129.1123,49.7338 L140.5164,50.5777 L151.9204,50.8644 L163.3244,49.3184 L174.7284,50.3092 " fill="none" style="stroke:#FFFFFF;stroke-width:2.0833;"/><text fill="#FFFF00" font-family="Segoe Print" font-size="14.5833" font-weight="bold" lengthAdjust="spacing" textLength="33.0617" x="127.0833" y="37.4949">CFO</text></g><!--cluster Chatgpt--><g id="cluster_Chatgpt"><path d="M67.7083,592.6771 L67.7083,593.2609 L77.7965,591.5262 L87.8847,593.214 L97.9729,593.7873 L108.0611,590.6954 L118.1493,592.4612 L128.2375,591.4924 L138.3257,591.6118 L148.4139,592.4878 L158.5021,590.7566 L168.5903,592.6771 L172.757,596.8438 L173.2546,596.9669 L173.6488,602.5988 L175.4959,608.5901 L177.5202,614.6253 L178.5132,620.4054 L180.0486,626.3197 L180.0486,626.5092 L190.9345,626.2309 L201.8204,626.8156 L212.7064,626.9839 L223.5923,627.9466 L234.4782,628.1837 L245.3641,628.2065 L256.25,626.3197 L260.4167,630.4863 L261.124,630.4863 L261.7044,640.7469 L262.3673,651.0075 L258.4134,661.2681 L262.3014,671.5287 L259.593,681.7893 L261.8995,692.0499 L259.0416,702.3104 L260.2264,712.571 L262.4767,722.8316 L260.2813,733.0922 L260.7092,743.3528 L261.3573,753.6134 L261.5729,763.874 L260.4058,774.1346 L261.2145,784.3951 L258.8266,794.6557 L261.2066,804.9163 L261.9394,815.1769 L260.4167,825.4375 L256.25,829.6042 L256.25,830.839 L245.7755,831.307 L235.3009,828.2623 L224.8264,827.7925 L214.3519,827.8781 L203.8773,829.4406 L193.4028,829.0583 L182.9282,831.497 L172.4537,829.119 L161.9792,828.6512 L151.5046,830.2382 L141.0301,827.7518 L130.5556,828.1622 L120.081,831.4068 L109.6065,830.8144 L99.1319,831.6444 L88.6574,828.7103 L78.1829,830.4908 L67.7083,829.6042 L63.5417,825.4375 L65.1817,825.4375 L62.2294,815.0469 L63.2754,804.6563 L63.8916,794.2656 L65.3521,783.875 L63.53,773.4844 L64.8266,763.0938 L62.0034,752.7031 L61.6604,742.3125 L64.9406,731.9219 L61.5502,721.5313 L64.9555,711.1406 L64.1156,700.75 L62.7975,690.3594 L62.559,679.9688 L64.816,669.5781 L62.7102,659.1875 L65.1857,648.7969 L62.0063,638.4062 L65.2567,628.0156 L64.887,617.625 L64.2221,607.2344 L63.5417,596.8438 L67.7083,592.6771 " fill="none" style="stroke:#FFFFFF;stroke-width:2.0833;"/><path d="M63.5417,626.3197 L63.5417,626.6116 L74.1332,625.7442 L84.7247,626.5881 L95.3163,626.8748 L105.9078,625.3288 L116.4994,626.2117 L127.0909,625.7273 L137.6825,625.787 L148.274,626.225 L158.8655,625.3594 L169.4571,627.0886 L180.0486,626.3197 " fill="none" style="stroke:#FFFFFF;stroke-width:2.0833;"/><text fill="#FFFF00" font-family="Segoe Print" font-size="14.5833" font-weight="bold" lengthAdjust="spacing" textLength="92.5486" x="72.9167" y="613.5053">IT Manager</text></g><!--cluster Gemini--><g id="cluster_Gemini"><path d="M306.25,603.0938 L306.25,603.6776 L316.5295,601.9429 L326.809,603.6307 L337.0884,604.204 L347.3679,601.1121 L357.6474,602.8779 L367.9269,601.909 L378.2064,602.0285 L388.4859,602.9044 L398.7653,601.1733 L409.0448,604.6316 L419.3243,601.343 L429.6038,602.5444 L439.8833,604.2936 L450.1628,603.0938 L454.3294,607.2604 L454.2523,607.2413 L455.8491,613.1708 L457.2174,619.0437 L458.8649,624.9857 L460.3777,630.8943 L461.6211,636.7363 L461.6211,637.2786 L461.3802,637.3577 L461.1393,637.3653 L460.8984,636.9721 L460.6576,637.1656 L460.4167,636.7363 L464.5833,640.903 L466.534,640.903 L462.58,651.1452 L466.4681,661.3874 L463.7597,671.6297 L466.0661,681.8719 L463.2083,692.1141 L464.3931,702.3563 L466.6433,712.5986 L464.448,722.8408 L464.8758,733.083 L465.524,743.3253 L465.7395,753.5675 L464.5725,763.8097 L465.3811,774.0519 L462.9933,784.2942 L465.3733,794.5364 L466.1061,804.7786 L464.5833,815.0208 L460.4167,819.1875 L460.4167,820.4223 L450.1389,820.8903 L439.8611,817.8456 L429.5833,817.3759 L419.3056,817.4614 L409.0278,819.0239 L398.75,818.6416 L388.4722,821.0803 L378.1944,818.7023 L367.9167,818.2346 L357.6389,819.8216 L347.3611,817.3352 L337.0833,817.7455 L326.8056,820.9901 L316.5278,820.3977 L306.25,819.1875 L302.0833,815.0208 L304.1236,815.0208 L301.1895,804.6328 L302.97,794.2448 L303.7234,783.8568 L300.7711,773.4688 L301.8171,763.0807 L302.4333,752.6927 L303.8938,742.3047 L302.0717,731.9167 L303.3682,721.5286 L300.545,711.1406 L300.2021,700.7526 L303.4823,690.3646 L300.0918,679.9766 L303.4971,669.5885 L302.6573,659.2005 L301.3391,648.8125 L301.1006,638.4245 L303.3577,628.0365 L301.2519,617.6484 L302.0833,607.2604 L306.25,603.0938 " fill="none" style="stroke:#FFFFFF;stroke-width:2.0833;"/><path d="M302.0833,636.7363 L302.0833,637.0282 L312.7192,636.1609 L323.355,637.0048 L333.9909,637.2914 L344.6267,635.7455 L355.2626,636.6284 L365.8984,636.144 L376.5343,636.2037 L387.1701,636.6417 L397.806,635.7761 L408.4418,637.5053 L419.0777,635.8609 L429.7135,636.4617 L440.3494,637.3363 L450.9852,636.6172 L461.6211,636.7363 " fill="none" style="stroke:#FFFFFF;stroke-width:2.0833;"/><text fill="#FFFF00" font-family="Segoe Print" font-size="14.5833" font-weight="bold" lengthAdjust="spacing" textLength="135.5794" x="311.4583" y="623.922">Project Manager</text></g><!--cluster Claude--><g id="cluster_Claude"><path d="M502.0833,632.2604 L502.0833,632.8443 L512.6729,631.1095 L523.2625,632.7973 L533.8521,633.3706 L544.4417,630.2788 L555.0313,632.0445 L565.6209,631.0757 L576.2105,631.1951 L586.8001,632.0711 L597.3897,630.3399 L607.9793,633.7983 L618.5689,630.5096 L629.1585,631.7111 L639.7481,633.4603 L650.3377,632.0221 L660.9273,632.45 L671.5169,632.2604 L675.6836,636.4271 L675.6549,636.42 L677.3024,642.362 L678.8152,648.2706 L680.585,654.2429 L682.1201,660.157 L682.9753,665.903 L682.9753,666.5319 L682.6302,666.1388 L682.2852,666.3322 L681.9401,666.5532 L681.5951,665.2352 L681.25,665.903 L685.4167,670.0697 L687.3014,670.0697 L684.593,680.5955 L686.8995,691.1214 L684.0416,701.6473 L685.2264,712.1731 L687.4767,722.699 L685.2813,733.2248 L685.7092,743.7507 L686.3573,754.2766 L686.5729,764.8024 L685.4058,775.3283 L685.4167,785.8542 L681.25,790.0208 L681.25,790.8186 L670.7108,788.4308 L660.1716,790.8108 L649.6324,791.5436 L639.0931,791.2556 L628.5539,791.7237 L618.0147,788.6789 L607.4755,788.2092 L596.9363,788.2947 L586.3971,789.8573 L575.8578,789.4749 L565.3186,791.9136 L554.7794,789.5356 L544.2402,789.0679 L533.701,790.6549 L523.1618,788.1685 L512.6225,788.5788 L502.0833,790.0208 L497.9167,785.8542 L499.7193,785.8542 L499.1269,775.1808 L499.9569,764.5074 L497.0228,753.8341 L498.8033,743.1607 L499.5567,732.4874 L496.6044,721.814 L497.6504,711.1406 L498.2666,700.4673 L499.7271,689.7939 L497.905,679.1205 L499.2016,668.4472 L496.3784,657.7738 L496.0354,647.1004 L497.9167,636.4271 L502.0833,632.2604 " fill="none" style="stroke:#FFFFFF;stroke-width:2.0833;"/><path d="M497.9167,665.903 L497.9167,666.1949 L508.1977,665.3275 L518.4787,666.1714 L528.7598,666.4581 L539.0408,664.9122 L549.3218,665.7951 L559.6029,665.3106 L569.8839,665.3704 L580.1649,665.8083 L590.446,664.9428 L600.727,666.6719 L611.008,665.0276 L621.2891,665.6283 L631.5701,666.5029 L641.8511,665.7839 L652.1322,665.9978 L662.4132,665.8586 L672.6942,666.1509 L682.9753,665.903 " fill="none" style="stroke:#FFFFFF;stroke-width:2.0833;"/><text fill="#FFFF00" font-family="Segoe Print" font-size="14.5833" font-weight="bold" lengthAdjust="spacing" textLength="161.1003" x="507.2917" y="653.0887">Marketing Manager</text></g><!--cluster Technical Support Expert--><g id="cluster_Technical Support Expert"><path d="M20.8333,384.6146 L20.8333,385.1984 L31.1202,383.4637 L41.4071,385.1515 L51.694,385.7248 L61.9809,382.6329 L72.2678,384.3987 L82.5547,383.4299 L92.8416,383.5493 L103.1285,384.4253 L113.4154,382.6941 L123.7023,386.1525 L133.9892,382.8638 L144.2761,384.0652 L154.563,385.8144 L164.8499,384.3763 L175.1367,384.8041 L185.4236,384.5258 L195.7105,385.1105 L205.9974,385.2788 L216.2843,386.2415 L226.5712,386.4786 L236.8581,384.6146 L241.0248,388.7813 L241.6353,388.9323 L242.712,394.733 L244.3581,400.6747 L246.031,406.6229 L246.2099,412.2016 L248.3164,418.2572 L248.3164,418.8854 L248.0282,417.9826 L247.7399,418.7514 L247.4516,417.7988 L247.1633,418.1937 L246.875,418.2572 L251.0417,422.4238 L253.1017,422.4238 L250.9063,432.9452 L251.3342,443.4666 L251.9823,453.988 L252.1979,464.5093 L251.0308,475.0307 L251.0417,485.5521 L246.875,489.7187 L246.875,490.5166 L236.6004,488.1287 L226.3258,490.5087 L216.0511,491.2415 L205.7765,490.9536 L195.5019,491.4216 L185.2273,488.3769 L174.9527,487.9071 L164.678,487.9926 L154.4034,489.5552 L144.1288,489.1728 L133.8542,491.6116 L123.5795,489.2335 L113.3049,488.7658 L103.0303,490.3528 L92.7557,487.8664 L82.4811,488.2767 L72.2064,491.5214 L61.9318,490.9289 L51.6572,491.759 L41.3826,488.8249 L31.108,490.6054 L20.8333,489.7187 L16.6667,485.5521 L18.3067,485.5521 L15.3544,474.7998 L16.4004,464.0475 L17.0166,453.2951 L18.4771,442.5428 L16.655,431.7905 L17.9516,421.0382 L15.1284,410.2859 L14.7854,399.5336 L16.6667,388.7813 L20.8333,384.6146 " fill="none" style="stroke:#FFFFFF;stroke-width:2.0833;"/><path d="M16.6667,418.2572 L16.6667,418.5491 L27.1962,417.6817 L37.7257,418.5256 L48.2553,418.8123 L58.7848,417.2663 L69.3143,418.1492 L79.8439,417.6648 L90.3734,417.7245 L100.903,418.1625 L111.4325,417.2969 L121.962,419.0261 L132.4916,417.3818 L143.0211,417.9825 L153.5506,418.8571 L164.0802,418.138 L174.6097,418.3519 L185.1392,418.2128 L195.6688,418.5051 L206.1983,418.5893 L216.7278,419.0706 L227.2574,419.1892 L237.7869,419.2006 L248.3164,418.2572 " fill="none" style="stroke:#FFFFFF;stroke-width:2.0833;"/><text fill="#FFFF00" font-family="Segoe Print" font-size="14.5833" font-weight="bold" lengthAdjust="spacing" textLength="207.6914" x="26.0417" y="405.4428">Technical Support Expert</text></g><!--cluster Perplexity--><g id="cluster_Perplexity"><path d="M714.5833,632.2604 L714.5833,632.8443 L724.7239,631.1095 L734.8644,632.7973 L745.005,633.3706 L755.1455,630.2788 L765.2861,632.0445 L775.4266,631.0757 L785.5672,631.1951 L795.7077,632.0711 L805.8482,630.3399 L815.9888,633.7983 L826.1293,630.5096 L836.2699,631.7111 L846.4104,633.4603 L856.551,632.0221 L866.6915,632.45 L876.8321,632.2604 L880.9987,636.4271 L880.97,636.42 L882.6175,642.362 L884.1303,648.2706 L885.9002,654.2429 L887.4352,660.157 L888.2904,665.903 L888.2904,666.5319 L887.924,666.1388 L887.5576,666.3322 L887.1912,666.5532 L886.8247,665.2352 L886.4583,665.903 L890.625,670.0697 L892.5098,670.0697 L889.8014,680.5955 L892.1078,691.1214 L889.2499,701.6473 L890.4347,712.1731 L892.685,722.699 L890.4896,733.2248 L890.9175,743.7507 L891.5656,754.2766 L891.7812,764.8024 L890.6141,775.3283 L890.625,785.8542 L886.4583,790.0208 L886.4583,790.8186 L876.348,788.4308 L866.2377,790.8108 L856.1275,791.5436 L846.0172,791.2556 L835.9069,791.7237 L825.7966,788.6789 L815.6863,788.2092 L805.576,788.2947 L795.4657,789.8573 L785.3554,789.4749 L775.2451,791.9136 L765.1348,789.5356 L755.0245,789.0679 L744.9142,790.6549 L734.8039,788.1685 L724.6936,788.5788 L714.5833,790.0208 L710.4167,785.8542 L712.2193,785.8542 L711.6269,775.1808 L712.4569,764.5074 L709.5228,753.8341 L711.3033,743.1607 L712.0567,732.4874 L709.1044,721.814 L710.1504,711.1406 L710.7666,700.4673 L712.2271,689.7939 L710.405,679.1205 L711.7016,668.4472 L708.8784,657.7738 L708.5354,647.1004 L710.4167,636.4271 L714.5833,632.2604 " fill="none" style="stroke:#FFFFFF;stroke-width:2.0833;"/><path d="M710.4167,665.903 L710.4167,666.1949 L720.8798,665.3275 L731.343,666.1714 L741.8061,666.4581 L752.2693,664.9122 L762.7325,665.7951 L773.1956,665.3106 L783.6588,665.3704 L794.122,665.8083 L804.5851,664.9428 L815.0483,666.6719 L825.5114,665.0276 L835.9746,665.6283 L846.4378,666.5029 L856.9009,665.7839 L867.3641,665.9978 L877.8272,665.8586 L888.2904,665.903 " fill="none" style="stroke:#FFFFFF;stroke-width:2.0833;"/><text fill="#FFFF00" font-family="Segoe Print" font-size="14.5833" font-weight="bold" lengthAdjust="spacing" textLength="153.9154" x="719.7917" y="653.0887">Develope Manager</text></g><g id="elem_HoyasTrader"><polygon fill="none" points="452.1243,255.8816,450.0469,259.9787,442.1179,263.0961,433.02,266.202,425.5095,269.8093,411.3394,271.866,398.3941,274.0761,383.2001,275.5021,366.4596,276.1854,351.9212,276.8858,332.2023,275.784,319.6192,275.6615,303.3451,273.9285,287.6865,271.537,276.7147,269.4041,265.6906,266.416,257.4429,263.2416,250.6151,259.596,246.6379,255.8629,244.3968,251.852,245.4403,248.0097,249.2266,244.3105,256.6483,241.075,264.5944,237.701,274.5296,234.6582,290.884,233.11,300.9152,230.2215,318.6937,229.3971,332.2573,227.9743,351.3767,228.3404,366.4606,228.3631,380.0803,228.727,397.3466,230.691,410.8319,232.5764,422.5924,234.893,432.9741,237.7316,442.6647,241.2419,448.1016,244.5636,454.2944,248.8125,453.1987,252.0465" style="stroke:none;stroke-width:2.0833;"/><text fill="#FFA500" font-family="Segoe Print" font-size="16.6667" font-weight="bold" lengthAdjust="spacing" text-decoration="underline" textLength="119.7184" x="290.1449" y="255.9167">HoyasTrader</text></g><!--entity CIO--><g id="elem_CIO"><path d="M340.1771,412.8958 L340.1771,413.4797 L350.0489,411.7449 L359.9207,413.4327 L369.7926,414.0061 L379.6644,410.9142 L389.5362,412.8958 L393.7029,417.0625 L393.633,417.0452 L394.7779,422.8629 L396.2748,428.7676 L398.0166,434.7329 L398.9148,440.4895 L400.9945,446.5384 L400.9945,448.0763 L411.9951,444.7876 L422.9957,445.9891 L433.9963,447.7383 L444.9968,446.3001 L455.9974,446.728 L466.998,446.4497 L477.9985,447.0343 L488.9991,446.5384 L493.1658,450.7051 L493.3872,450.7051 L493.7081,458.0586 L493.7871,465.4121 L493.7947,472.7656 L493.4015,480.1191 L493.1658,487.4727 L488.9991,491.6393 L488.9991,492.9271 L478.369,493.59 L467.7388,489.636 L457.1087,493.5241 L446.4785,490.8157 L435.8484,493.1221 L425.2182,490.2643 L414.5881,491.449 L403.9579,493.6993 L393.3278,491.5039 L382.6977,491.9318 L372.0675,492.58 L361.4374,492.7955 L350.8072,491.6285 L340.1771,491.6393 L336.0104,487.4727 L336.8082,487.4727 L334.4204,477.4141 L336.8004,467.3555 L337.5332,457.2969 L337.2452,447.2383 L337.7133,437.1797 L334.6685,427.1211 L336.0104,417.0625 L340.1771,412.8958 " fill="none" style="stroke:#FFFFFF;stroke-width:2.0833;"/><path d="M336.0104,446.5384 L336.0104,446.8303 L346.8411,445.963 L357.6718,446.8069 L368.5025,447.0935 L379.3332,445.5476 L390.1639,446.4305 L400.9945,446.5384 " fill="none" style="stroke:#FFFFFF;stroke-width:2.0833;"/><text fill="#FFFF00" font-family="Segoe Print" font-size="14.5833" font-weight="bold" lengthAdjust="spacing" textLength="28.5258" x="351.6354" y="434.7657">CIO</text><text fill="#FFFFFF" font-family="Segoe Print" font-size="14.5833" font-weight="bold" lengthAdjust="spacing" textLength="113.4054" x="352.6771" y="472.575">&#171;TensorFlow&#187;</text></g><!--entity CTO--><g id="elem_CTO"><path d="M533.8333,412.8958 L533.8333,413.4797 L544.6095,411.7449 L555.3857,413.4327 L566.1618,414.0061 L576.938,410.9142 L587.7142,412.8958 L591.8808,417.0625 L591.811,417.0452 L592.9558,422.8629 L594.4528,428.7676 L596.1946,434.7329 L597.0927,440.4895 L599.1725,446.5384 L599.1725,448.0763 L610.0728,444.7876 L620.973,445.9891 L631.8733,447.7383 L642.7736,446.3001 L653.6738,446.5384 L657.8405,450.7051 L657.9037,450.7051 L657.8109,458.0586 L658.0058,465.4121 L658.0619,472.7656 L658.3828,480.1191 L657.8405,487.4727 L653.6738,491.6393 L653.6738,493.5034 L643.6871,493.5261 L633.7004,492.3466 L623.7137,492.9271 L613.727,493.59 L603.7403,489.636 L593.7536,493.5241 L583.7669,490.8157 L573.7802,493.1221 L563.7935,490.2643 L553.8067,491.449 L543.82,493.6993 L533.8333,491.6393 L529.6667,487.4727 L529.5313,487.4727 L529.9592,477.4141 L530.6073,467.3555 L530.8229,457.2969 L529.6558,447.2383 L530.4645,437.1797 L528.0766,427.1211 L529.6667,417.0625 L533.8333,412.8958 " fill="none" style="stroke:#FFFFFF;stroke-width:2.0833;"/><path d="M529.6667,446.5384 L529.6667,446.8303 L539.5961,445.963 L549.5255,446.8069 L559.4549,447.0935 L569.3843,445.5476 L579.3137,446.4305 L589.2431,445.9461 L599.1725,446.5384 " fill="none" style="stroke:#FFFFFF;stroke-width:2.0833;"/><text fill="#FFFF00" font-family="Segoe Print" font-size="14.5833" font-weight="bold" lengthAdjust="spacing" textLength="33.0475" x="545.2917" y="434.7657">CTO</text><text fill="#FFFFFF" font-family="Segoe Print" font-size="14.5833" font-weight="bold" lengthAdjust="spacing" textLength="84.4238" x="546.3333" y="472.575">&#171;Prophet&#187;</text></g><g id="elem_Madam"><polygon fill="none" points="295.0496,87.4555,293.434,90.9722,287.2675,93.648,280.192,96.3138,274.351,99.4101,263.3307,101.1755,253.263,103.0725,241.4464,104.2964,228.4272,104.8829,217.1204,105.4841,201.7848,104.5384,191.9988,104.4332,179.3422,102.9457,167.1643,100.8931,158.6314,99.0623,150.0579,96.4975,143.6435,93.7728,138.3334,90.6437,135.2404,87.4395,133.4974,83.9968,134.3089,80.6988,137.2536,77.5237,143.0255,74.7465,149.2053,71.8505,156.932,69.2388,169.6511,67.9099,177.4525,65.4305,191.279,64.723,201.8276,63.5017,216.697,63.816,228.4279,63.8355,239.0201,64.1478,252.4483,65.8335,262.936,67.4519,272.0823,69.4402,280.1563,71.8767,287.6927,74.8897,291.9211,77.7409,296.7373,81.3879,295.8852,84.1637" style="stroke:none;stroke-width:2.0833;"/><text fill="#FFA500" font-family="Segoe Print" font-size="12.5" font-weight="bold" lengthAdjust="spacing" textLength="87.03" x="172.1145" y="86.5654">Madam Jung</text></g><!--class part--><g id="elem_part"><polygon fill="none" points="112.8854,647.8854,112.8854,648.1044,123.6117,647.4538,134.338,648.0868,145.0643,648.3017,155.7905,647.1423,166.5168,647.8045,177.2431,647.4412,187.9694,647.4859,198.6957,647.8144,209.4219,647.1652,220.1482,648.4621,230.8745,647.8854,230.7908,647.6832,231.4375,648.0661,232.1104,648.5121,232.6309,648.5901,233.2406,648.8836,233.8208,649.1058,233.8105,649.1016,234.1221,649.7188,234.3857,650.3161,234.7409,650.9514,235.0124,651.552,235.0412,652.0521,235.7487,652.0521,235.3064,662.6507,235.5241,673.2493,235.7727,683.8479,234.2899,694.4465,235.748,705.0451,234.7323,715.6437,235.5972,726.2424,234.5255,736.841,234.9698,747.4396,235.8137,758.0382,234.9904,768.6368,235.1509,779.2354,235.3939,789.834,235.0412,800.4326,235.1747,800.4879,234.7958,801.0214,234.6452,801.6493,234.1253,802.1243,234.1561,802.8274,233.8208,803.3789,233.8936,803.5548,233.2906,803.7656,232.7237,804.0637,231.9888,803.9562,231.3771,804.146,230.8745,804.5993,230.8745,803.952,220.1482,804.5379,209.4219,804.3946,198.6957,805.3091,187.9694,804.4173,177.2431,804.2419,166.5168,804.8371,155.7905,803.9047,145.0643,804.0585,134.338,805.2753,123.6117,805.0531,112.8854,804.5993,112.983,804.8349,112.2534,804.252,111.7493,804.2135,111.1961,804.0565,110.4656,803.4714,109.9391,803.3789,109.9084,803.3662,109.7355,802.8064,109.6601,802.287,109.2056,801.6106,109.1112,801.0833,108.7188,800.4326,108.1419,800.4326,108.0133,789.834,109.2433,779.2354,107.9719,768.6368,109.2489,758.0382,108.934,747.4396,108.4397,736.841,108.3502,726.2424,109.1966,715.6437,108.4069,705.0451,109.3353,694.4465,108.143,683.8479,109.3619,673.2493,109.2232,662.6507,108.7188,652.0521,108.7973,652.0846,108.978,651.4691,109.44,650.9701,109.6478,650.3658,109.7494,649.7176,109.9391,649.1058,109.9748,649.1918,110.5111,648.8199,111.2128,648.8475,111.7275,648.4233,112.3191,648.1849,112.8854,647.8854" style="stroke:#FF0000;stroke-width:4.1667;"/><polygon fill="none" points="151.2539,667.5049,149.727,669.5913,147.921,672.647,145.3381,674.7064,142.6238,675.8326,140.4597,675.9303,137.6781,674.5219,135.0536,673.6018,133.0615,671.7337,132.0165,669.595,131.3968,667.8922,130.7897,665.6679,129.8043,663.7538,130.5616,661.885,131.225,659.8379,133.7147,658.2188,135.4662,656.1181,137.6343,655.4205,140.2117,654.8197,143.5169,655.1766,145.3272,656.0304,147.4319,656.4174,149.9911,659.0394,150.8832,661.8073,151.2708,663.696,150.8318,666.8082" style="stroke:#2E2E2E;stroke-width:1.0417;"/><path d="M142.684,669.3983 Q142.2608,669.6099 141.7888,669.7238 Q141.3168,669.8377 140.8123,669.8377 Q138.9568,669.8377 137.9803,668.6333 Q137.02,667.4126 137.02,665.1177 Q137.02,662.8065 137.9803,661.6021 Q138.9568,660.3813 140.8123,660.3813 Q141.3168,660.3813 141.7888,660.4953 Q142.2771,660.5929 142.684,660.8208 L142.684,662.8228 Q142.2283,662.3996 141.7888,662.2043 Q141.3494,661.9927 140.8937,661.9927 Q139.9008,661.9927 139.3963,662.7902 Q138.8917,663.5715 138.8917,665.1177 Q138.8917,666.6476 139.3963,667.4289 Q139.9008,668.2101 140.8937,668.2101 Q141.3494,668.2101 141.7888,668.0148 Q142.2283,667.8195 142.684,667.3963 L142.684,669.3983 Z " fill="#FFFFFF"/><text fill="#FFFFFF" font-family="Segoe Print" font-size="11.4583" lengthAdjust="spacing" textLength="45.8165" x="163.4137" y="668.938">Chatgpt</text><path d="M109.7604,682.057 L109.7604,682.3489 L120.1137,681.4815 L130.4669,682.3254 L140.8202,682.6121 L151.1734,681.0661 L161.5267,681.949 L171.88,681.4646 L182.2332,681.5243 L192.5865,681.9623 L202.9397,681.0967 L213.293,682.8259 L223.6463,681.1816 L233.9995,682.057 " fill="none" style="stroke:#FF0000;stroke-width:4.1667;"/><polygon fill="none" points="123.3193,699.8174,122.8613,700.4433,122.3195,701.36,121.5446,701.9779,120.7303,702.3157,120.0811,702.345,119.2466,701.9225,118.4592,701.6465,117.8616,701.086,117.5481,700.4444,117.3622,699.9336,117.1801,699.2663,116.8845,698.6921,117.1116,698.1314,117.3107,697.5173,118.0576,697.0316,118.583,696.4014,119.2334,696.1921,120.0067,696.0119,120.9982,696.1189,121.5413,696.3751,122.1727,696.4912,122.9405,697.2777,123.2081,698.1081,123.3244,698.6747,123.1927,699.6084" style="stroke:#2E2E2E;stroke-width:1.0417;"/><text fill="#FFFFFF" font-family="Segoe Print" font-size="10.4167" lengthAdjust="spacing" textLength="89.8641" x="133.7188" y="701.101">Al Developement</text><path d="M109.7604,712.9326 L109.7604,713.2245 L120.1137,712.3572 L130.4669,713.2011 L140.8202,713.4877 L151.1734,711.9418 L161.5267,712.8247 L171.88,712.3403 L182.2332,712.4 L192.5865,712.838 L202.9397,711.9724 L213.293,713.7016 L223.6463,712.0572 L233.9995,712.9326 " fill="none" style="stroke:#FF0000;stroke-width:1.0417;"/><polygon fill="none" points="117.0521,725.9535,117.0521,726.0264,118.3021,725.8096,119.5521,726.0206,120.8021,726.0922,122.0521,725.7057,123.3021,725.9535,123.2751,725.9535,123.154,727.2035,123.1689,728.4535,123.2784,729.7035,123.062,730.9535,123.3021,732.2035,123.3021,732.3957,122.0521,731.9846,120.8021,732.1348,119.5521,732.3534,118.3021,732.1737,117.0521,732.2035,117.0758,732.2035,117.041,730.9535,117.1141,729.7035,117.1351,728.4535,117.2554,727.2035,117.0521,725.9535" style="stroke:#2E2E2E;stroke-width:1.0417;"/><text fill="#FFFFFF" font-family="Segoe Print" font-size="8.3333" lengthAdjust="spacing" textLength="32.0841" x="133.7188" y="730.0428">chatgpt</text><polygon fill="none" points="117.0521,746.7868,117.0521,746.8598,118.3021,746.6429,119.5521,746.8539,120.8021,746.9256,122.0521,746.5391,123.3021,746.7868,123.2751,746.7868,123.154,748.0368,123.1689,749.2868,123.2784,750.5368,123.062,751.7868,123.3021,753.0368,123.3021,753.229,122.0521,752.8179,120.8021,752.9681,119.5521,753.1868,118.3021,753.007,117.0521,753.0368,117.0758,753.0368,117.041,751.7868,117.1141,750.5368,117.1351,749.2868,117.2554,748.0368,117.0521,746.7868" style="stroke:#2E2E2E;stroke-width:1.0417;"/><text fill="#FFFFFF" font-family="Segoe Print" font-size="8.3333" lengthAdjust="spacing" textLength="28.4465" x="133.7188" y="750.8761">gemini</text><polygon fill="none" points="117.0521,767.6201,117.0521,767.6931,118.3021,767.4763,119.5521,767.6872,120.8021,767.7589,122.0521,767.3724,123.3021,767.6201,123.2751,767.6201,123.154,768.8701,123.1689,770.1201,123.2784,771.3701,123.062,772.6201,123.3021,773.8701,123.3021,774.0624,122.0521,773.6513,120.8021,773.8014,119.5521,774.0201,118.3021,773.8403,117.0521,773.8701,117.0758,773.8701,117.041,772.6201,117.1141,771.3701,117.1351,770.1201,117.2554,768.8701,117.0521,767.6201" style="stroke:#2E2E2E;stroke-width:1.0417;"/><text fill="#FFFFFF" font-family="Segoe Print" font-size="8.3333" lengthAdjust="spacing" textLength="27.7018" x="133.7188" y="771.7095">claude</text><polygon fill="none" points="117.0521,788.4535,117.0521,788.5264,118.3021,788.3096,119.5521,788.5206,120.8021,788.5922,122.0521,788.2057,123.3021,788.4535,123.2751,788.4535,123.154,789.7035,123.1689,790.9535,123.2784,792.2035,123.062,793.4535,123.3021,794.7035,123.3021,794.8957,122.0521,794.4846,120.8021,794.6348,119.5521,794.8534,118.3021,794.6737,117.0521,794.7035,117.0758,794.7035,117.041,793.4535,117.1141,792.2035,117.1351,790.9535,117.2554,789.7035,117.0521,788.4535" style="stroke:#2E2E2E;stroke-width:1.0417;"/><text fill="#FFFFFF" font-family="Segoe Print" font-size="8.3333" lengthAdjust="spacing" textLength="53.186" x="133.7188" y="792.5428">hugingspace</text></g><!--class part--><g id="elem_part"><polygon fill="none" points="360.8854,658.3021,360.8854,658.521,371.4644,657.8705,382.0434,658.5034,392.6224,658.7184,403.2014,657.559,413.7804,658.2211,424.3594,657.8578,434.9384,658.3021,434.8874,658.1791,435.5186,658.5243,436.025,658.5685,436.7797,659.2119,437.2116,659.0762,437.8846,659.5225,437.8212,659.4962,438.2673,660.1691,438.3453,660.6896,438.6388,661.2993,438.8507,661.8752,439.105,662.4688,439.291,662.4688,439.3541,673.0977,439.7151,683.7266,439.804,694.3556,439.8126,704.9845,439.3703,715.6134,439.5879,726.2424,439.8365,736.8713,438.3538,747.5002,439.8118,758.1292,438.7962,768.7581,439.6611,779.387,439.105,790.016,438.9462,789.9502,438.839,790.5961,438.8548,791.293,438.3572,791.7772,438.1625,792.387,437.8846,792.9622,437.9296,793.0709,437.3507,793.3398,436.7056,793.4491,436.155,793.7866,435.4515,793.7549,434.9384,794.1826,434.9384,794.4789,424.3594,794.7537,413.7804,794.6457,403.2014,794.8212,392.6224,793.6794,382.0434,793.5033,371.4644,793.5353,360.8854,794.1826,360.8776,794.1637,360.27,793.8755,359.7974,793.9131,359.0944,793.3943,358.4828,793.0963,357.9391,792.9622,358.0124,792.9926,357.4811,792.2844,357.2845,791.7147,357.4151,791.2807,357.1026,790.6631,356.7188,790.016,357.4838,790.016,356.3835,779.387,357.0512,768.7581,357.3338,758.1292,356.2267,747.5002,356.6189,736.8713,356.85,726.2424,357.3977,715.6134,356.7144,704.9845,357.2006,694.3556,356.1419,683.7266,356.0133,673.0977,356.7188,662.4688,356.8803,662.5357,356.7328,661.7842,357.3702,661.3579,357.5173,660.7284,357.6091,660.0761,357.9391,659.5225,357.8921,659.409,358.5894,659.4256,359.0779,658.9383,359.7855,658.9801,360.2227,658.3688,360.8854,658.3021" style="stroke:#FF0000;stroke-width:4.1667;"/><polygon fill="none" points="381.7763,677.9216,380.2494,680.0079,378.4434,683.0637,375.8604,685.1231,373.1462,686.2492,370.982,686.347,368.2005,684.9386,365.5759,684.0185,363.5838,682.1503,362.5389,680.0117,361.9192,678.3088,361.3121,676.0845,360.3267,674.1705,361.0839,672.3017,361.7473,670.2545,364.237,668.6355,365.9886,666.5347,368.1566,665.8371,370.734,665.2364,374.0392,665.5933,375.8495,666.4471,377.9543,666.8341,380.5134,669.456,381.4056,672.224,381.7932,674.1126,381.3541,677.2249" style="stroke:#2E2E2E;stroke-width:1.0417;"/><path d="M373.2064,679.8149 Q372.7832,680.0265 372.3112,680.1405 Q371.8392,680.2544 371.3346,680.2544 Q369.4792,680.2544 368.5026,679.05 Q367.5423,677.8293 367.5423,675.5343 Q367.5423,673.2231 368.5026,672.0187 Q369.4792,670.798 371.3346,670.798 Q371.8392,670.798 372.3112,670.9119 Q372.7995,671.0096 373.2064,671.2375 L373.2064,673.2394 Q372.7507,672.8162 372.3112,672.6209 Q371.8717,672.4093 371.416,672.4093 Q370.4232,672.4093 369.9186,673.2069 Q369.4141,673.9881 369.4141,675.5343 Q369.4141,677.0643 369.9186,677.8455 Q370.4232,678.6268 371.416,678.6268 Q371.8717,678.6268 372.3112,678.4315 Q372.7507,678.2362 373.2064,677.813 L373.2064,679.8149 Z " fill="#FFFFFF"/><text fill="#FFFFFF" font-family="Segoe Print" font-size="11.4583" lengthAdjust="spacing" textLength="40.7196" x="390.0521" y="679.3546">Gemini</text><path d="M357.7604,692.4736 L357.7604,692.7656 L367.7983,691.8982 L377.8362,692.7421 L387.874,693.0287 L397.9119,691.4828 L407.9498,692.3657 L417.9876,691.8813 L428.0255,691.941 L438.0634,692.4736 " fill="none" style="stroke:#FF0000;stroke-width:4.1667;"/><polygon fill="none" points="371.3193,710.2341,370.8613,710.86,370.3195,711.7767,369.5446,712.3945,368.7303,712.7324,368.0811,712.7617,367.2466,712.3392,366.4592,712.0631,365.8616,711.5027,365.5481,710.8611,365.3622,710.3502,365.1801,709.683,364.8845,709.1088,365.1116,708.5481,365.3107,707.934,366.0576,707.4482,366.583,706.818,367.2334,706.6087,368.0067,706.4285,368.9982,706.5356,369.5413,706.7917,370.1727,706.9078,370.9405,707.6944,371.2081,708.5248,371.3244,709.0914,371.1927,710.0251" style="stroke:#2E2E2E;stroke-width:1.0417;"/><text fill="#FFFFFF" font-family="Segoe Print" font-size="10.4167" lengthAdjust="spacing" textLength="36.0514" x="381.7188" y="711.5176">Project</text><path d="M357.7604,723.3493 L357.7604,723.6412 L367.7983,722.7738 L377.8362,723.6177 L387.874,723.9044 L397.9119,722.3585 L407.9498,723.2413 L417.9876,722.7569 L428.0255,722.8166 L438.0634,723.3493 " fill="none" style="stroke:#FF0000;stroke-width:1.0417;"/><polygon fill="none" points="365.0521,736.3701,365.0521,736.4431,366.3021,736.2263,367.5521,736.4372,368.8021,736.5089,370.0521,736.1224,371.3021,736.3701,371.2751,736.3701,371.154,737.6201,371.1689,738.8701,371.2784,740.1201,371.062,741.3701,371.3021,742.6201,371.3021,742.8124,370.0521,742.4013,368.8021,742.5514,367.5521,742.7701,366.3021,742.5903,365.0521,742.6201,365.0758,742.6201,365.041,741.3701,365.1141,740.1201,365.1351,738.8701,365.2554,737.6201,365.0521,736.3701" style="stroke:#2E2E2E;stroke-width:1.0417;"/><text fill="#FFFFFF" font-family="Segoe Print" font-size="8.3333" lengthAdjust="spacing" textLength="36.9751" x="381.7188" y="740.4595">plantuml</text><polygon fill="none" points="365.0521,757.2035,365.0521,757.2764,366.3021,757.0596,367.5521,757.2706,368.8021,757.3422,370.0521,756.9557,371.3021,757.2035,371.2751,757.2035,371.154,758.4535,371.1689,759.7035,371.2784,760.9535,371.062,762.2035,371.3021,763.4535,371.3021,763.6457,370.0521,763.2346,368.8021,763.3848,367.5521,763.6034,366.3021,763.4237,365.0521,763.4535,365.0758,763.4535,365.041,762.2035,365.1141,760.9535,365.1351,759.7035,365.2554,758.4535,365.0521,757.2035" style="stroke:#2E2E2E;stroke-width:1.0417;"/><text fill="#FFFFFF" font-family="Segoe Print" font-size="8.3333" lengthAdjust="spacing" textLength="22.3918" x="381.7188" y="761.2928">colab</text><polygon fill="none" points="365.0521,778.0368,365.0521,778.1098,366.3021,777.8929,367.5521,778.1039,368.8021,778.1756,370.0521,777.7891,371.3021,778.0368,371.2751,778.0368,371.154,779.2868,371.1689,780.5368,371.2784,781.7868,371.062,783.0368,371.3021,784.2868,371.3021,784.479,370.0521,784.0679,368.8021,784.2181,367.5521,784.4368,366.3021,784.257,365.0521,784.2868,365.0758,784.2868,365.041,783.0368,365.1141,781.7868,365.1351,780.5368,365.2554,779.2868,365.0521,778.0368" style="stroke:#2E2E2E;stroke-width:1.0417;"/><text fill="#FFFFFF" font-family="Segoe Print" font-size="8.3333" lengthAdjust="spacing" textLength="39.7949" x="381.7188" y="782.1261">devspace</text></g><!--class part--><g id="elem_part"><polygon fill="none" points="518.6458,679.1354,518.6458,679.3544,529.0921,678.7038,539.5385,679.3368,549.9848,679.5517,560.4311,678.3923,570.8774,679.0545,581.3237,678.6912,591.77,679.1354,591.7191,679.0124,592.3502,679.3576,592.8567,679.4018,593.6114,680.0453,594.0433,679.9095,594.7163,680.3558,594.6529,680.3295,595.0989,681.0025,595.1769,681.5229,595.4704,682.1326,595.6824,682.7086,595.9367,683.3021,596.1227,683.3021,596.1858,694.0372,596.5468,704.7722,596.6357,715.5073,596.6442,726.2424,596.2019,736.9774,596.4196,747.7125,596.6682,758.4476,595.9367,769.1826,595.7053,769.0868,595.9103,769.862,595.3534,770.3217,595.3757,771.0213,594.8016,771.4739,594.7163,772.1289,594.7072,772.1069,594.2256,772.6109,593.5313,772.6014,592.9625,772.8949,592.4043,773.2138,591.77,773.3493,591.77,773.7829,581.3237,773.3452,570.8774,773.6485,560.4311,772.753,549.9848,773.6455,539.5385,773.9203,529.0921,773.8123,518.6458,773.3493,518.7273,773.5459,517.9924,772.9502,517.3807,772.6519,516.7955,772.4177,516.281,772.3541,515.6996,772.1289,515.6365,772.1028,515.6741,771.6302,515.1554,770.9272,514.8573,770.3155,514.7965,769.8022,514.4792,769.1826,513.7845,769.1826,513.9384,758.4476,515.1552,747.7125,514.933,736.9774,515.2443,726.2424,514.144,715.5073,514.8117,704.7722,515.0942,694.0372,514.4792,683.3021,514.3276,683.2393,514.6925,682.7001,515.0077,682.1403,515.4205,681.6209,515.4541,680.9445,515.6996,680.3558,515.761,680.5042,516.2152,679.9341,516.7881,679.6504,517.5342,679.7851,517.9613,679.1495,518.6458,679.1354" style="stroke:#FF0000;stroke-width:4.1667;"/><polygon fill="none" points="539.5367,698.7549,538.0098,700.8413,536.2038,703.897,533.6209,705.9564,530.9066,707.0826,528.7424,707.1803,525.9609,705.7719,523.3363,704.8518,521.3443,702.9837,520.2993,700.845,519.6796,699.1422,519.0725,696.9179,518.0871,695.0038,518.8443,693.135,519.5078,691.0879,521.9974,689.4688,523.749,687.3681,525.917,686.6705,528.4944,686.0697,531.7996,686.4266,533.6099,687.2804,535.7147,687.6674,538.2738,690.2894,539.166,693.0573,539.5536,694.946,539.1145,698.0582" style="stroke:#2E2E2E;stroke-width:1.0417;"/><path d="M530.9668,700.6483 Q530.5436,700.8599 530.0716,700.9738 Q529.5996,701.0877 529.0951,701.0877 Q527.2396,701.0877 526.263,699.8833 Q525.3027,698.6626 525.3027,696.3677 Q525.3027,694.0565 526.263,692.8521 Q527.2396,691.6313 529.0951,691.6313 Q529.5996,691.6313 530.0716,691.7453 Q530.5599,691.8429 530.9668,692.0708 L530.9668,694.0728 Q530.5111,693.6496 530.0716,693.4543 Q529.6322,693.2427 529.1764,693.2427 Q528.1836,693.2427 527.679,694.0402 Q527.1745,694.8215 527.1745,696.3677 Q527.1745,697.8976 527.679,698.6789 Q528.1836,699.4601 529.1764,699.4601 Q529.6322,699.4601 530.0716,699.2648 Q530.5111,699.0695 530.9668,698.6463 L530.9668,700.6483 Z " fill="#FFFFFF"/><text fill="#FFFFFF" font-family="Segoe Print" font-size="11.4583" lengthAdjust="spacing" textLength="39.7909" x="547.8125" y="700.188">Claude</text><path d="M515.5208,713.307 L515.5208,713.5989 L525.4426,712.7315 L535.3644,713.5754 L545.2862,713.8621 L555.2079,712.3161 L565.1297,713.199 L575.0515,712.7146 L584.9732,712.7743 L594.895,713.307 " fill="none" style="stroke:#FF0000;stroke-width:4.1667;"/><polygon fill="none" points="529.0798,731.0674,528.6217,731.6933,528.0799,732.61,527.305,733.2279,526.4907,733.5657,525.8415,733.595,525.007,733.1725,524.2196,732.8965,523.622,732.336,523.3085,731.6944,523.1226,731.1836,522.9405,730.5163,522.6449,729.9421,522.8721,729.3814,523.0711,728.7673,523.818,728.2816,524.3435,727.6514,524.9939,727.4421,525.7671,727.2619,526.7586,727.3689,527.3017,727.6251,527.9332,727.7412,528.7009,728.5277,528.9685,729.3581,529.0848,729.9247,528.9531,730.8584" style="stroke:#2E2E2E;stroke-width:1.0417;"/><text fill="#FFFFFF" font-family="Segoe Print" font-size="10.4167" lengthAdjust="spacing" textLength="21.1589" x="539.4792" y="732.351">Mail</text><path d="M515.5208,744.1826 L515.5208,744.4745 L525.4426,743.6072 L535.3644,744.4511 L545.2862,744.7377 L555.2079,743.1918 L565.1297,744.0747 L575.0515,743.5903 L584.9732,743.65 L594.895,744.1826 " fill="none" style="stroke:#FF0000;stroke-width:1.0417;"/><polygon fill="none" points="522.8125,757.2035,522.8125,757.2764,524.0625,757.0596,525.3125,757.2706,526.5625,757.3422,527.8125,756.9557,529.0625,757.2035,529.0355,757.2035,528.9144,758.4535,528.9293,759.7035,529.0388,760.9535,528.8224,762.2035,529.0625,763.4535,529.0625,763.6457,527.8125,763.2346,526.5625,763.3848,525.3125,763.6034,524.0625,763.4237,522.8125,763.4535,522.8362,763.4535,522.8014,762.2035,522.8745,760.9535,522.8955,759.7035,523.0159,758.4535,522.8125,757.2035" style="stroke:#2E2E2E;stroke-width:1.0417;"/><text fill="#FFFFFF" font-family="Segoe Print" font-size="8.3333" lengthAdjust="spacing" textLength="27.7018" x="539.4792" y="761.2928">claude</text></g><g id="elem_Chan"><polygon fill="none" points="221.1924,455.4034,219.8925,458.9201,214.9311,461.5959,209.2384,464.2617,204.5389,467.358,195.6724,469.1234,187.5723,471.0204,178.065,472.2444,167.5902,472.8308,158.4932,473.432,146.1547,472.4863,138.2812,472.3811,128.0981,470.8936,118.3002,468.841,111.4349,467.0102,104.537,464.4454,99.3762,461.7207,95.1039,458.5916,92.6153,455.3874,91.213,451.9447,91.8659,448.6467,94.2351,445.4716,98.879,442.6944,103.851,439.7984,110.0677,437.1867,120.301,435.8578,126.5777,433.3785,137.7021,432.6709,146.1891,431.4496,158.1525,431.7639,167.5908,431.7834,176.1129,432.0957,186.9168,433.7814,195.3548,435.3998,202.7136,437.3882,209.2097,439.8246,215.2733,442.8376,218.6753,445.6888,222.5502,449.3358,221.8647,452.1116" style="stroke:none;stroke-width:2.0833;"/><text fill="#FFA500" font-family="Segoe Print" font-size="12.5" font-weight="bold" lengthAdjust="spacing" textLength="64.679" x="124.9541" y="454.5133">Chan Lee</text></g><!--class part--><g id="elem_part"><polygon fill="none" points="731.7083,679.1354,731.7083,679.3544,741.7915,678.7038,751.8746,679.3368,761.9577,679.5517,772.0408,678.3923,782.1239,679.0545,792.2071,678.6912,802.2902,678.7359,812.3733,679.0644,822.4564,679.1354,822.3646,678.9136,823.1192,679.5571,823.5512,679.4214,824.1979,679.8042,824.8708,680.2503,825.4027,680.3558,825.3752,680.3444,825.6687,680.9541,825.8806,681.5301,826.1922,682.1473,826.4557,682.7446,826.6231,683.3021,827.2332,683.3021,827.3221,694.0372,827.3306,704.7722,826.8883,715.5073,827.106,726.2424,827.3546,736.9774,825.8719,747.7125,827.3299,758.4476,826.6231,769.1826,826.528,769.1432,826.5503,769.8428,825.9761,770.2954,825.8689,770.9413,825.8847,771.6382,825.4027,772.1289,825.3962,772.1133,824.8274,772.4068,824.2692,772.7257,823.6902,772.9947,823.0452,773.104,822.4564,773.3493,822.4564,773.6485,812.3733,772.753,802.2902,773.6455,792.2071,773.9203,782.1239,773.8123,772.0408,773.9879,761.9577,772.8461,751.8746,772.6699,741.7915,772.702,731.7083,773.3493,731.7005,773.3304,731.093,773.0422,730.6204,773.0797,729.9174,772.561,729.3057,772.2629,728.7621,772.1289,728.8353,772.1592,728.3041,771.451,728.1074,770.8814,728.238,770.4474,727.9255,769.8298,727.5417,769.1826,728.3068,769.1826,727.2065,758.4476,727.8742,747.7125,728.1567,736.9774,727.0496,726.2424,727.4418,715.5073,727.6729,704.7722,728.2206,694.0372,727.5417,683.3021,727.5403,683.3015,727.9341,682.7743,727.8522,682.05,728.0566,681.4443,728.6795,681.012,728.7621,680.3558,728.6668,680.1258,729.4189,680.275,729.968,679.9339,730.4942,679.5376,731.0721,679.266,731.7083,679.1354" style="stroke:#FF0000;stroke-width:4.1667;"/><polygon fill="none" points="752.5992,698.7549,751.0723,700.8413,749.2663,703.897,746.6834,705.9564,743.9691,707.0826,741.8049,707.1803,739.0234,705.7719,736.3988,704.8518,734.4068,702.9837,733.3618,700.845,732.7421,699.1422,732.135,696.9179,731.1496,695.0038,731.9068,693.135,732.5703,691.0879,735.0599,689.4688,736.8115,687.3681,738.9795,686.6705,741.5569,686.0697,744.8621,686.4266,746.6724,687.2804,748.7772,687.6674,751.3363,690.2894,752.2285,693.0573,752.6161,694.946,752.177,698.0582" style="stroke:#2E2E2E;stroke-width:1.0417;"/><path d="M744.0293,700.6483 Q743.6061,700.8599 743.1341,700.9738 Q742.6621,701.0877 742.1576,701.0877 Q740.3021,701.0877 739.3255,699.8833 Q738.3652,698.6626 738.3652,696.3677 Q738.3652,694.0565 739.3255,692.8521 Q740.3021,691.6313 742.1576,691.6313 Q742.6621,691.6313 743.1341,691.7453 Q743.6224,691.8429 744.0293,692.0708 L744.0293,694.0728 Q743.5736,693.6496 743.1341,693.4543 Q742.6947,693.2427 742.2389,693.2427 Q741.2461,693.2427 740.7415,694.0402 Q740.237,694.8215 740.237,696.3677 Q740.237,697.8976 740.7415,698.6789 Q741.2461,699.4601 742.2389,699.4601 Q742.6947,699.4601 743.1341,699.2648 Q743.5736,699.0695 744.0293,698.6463 L744.0293,700.6483 Z " fill="#FFFFFF"/><text fill="#FFFFFF" font-family="Segoe Print" font-size="11.4583" lengthAdjust="spacing" textLength="57.4148" x="760.875" y="700.188">Perplexity</text><path d="M728.5833,713.307 L728.5833,713.5989 L739.3609,712.7315 L750.1385,713.5754 L760.916,713.8621 L771.6936,712.3161 L782.4712,713.199 L793.2487,712.7146 L804.0263,712.7743 L814.8039,713.2123 L825.5814,713.307 " fill="none" style="stroke:#FF0000;stroke-width:4.1667;"/><polygon fill="none" points="742.1423,731.0674,741.6842,731.6933,741.1424,732.61,740.3675,733.2279,739.5532,733.5657,738.904,733.595,738.0695,733.1725,737.2821,732.8965,736.6845,732.336,736.371,731.6944,736.1851,731.1836,736.003,730.5163,735.7074,729.9421,735.9346,729.3814,736.1336,728.7673,736.8805,728.2816,737.406,727.6514,738.0564,727.4421,738.8296,727.2619,739.8211,727.3689,740.3642,727.6251,740.9957,727.7412,741.7634,728.5277,742.031,729.3581,742.1473,729.9247,742.0156,730.8584" style="stroke:#2E2E2E;stroke-width:1.0417;"/><text fill="#FFFFFF" font-family="Segoe Print" font-size="10.4167" lengthAdjust="spacing" textLength="36.1074" x="752.5417" y="732.351">Python</text><path d="M728.5833,744.1826 L728.5833,744.4745 L739.3609,743.6072 L750.1385,744.4511 L760.916,744.7377 L771.6936,743.1918 L782.4712,744.0747 L793.2487,743.5903 L804.0263,743.65 L814.8039,744.088 L825.5814,744.1826 " fill="none" style="stroke:#FF0000;stroke-width:1.0417;"/><polygon fill="none" points="735.875,757.2035,735.875,757.2764,737.125,757.0596,738.375,757.2706,739.625,757.3422,740.875,756.9557,742.125,757.2035,742.098,757.2035,741.9769,758.4535,741.9918,759.7035,742.1013,760.9535,741.8849,762.2035,742.125,763.4535,742.125,763.6457,740.875,763.2346,739.625,763.3848,738.375,763.6034,737.125,763.4237,735.875,763.4535,735.8987,763.4535,735.8639,762.2035,735.937,760.9535,735.958,759.7035,736.0784,758.4535,735.875,757.2035" style="stroke:#2E2E2E;stroke-width:1.0417;"/><text fill="#FFFFFF" font-family="Segoe Print" font-size="8.3333" lengthAdjust="spacing" textLength="38.2324" x="752.5417" y="761.2928">Streamlit</text></g><!--link Madam to HoyasTrader--><g id="link_Madam_HoyasTrader"><path d="M235.498,109.897 L235.7248,110.0808 L241.6115,117.6298 L248.8277,126.2562 L255.6109,134.5318 L260.9704,141.6535 L268.2169,150.3044 L274.4011,158.0945 L281.008,166.2272 L287.9088,174.598 L293.7969,182.1481 L301.7008,191.332 L306.9839,198.3917 L314.0111,206.865 L321.2511,215.5108 L327.3456,223.2281 " fill="none" style="stroke:#FFA500;stroke-width:3.125;"/><polygon fill="#FFA500" points="231.5625,105.0417,231.633,105.0606,231.9569,106.9856,232.6939,109.0218,233.2963,111.0217,233.4564,112.9026,234.2289,114.9483,234.202,114.9455,234.2042,113.7608,234.3417,112.5903,234.5733,111.4295,234.4807,110.2349,234.8421,109.0878,234.8621,109.279,235.9914,108.9928,237.1792,109.2648,238.374,109.6049,239.5274,109.5487,240.7027,109.701,240.7134,109.7221,238.8696,108.7592,237.0747,107.8925,235.2563,106.9794,233.4829,106.1547,231.5625,105.0417" style="stroke:#FFA500;stroke-width:3.125;"/><polygon fill="#FFA500" points="331.2813,228.0833,331.3517,228.1023,330.609,226.0646,330.2794,224.1381,329.8152,222.1755,328.9087,220.0937,328.6145,218.1768,328.5877,218.1739,328.3446,219.3335,328.2369,220.5071,328.2232,221.6906,327.8854,222.8402,328.0015,224.0373,328.0215,224.2285,326.8066,223.6971,325.6501,223.7238,324.5008,223.8187,323.3099,223.5173,322.1409,223.4243,322.1517,223.4454,323.964,224.3463,325.8252,225.3432,327.6628,226.2937,329.5455,227.3327,331.2813,228.0833" style="stroke:#FFA500;stroke-width:3.125;"/><text fill="#FFFFFF" font-family="Segoe Print" font-size="12.5" lengthAdjust="spacing" textLength="30.9692" x="284.375" y="156.2903">Fund</text></g><!--link HoyasTrader to Chan--><g id="link_HoyasTrader_Chan"><path d="M286.4023,275.2729 L286.4441,275.3608 L283.4119,276.4842 L280.6249,278.1227 L277.758,279.5935 L274.6286,280.5127 L271.8627,282.1954 L271.8447,282.1643 L269.0832,283.5677 L266.4121,285.1284 L263.8039,286.7983 L260.979,288.0917 L258.4576,289.9125 L258.6061,290.1215 L255.7487,291.479 L253.3246,293.4466 L250.9535,295.4886 L248.2747,297.0975 L245.7577,298.9342 L245.7784,298.9581 L243.2631,301.0904 L240.8423,303.3312 L238.3758,305.5196 L235.9964,307.8079 L233.3333,309.7708 L233.5596,309.9837 L230.9598,312.7524 L228.214,315.3838 L225.6819,318.2162 L223.1598,321.0581 L220.3205,323.6014 L220.0572,323.396 L218.248,326.7686 L215.572,329.4649 L213.5549,332.6753 L210.8592,335.3562 L208.7198,338.4712 L208.6933,338.4536 L206.9568,341.7567 L204.6024,344.6507 L202.6125,347.7861 L200.6533,350.9417 L198.4733,353.9512 L198.6406,354.0468 L196.6817,357.0826 L195.0086,360.2818 L192.8731,363.2166 L191.4274,366.5457 L189.5231,369.6126 L189.75,369.7262 L188.1647,372.7875 L186.6921,375.9052 L184.6959,378.7609 L183.0835,381.8086 L181.8111,385.0265 L181.5481,384.9099 L180.4799,387.9629 L179.1153,390.8846 L178.1805,393.9967 L176.5119,396.7836 L175.2795,399.7639 L175.1318,399.7053 L174.2958,402.5292 L172.8288,405.1028 L171.8105,407.8544 L171.2313,410.7803 L169.8702,413.3958 L170.06,413.464 L169.3212,415.9303 L167.992,418.1845 L167.4023,420.7044 L166.6515,423.1664 L165.5253,425.4935 " fill="none" style="stroke:#FFA500;stroke-width:3.125;"/><polygon fill="#FFA500" points="292.125,272.7604,292.1253,272.8334,290.0725,272.6073,288.0217,272.809,285.9702,272.8713,283.9166,272.4756,281.8659,272.714,281.8561,272.6889,282.9101,273.0041,284.0136,273.446,285.1514,273.976,286.1708,274.2025,287.356,274.8542,287.5352,274.924,286.7241,275.8727,286.436,277.0253,286.2117,278.2027,285.6162,279.2355,285.2159,280.3443,285.2334,280.3603,286.5895,278.8201,288.0253,277.3525,289.4227,275.8499,290.8935,274.4142,292.125,272.7604" style="stroke:#FFA500;stroke-width:3.125;"/><polygon fill="#FFA500" points="163.5,431.4063,163.5535,431.4559,164.7905,429.8046,166.3411,428.4443,167.7896,426.9893,168.9023,425.2226,170.4798,423.8873,170.4679,423.8631,169.3562,424.2726,168.3044,424.8044,167.2941,425.421,166.1406,425.745,165.1877,426.479,165.3604,426.5635,164.4729,425.3243,164.0894,424.3319,163.7674,423.3697,163.0877,422.2322,162.5961,421.1869,162.6197,421.189,162.7658,423.2298,163.0194,425.2801,163.2211,427.3258,163.5218,429.3803,163.5,431.4063" style="stroke:#FFA500;stroke-width:3.125;"/><text fill="#FFFFFF" font-family="Segoe Print" font-size="12.5" lengthAdjust="spacing" textLength="47.4304" x="239.5833" y="327.6236">Discuss</text></g><!--link Madam to Chan--><g id="link_Madam_Chan"><path d="M198.6412,110.4204 L198.7244,110.4709 L196.8424,113.013 L195.448,115.8511 L193.8948,118.5928 L191.8195,121.0175 L190.467,123.8811 L190.4352,123.8643 L188.7259,126.7547 L187.177,129.7298 L185.7395,132.7638 L183.9179,135.5949 L182.6344,138.7102 L182.8697,138.8119 L180.9583,141.8508 L179.7338,145.1868 L178.593,148.5589 L176.9647,151.7202 L175.5929,154.9924 L175.6229,155.0022 L174.4186,158.5519 L173.351,162.1461 L172.2174,165.7187 L171.2097,169.3324 L169.7917,172.8125 L170.0933,172.887 L169.2182,176.4467 L168.1485,179.9583 L167.3636,183.5403 L166.5921,187.1255 L165.3976,190.6064 L165.0705,190.5394 L164.9647,194.288 L163.7818,197.8161 L163.4178,201.5118 L162.2105,205.0349 L161.6943,208.6995 L161.6631,208.6942 L161.4206,212.4102 L160.4473,216.0038 L159.9052,219.6696 L159.3994,223.3415 L158.6324,226.9696 L158.8233,226.9953 L158.1366,230.6343 L157.7761,234.3173 L156.8877,237.9291 L156.7868,241.647 L156.1623,245.2944 L156.4147,245.3211 L155.9815,248.9675 L155.6736,252.6272 L154.7834,256.2254 L154.3201,259.8686 L154.2349,263.5518 L153.9481,263.5291 L153.9208,267.1632 L153.5704,270.7717 L153.6887,274.4174 L153.0068,277.9996 L152.8005,281.6195 L152.642,281.6107 L152.7079,285.1765 L152.0961,288.7046 L151.9662,292.2596 L152.3081,295.8409 L151.81,299.3753 L152.0115,299.3822 L152.0306,302.8513 L151.4226,306.2988 L151.5999,309.7733 L151.6062,313.2419 L151.2138,316.6969 L150.9951,316.6936 L151.1191,320.0492 L151.1716,323.4038 L151.3647,326.7605 L151.0108,330.109 L150.9625,333.4621 L151.1767,333.4626 L150.715,336.6787 L150.6667,339.8958 L151.2223,343.1146 L150.6661,346.3304 L151.0069,349.5486 L151.2425,349.5531 L151.1606,352.6076 L150.9991,355.6606 L151.0174,358.7169 L151.4516,361.7812 L151.2974,364.8343 L151.1589,364.8296 L151.6687,367.7162 L151.2366,370.5707 L151.8755,373.4616 L151.9113,376.332 L151.7847,379.197 L151.898,379.2024 L151.9335,381.8615 L152.3746,384.5399 L152.4493,387.2008 L152.3707,389.8545 L152.4194,392.5142 L152.5434,392.5217 L152.5058,394.9406 L153.0436,397.3941 L152.9306,399.8084 L153.0853,402.2388 L153.1521,404.664 L152.8713,404.6424 L153.2774,408.7112 L154.0219,412.806 L154.2876,416.864 L154.3818,420.9088 L154.714,424.9719 " fill="none" style="stroke:#FFA500;stroke-width:3.125;"/><polygon fill="#FFA500" points="202.0104,105.1562,202.0506,105.2172,200.2185,106.1662,198.6221,107.4723,196.9489,108.6621,195.0234,109.4696,193.4472,110.8063,193.4414,110.78,194.5666,110.409,195.7209,110.171,196.8955,110.0252,198.0002,109.5612,199.2028,109.543,199.3905,109.5842,199.2417,110.6472,199.641,111.8305,200.1072,113.0285,200.1843,114.1411,200.4661,115.2986,200.4895,115.3021,200.764,113.2684,201.1451,111.251,201.4748,109.2257,201.9026,107.2153,202.0104,105.1562" style="stroke:#FFA500;stroke-width:3.125;"/><polygon fill="#FFA500" points="155.2604,431.1979,155.3294,431.2216,155.7906,429.2105,156.6563,427.3384,157.3903,425.4209,157.691,423.3548,158.5915,421.4945,158.5708,421.4772,157.7207,422.3024,156.9749,423.215,156.3015,424.1883,155.3784,424.9523,154.805,426.0095,154.9286,426.1568,153.7614,425.0846,152.9549,424.4423,152.1924,423.8526,151.1739,422.9576,150.29,422.2231,150.3108,422.2346,151.2744,424.0127,152.3324,425.8431,153.3449,427.6482,154.4442,429.5015,155.2604,431.1979" style="stroke:#FFA500;stroke-width:3.125;"/><text fill="#FFFFFF" font-family="Segoe Print" font-size="12.5" lengthAdjust="spacing" textLength="47.4304" x="176.0417" y="257.0611">Discuss</text></g><!--link HoyasTrader to CIO--><g id="link_HoyasTrader_CIO"><path d="M360.6667,276.6562 L360.7563,276.6941 L361.8558,279.8213 L363.4809,283.1702 L364.9348,286.4469 L365.8259,289.4863 L367.4961,292.8542 L367.4625,292.8413 L368.6041,296.167 L369.9151,299.5575 L371.344,302.9929 L372.3669,306.2733 L373.9583,309.7708 L374.2031,309.8469 L374.5648,312.5321 L375.6411,315.4393 L376.8045,318.3737 L377.4607,321.1504 L378.3837,324.01 L378.4144,324.0178 L379.2082,327.3078 L380.1415,330.6333 L381.0075,333.9417 L382.0018,337.2826 L382.5778,340.5173 L382.8811,340.5845 L383.6785,344.1718 L384.2802,347.7159 L385.1684,351.3234 L386.0699,354.9338 L386.5462,358.4502 L386.2189,358.3839 L387.6037,362.2156 L387.911,365.8292 L389.0374,369.6086 L389.3202,373.2172 L390.2945,376.9659 L390.2634,376.9598 L392.0034,384.1131 L393.0161,391.1254 L394.4579,398.2208 L395.9358,405.3233 L397.1538,412.3753 L397.3425,412.4141 L397.7765,415.4167 L398.5329,418.4855 L398.7676,421.4471 L399.7806,424.5686 L400.2761,427.5838 L400.5231,427.642 L401.0614,430.1152 L401.7223,432.6172 L401.8133,434.9851 L402.3221,437.4513 L403.201,440.0046 " fill="none" style="stroke:#FFA500;stroke-width:3.125;"/><polygon fill="#FFA500" points="404.7917,446.0488,404.8637,446.0605,404.9783,444.0004,405.5153,442.0089,405.9147,439.995,405.8619,437.9078,406.4351,435.9221,406.4118,435.9085,405.7134,436.8655,405.1325,437.891,404.6332,438.9641,403.8525,439.8731,403.4661,441.012,403.563,441.1781,402.3378,440.2292,401.3955,439.7651,400.4877,439.3602,399.3791,438.6111,398.3762,438.043,398.3947,438.0578,399.6506,439.6372,400.9907,441.2841,402.2903,442.8984,403.6673,444.5748,404.7917,446.0488" style="stroke:#FFA500;stroke-width:3.125;"/><text fill="#FFFFFF" font-family="Segoe Print" font-size="12.5" lengthAdjust="spacing" textLength="84.1553" x="387.5" y="327.6236">Deeplearning</text></g><!--link HoyasTrader to CTO--><g id="link_HoyasTrader_CTO"><path d="M413.3021,271.8958 L413.3384,271.9861 L416.9173,273.1997 L420.709,274.9425 L424.4314,276.513 L427.926,277.5167 L431.736,279.305 L431.7207,279.2724 L435.3862,280.8772 L439.1287,282.6462 L442.9248,284.5294 L446.5363,286.0191 L450.4063,288.0599 L450.5313,288.2836 L453.8933,289.8335 L457.6203,292.0366 L461.3919,294.3194 L464.9043,296.1385 L468.5531,298.2015 L468.5709,298.2275 L471.9174,300.5032 L475.3453,302.8974 L478.7339,305.2344 L482.1973,307.6806 L485.4167,309.7708 L485.6147,310.0102 L488.2713,312.2085 L490.8002,314.2523 L493.5161,316.5222 L496.2407,318.8026 L498.6877,320.7474 L498.4588,320.5043 L501.389,323.3174 L503.5655,325.3301 L506.315,327.9513 L508.4743,329.9459 L511.1174,332.4541 L511.0944,332.4323 L513.6866,335.1388 L515.7409,337.3357 L518.1125,339.8334 L520.5109,342.3562 L522.717,344.697 L522.8633,344.8223 L524.8717,347.2129 L527.1301,349.8176 L528.984,352.0757 L531.4413,354.8508 L533.4974,357.2822 L533.6972,357.4387 L535.6539,359.9558 L537.7097,362.5507 L539.3047,364.7845 L541.2375,367.283 L543.4697,370.0159 L543.2366,369.8473 L545.2826,372.5376 L547.066,375.0379 L549.2305,377.8137 L550.7443,380.1191 L552.6449,382.7041 L552.5132,382.6154 L554.4104,385.2529 L555.7446,387.5111 L557.4791,390.0391 L559.6054,392.8311 L561.0341,395.153 L561.2045,395.2609 L562.8442,397.7381 L563.954,399.8795 L565.7275,402.4415 L567.3564,404.9118 L568.6484,407.1686 " fill="none" style="stroke:#FFA500;stroke-width:3.125;"/><polygon fill="#FFA500" points="571.9271,412.4896,571.9994,412.4993,571.5104,410.4369,571.4453,408.4317,571.2422,406.4078,570.585,404.3227,570.5564,402.3223,570.5301,402.3161,570.14,403.4347,569.8822,404.5848,569.7164,405.7567,569.2336,406.8533,569.1949,408.0554,569.2393,408.2425,567.9977,407.5702,566.8857,407.444,565.7897,407.3844,564.6015,406.9372,563.4618,406.6939,563.4751,406.7134,565.1486,407.8439,566.8829,409.0633,568.5879,410.2398,570.3489,411.4983,571.9271,412.4896" style="stroke:#FFA500;stroke-width:3.125;"/><text fill="#FFFFFF" font-family="Segoe Print" font-size="12.5" lengthAdjust="spacing" textLength="43.5486" x="516.6667" y="327.6236">Predict</text></g><!--link TOT to Chatgpt--><g id="link_TOT_Chatgpt"><path d="M290.4831,470.5135 L290.5686,470.56 L290.2438,470.5523 L290.4203,470.8168 L290.4335,470.9928 L289.9099,470.8772 L290.1294,471.1651 L290.0979,471.1477 L289.6599,471.6069 L289.3807,472.1538 L289.2119,472.7617 L288.6627,473.1595 L288.6463,473.8515 L288.8668,473.9823 L286.9971,476.0586 L285.771,478.5168 L284.6235,481.0216 L283.0191,483.2552 L281.6549,485.6315 L281.6811,485.6492 L279.9209,488.1731 L278.2798,490.7775 L276.5813,493.343 L274.9924,495.9827 L273.0459,498.3808 L273.2896,498.5734 L271.2678,501.1367 L269.0888,503.5756 L267.1399,506.1965 L265.2018,508.8258 L262.922,511.1851 L262.6819,510.9531 L260.8409,513.7923 L258.209,515.8678 L256.1784,518.5238 L253.5286,520.582 L251.3863,523.1302 L251.3666,523.1054 L249.0305,525.4338 L246.2345,527.1813 L243.7098,529.2716 L241.2079,531.3906 L238.5417,533.3021 L238.6091,533.4826 L235.458,534.4525 L232.4221,535.7308 L229.1997,536.5101 L226.2555,538.0337 L223.1263,539.0625 L223.1646,539.3134 L219.7821,539.7805 L216.4186,540.3722 L212.9668,540.3852 L209.5798,540.8223 L206.25,541.6354 L206.1895,541.3542 L202.6019,542.3929 L198.9462,543.1147 L195.3894,544.2961 L191.6636,544.6927 L188.0383,545.5559 L188.0211,545.398 L184.7604,546.0187 L181.4262,545.9646 L178.1442,546.3904 L174.9133,547.2858 L171.5915,547.3449 L171.6019,547.5463 L168.6073,547.8399 L165.5802,547.5069 L162.5938,547.9587 L159.5985,548.2395 L156.5826,548.1219 L156.5687,547.9037 L153.8003,548.2546 L151.0272,548.534 L148.2632,548.9538 L145.4643,548.8277 L142.6849,549.0065 L142.7189,549.2179 L140.0214,549.1757 L137.3896,549.5416 L134.8538,550.5037 L132.1413,550.3681 L129.5713,551.1181 L129.6496,551.3404 L127.0719,552.1 L124.4676,552.7844 L121.9231,553.6386 L119.5169,554.885 L116.915,555.5763 L116.841,555.4592 L114.5563,557.3927 L111.7679,558.5298 L109.5523,560.5725 L107.0142,562.1052 L104.3891,563.5006 L104.4686,563.5815 L101.86,566.0181 L99.536,568.7444 L96.9548,571.209 L94.2661,573.5643 L91.6667,576.0104 L91.7668,576.0839 L90.1647,577.9552 L89.0275,580.1676 L87.3645,581.9942 L85.9178,583.9795 L84.4001,585.9127 L84.1571,585.7702 L83.6178,586.8759 L83.371,588.1533 L82.7102,589.1878 L81.9009,590.1353 L81.2976,591.2035 L81.1653,591.1346 L81.6434,590.3203 L81.8873,589.384 L82.775,588.7831 L83.3441,588.0162 L83.4762,587.0217 " fill="none" style="stroke:#FFA500;stroke-width:3.125;"/><polygon fill="#FFA500" points="80.5745,592.5573,80.6198,592.6145,82.0938,591.1707,83.8333,590.0623,85.4864,588.8447,86.855,587.2679,88.6174,586.1883,88.6094,586.1625,87.4483,586.3981,86.3278,586.7636,85.2354,587.2193,84.046,587.3639,82.9926,587.9443,83.1761,588.0016,82.4325,586.7541,82.2246,585.6739,82.0822,584.6141,81.5594,583.4355,81.2366,582.3194,81.2602,582.321,81.0931,584.3663,81.0336,586.4186,80.9222,588.4675,80.9099,590.5228,80.5745,592.5573" style="stroke:#FFA500;stroke-width:3.125;"/><text fill="#00FFFF" font-family="Segoe Print" font-size="12.5" lengthAdjust="spacing" textLength="43.6401" x="212.5" y="559.4882">Coding</text></g><!--link CIO to part--><g id="link_CIO_part"><path d="M410.5104,492.1042 L410.605,492.1269 L409.3603,496.0737 L408.6702,500.1536 L407.7995,504.1902 L406.3348,508.0842 L405.6924,512.1756 L405.6582,512.1643 L404.8212,514.1816 L404.1564,516.2557 L403.6114,518.3695 L402.6537,520.3468 L402.274,522.5152 L402.5111,522.6126 L401.1644,524.449 L400.5099,526.5697 L399.9399,528.725 L398.8785,530.6786 L398.0755,532.7383 L398.1036,532.7527 L397.0506,534.705 L396.1255,536.7228 L395.1388,538.709 L394.2698,540.7557 L393.0167,542.6054 L393.2776,542.7741 L392.0808,544.6306 L390.7159,546.3781 L389.5972,548.285 L388.4901,550.1994 L387.0173,551.8771 L386.7606,551.6636 L385.8546,553.7654 L384.1035,555.1641 L382.9949,557.0974 L381.2247,558.4802 L379.9968,560.3141 L379.9755,560.2907 L378.603,562.0411 L376.7329,563.2426 L375.1565,564.768 L373.6047,566.3206 L371.875,567.6771 L371.9718,567.8437 L369.8701,568.84 L367.9339,570.1211 L365.7299,570.9415 L363.9253,572.449 L361.8552,573.4996 L361.9117,573.747 L359.999,574.135 L358.1144,574.6459 L356.0994,574.5859 L354.1799,574.9444 L352.3452,575.6735 L352.3136,575.3876 L348.6693,575.2398 L344.9893,574.7699 L341.3611,574.7673 L337.6445,573.9668 L333.9805,573.6406 L333.9562,573.4837 L330.2069,573.1588 L326.3538,572.163 L322.5745,571.6443 L318.8674,571.5925 L315.0317,570.7093 L315.0523,570.91 L313.0185,571.2577 L310.9206,570.9814 L308.9029,571.4868 L306.8677,571.8219 L304.7918,571.7601 L304.7132,571.556 L302.5675,572.5688 L300.396,573.5147 L298.2751,574.5919 L295.9577,575.1585 L293.75,576.0104 L293.8582,576.1952 L291.4027,577.0881 L289.1561,578.3377 L287.2146,580.1083 L284.7113,580.9196 L282.6614,582.5049 L282.7938,582.6998 L280.6413,583.9937 L278.4439,585.2216 L276.3477,586.5984 L274.4854,588.3192 L272.2921,589.5532 L272.2069,589.4439 L270.516,591.2856 L268.2456,592.3842 L266.6342,594.3278 L264.6517,595.7956 L262.5693,597.1351 L262.6444,597.2201 L260.7539,598.7706 L259.1325,600.6253 L257.2679,602.2053 L255.3017,603.6704 L253.4199,605.2308 L253.5074,605.3189 L251.6476,606.9059 L250.1941,608.9019 L248.2811,610.4353 L246.5571,612.159 L244.771,613.8201 L244.5624,613.6309 L242.9878,615.5067 L241.6645,617.6104 L239.9856,619.3916 L238.1792,621.0571 L236.5497,622.8831 L236.4347,622.788 L234.8982,624.7218 L233.1581,626.4873 L231.9776,628.7153 L230.5201,630.7144 L228.6829,632.3996 L228.8767,632.5473 L227.4217,634.5846 L225.5984,636.3412 L224.1638,638.3941 L222.472,640.2508 L221.0976,642.3496 " fill="none" style="stroke:#FFA500;stroke-width:3.125;"/><polygon fill="#FFA500" points="217.3958,647.3854,217.432,647.4488,219.1065,646.2433,220.9931,645.4094,222.8106,644.4545,224.401,643.1017,226.3057,642.2996,226.3017,642.2729,225.1184,642.3311,223.9556,642.5237,222.8071,642.8098,221.6095,642.7738,220.4807,643.1889,220.6707,643.2179,220.0865,641.9909,220.0571,640.8485,220.0954,639.7165,219.7398,638.5244,219.5914,637.3639,219.6145,637.3689,219.1414,639.3658,218.7737,641.3858,218.3552,643.3946,218.0336,645.4246,217.3958,647.3854" style="stroke:#FFA500;stroke-width:3.125;"/><text fill="#00FFFF" font-family="Segoe Print" font-size="12.5" lengthAdjust="spacing" textLength="26.593" x="398.9583" y="559.4882">Plan</text></g><!--link TOT to Gemini--><g id="link_TOT_Gemini"><path d="M290.5982,474.2483 L290.6894,474.2821 L290.367,474.3198 L290.5793,474.5561 L290.6175,474.7277 L290.0831,474.6866 L290.3413,474.9399 L290.3076,474.9275 L289.9467,475.4417 L289.7561,476.0184 L289.6839,476.6386 L289.2038,477.109 L289.295,477.7892 L289.5364,477.8753 L288.5875,478.9042 L288.3434,480.1844 L288.1853,481.4954 L287.5268,482.6278 L287.1315,483.8542 L287.1615,483.8641 L286.2289,486.5175 L285.4328,489.2163 L284.5708,491.8932 L283.8345,494.6119 L282.6887,497.1943 L282.9866,497.2824 L282.1345,500.1768 L281.0902,503.0143 L280.3273,505.9351 L279.5775,508.8597 L278.41,511.6608 L278.086,511.5802 L277.9684,514.7383 L276.784,517.6311 L276.4106,520.7256 L275.202,523.6123 L274.678,526.6694 L274.6468,526.6635 L274.4548,529.7258 L273.5346,532.6516 L273.0441,535.658 L272.5897,538.6711 L271.875,541.6354 L272.0667,541.6552 L271.5553,544.7154 L271.3715,547.8095 L270.6577,550.8488 L270.7344,553.9698 L270.2855,557.0365 L270.5393,557.0415 L270.4289,560.1722 L270.4444,563.3053 L269.8746,566.4268 L269.7339,569.5568 L269.9733,572.6944 L269.686,572.6797 L270.1072,575.8425 L270.2047,578.9888 L270.7717,582.159 L270.537,585.2883 L270.7788,588.4419 L270.621,588.4241 L271.2366,591.5876 L271.1775,594.6752 L271.5982,597.8168 L272.4883,601.0112 L272.5425,604.1115 L272.7415,604.1445 L273.3904,607.2521 L273.4204,610.2568 L274.2256,613.3903 L274.862,616.4957 L275.1048,619.5358 L274.8909,619.4902 L275.7017,622.5288 L276.4424,625.5526 L277.3207,628.6056 L277.664,631.5446 L278.3062,634.5473 L278.5137,634.6003 L278.794,637.3703 L279.4748,640.2424 L280.7407,643.2638 L280.9294,646.0105 L281.9872,648.9788 L282.2134,649.0449 L282.8792,651.7424 L283.4686,654.4176 L284.2307,657.1432 L285.3919,659.9856 L285.9883,662.6628 L285.8562,662.6207 L287.0059,665.1198 L287.2576,667.3326 L288.5303,669.8709 L289.2282,672.226 L289.7711,674.5317 L289.8784,674.5685 L290.4577,676.4801 L291.421,678.5234 L292.0374,680.4477 L292.5087,682.3223 L293.1004,684.2381 L293.2161,684.2833 L294.3399,687.5315 L296.0006,690.9894 L297.054,694.2101 L298.3572,697.5284 L299.5784,700.8146 " fill="none" style="stroke:#FFA500;stroke-width:3.125;"/><polygon fill="#FFA500" points="302.0024,706.5754,302.0754,706.5768,301.8995,704.5211,302.1513,702.4738,302.2639,700.4238,301.9184,698.3647,302.2069,696.3182,302.1819,696.308,301.6249,697.3536,301.1938,698.4505,300.8503,699.5832,300.205,700.5928,299.9824,701.7747,300.055,701.9527,298.8085,701.1272,297.7739,700.8213,296.7651,700.5789,295.6059,699.9675,294.5259,699.5502,294.5421,699.5675,296.0136,700.9472,297.559,702.4054,299.0687,703.8258,300.6464,705.3185,302.0024,706.5754" style="stroke:#FFA500;stroke-width:3.125;"/><text fill="#00FFFF" font-family="Segoe Print" font-size="12.5" lengthAdjust="spacing" textLength="84.1492" x="278.125" y="559.4882">Development</text></g><!--link CTO to part--><g id="link_CTO_part"><path d="M585.8438,491.9583 L585.9368,491.9869 L585.0605,493.8555 L584.7294,495.8915 L584.2208,497.8731 L583.1283,499.6752 L582.8441,501.7257 L582.8102,501.7136 L581.9343,503.6875 L581.2293,505.7223 L580.6431,507.7996 L579.6476,509.7308 L579.2253,511.8665 L579.4618,511.9652 L578.0982,513.8111 L577.4253,515.9451 L576.8366,518.1142 L575.7576,520.0788 L574.9365,522.151 L574.9649,522.1649 L573.9214,524.184 L573.0069,526.2666 L572.0302,528.3186 L571.1723,530.4289 L569.9271,532.349 L570.1952,532.5058 L569.0423,534.4841 L567.7165,536.3611 L566.6438,538.3863 L565.583,540.4184 L564.1462,542.2306 L563.8736,542.0377 L563.082,544.279 L561.3928,545.8854 L560.386,547.9744 L558.6765,549.5664 L557.543,551.5658 L557.5191,551.5449 L556.3063,553.5034 L554.5355,554.9744 L553.0939,556.7331 L551.68,558.516 L550.0667,560.1246 L550.1956,560.2679 L548.3855,561.6337 L546.7956,563.2445 L544.8495,564.459 L543.4347,566.2645 L541.6667,567.6771 L541.7698,567.909 L539.5344,568.8504 L537.3501,569.9069 L534.9281,570.4284 L532.6803,571.3421 L530.5871,572.6032 L530.5797,572.3156 L528.4984,572.5225 L526.4088,572.4053 L524.3312,572.7582 L522.2331,572.3085 L520.1471,572.3359 L520.1395,572.1773 L518.0287,572.3388 L515.8852,571.8222 L513.7649,571.7879 L511.6675,572.2254 L509.5295,571.8226 L509.5979,572.0123 L507.3223,572.98 L504.8338,573.3576 L502.6119,574.4743 L500.332,575.43 L497.9167,576.0104 L497.789,575.8328 L495.7182,577.5359 L493.6057,579.1808 L491.5752,580.94 L489.2255,582.255 L487.0541,583.8181 L487.1919,583.982 L484.887,585.3056 L482.8482,586.9456 L481.1981,589.0477 L478.8323,590.2989 L477.0439,592.2367 L477.2082,592.4056 L475.2649,594.1006 L473.2659,595.7383 L471.3924,597.5051 L469.809,599.5701 L467.8151,601.2131 L467.712,601.1205 L466.3152,603.2924 L464.2173,604.8344 L462.9166,607.0926 L461.167,608.9476 L459.2965,610.6939 L459.3854,610.7644 L457.7378,612.6939 L456.4083,614.8758 L454.7914,616.8296 L453.0544,618.6882 L451.4171,620.6259 L451.5185,620.6976 L449.9056,622.657 L448.7633,624.9495 L447.0888,626.8653 L445.6333,628.936 L444.1058,630.9558 L443.8684,630.8042 L442.5848,632.9897 L441.5872,635.3578 L440.1849,637.4676 L438.6375,639.4847 L437.2914,641.6303 L437.1626,641.5552 L435.9262,643.7724 L434.4616,645.8567 L433.6243,648.3065 L432.4765,650.5753 L430.903,652.5961 " fill="none" style="stroke:#FFA500;stroke-width:3.125;"/><polygon fill="#FFA500" points="427.8542,658.0521,427.8979,658.1105,429.41,656.7067,431.1786,655.6452,432.8637,654.4723,434.274,652.9327,436.0647,651.9007,436.0573,651.8747,434.8904,652.0792,433.7605,652.4145,432.6563,652.8408,431.4634,652.9535,430.3948,653.5055,430.5798,653.5578,429.8633,652.3119,429.6869,651.2188,429.5763,650.1444,429.0824,648.9615,428.7901,647.8356,428.8137,647.8378,428.5918,649.8779,428.4774,651.9279,428.3112,653.9731,428.2439,656.0273,427.8542,658.0521" style="stroke:#FFA500;stroke-width:3.125;"/><text fill="#00FFFF" font-family="Segoe Print" font-size="12.5" lengthAdjust="spacing" textLength="43.158" x="569.7917" y="559.4882">Design</text></g><!--link CTO to part--><g id="link_CTO_part"><path d="M623.4063,492.0208 L623.4845,492.0787 L626.8544,496.7776 L630.6829,501.8157 L634.3621,506.7434 L637.5501,511.3078 L641.418,516.375 L641.3888,516.354 L643.0855,518.7992 L644.9295,521.3503 L646.8759,523.9751 L648.4695,526.3461 L650.5571,529.0726 L650.7669,529.2198 L652.0819,531.4175 L654.0093,534.0451 L656.0115,536.7252 L657.5789,539.1 L659.375,541.6354 L659.4011,541.6533 L661.7331,545.0929 L664.1838,548.6138 L666.5772,552.0954 L669.0799,555.6519 L671.2264,558.9646 L671.4843,559.1378 L673.8267,562.6236 L676.0028,565.9978 L678.4224,569.5354 L680.8534,573.0807 L682.9227,576.3832 L682.6436,576.2 L687.707,583.4467 L691.8512,590.0903 L696.6943,597.1923 L700.8176,603.8222 L705.5309,610.8392 L705.5042,610.8221 L710.0261,617.5975 L713.9239,623.9735 L718.19,630.5851 L722.487,637.2166 L726.5609,643.7053 L726.7241,643.8078 L730.3221,649.7 L734.1989,655.7673 L737.6245,661.5514 L741.7231,667.7579 L745.3743,673.6836 " fill="none" style="stroke:#FFA500;stroke-width:3.125;"/><polygon fill="#FFA500" points="748.6771,678.9896,748.7494,678.9997,748.2512,676.9375,748.1768,674.9345,747.9644,672.9122,747.2983,670.8266,747.2602,668.8287,747.2339,668.8226,746.8489,669.9429,746.5963,671.0942,746.4359,672.2668,745.958,673.3656,745.9247,674.5679,745.9683,674.7551,744.7273,674.0876,743.6135,673.9668,742.5152,673.9127,741.3266,673.4705,740.1855,673.2324,740.1988,673.252,741.8776,674.3747,743.6169,675.5866,745.3271,676.7554,747.0929,678.0065,748.6771,678.9896" style="stroke:#FFA500;stroke-width:3.125;"/><text fill="#00FFFF" font-family="Segoe Print" font-size="12.5" lengthAdjust="spacing" textLength="43.158" x="682.2917" y="559.4882">Design</text></g><!--link CIO to part--><g id="link_CIO_part"><path d="M434.5833,491.9792 L434.8426,492.1133 L438.7635,500.7851 L444.2044,510.2432 L449.1504,519.4452 L452.4686,527.8054 L457.9441,537.2813 L462.2052,546.1291 L466.9496,555.2269 L472.0299,564.4984 L475.9524,573.1711 L482.1797,583.0359 L485.4104,591.3508 L490.6353,600.6971 L496.1035,610.1693 L500.1562,618.9093 L505.0375,628.0779 L509.6052,637.0843 L514.5562,646.289 L519.3223,655.398 L524.4412,664.6894 L528.41,673.3861 " fill="none" style="stroke:#FFA500;stroke-width:3.125;"/><polygon fill="#FFA500" points="531.2813,678.9375,531.3541,678.9418,531.0164,676.8807,531.1059,674.8449,531.0562,672.8009,530.5492,670.7298,530.6753,668.6962,530.6496,668.688,530.1768,669.7743,529.8337,670.9019,529.5807,672.0581,529.0171,673.1155,528.8885,674.3113,528.9468,674.4945,527.6991,673.7454,526.6216,673.5312,525.5649,673.3822,524.3874,672.8535,523.2734,672.5245,523.2882,672.543,524.868,673.7985,526.5153,675.1381,528.13,676.4371,529.8068,677.8136,531.2813,678.9375" style="stroke:#FFA500;stroke-width:3.125;"/><text fill="#008000" font-family="Segoe Print" font-size="12.5" lengthAdjust="spacing" textLength="49.2554" x="478.125" y="559.4882">Analyze</text></g><!--link HoyasTrader to TOT--><g id="link_HoyasTrader_TOT"><path d="M328.4167,276.2396 L328.4959,276.2961 L326.0045,279.2931 L323.9776,282.6212 L321.7994,285.8415 L319.1238,288.7072 L317.1367,292.0638 L317.1045,292.0478 L315.1992,295.5173 L313.4564,299.0676 L311.8264,302.674 L309.8074,306.0869 L308.3333,309.7708 L308.5771,309.85 L307.3315,311.9127 L306.7976,314.2064 L306.3506,316.5284 L305.3983,318.6863 L304.7117,320.9305 L304.7424,320.9382 L304.1143,323.2343 L303.6256,325.5656 L303.0697,327.8799 L302.6421,330.2266 L301.7961,332.4676 L302.1011,332.5265 L301.65,334.8807 L301.0021,337.1969 L300.6422,339.5687 L300.2959,341.9431 L299.5218,344.2349 L299.1913,344.1875 L299.4933,346.6495 L298.707,348.9555 L298.748,351.3801 L297.937,353.6826 L297.8244,356.0851 L297.7929,356.0815 L298.0971,356.7162 L297.6653,357.2658 L297.6677,357.8657 L297.7067,358.4697 L297.4826,359.0434 L297.6742,359.0634 L297.5798,358.0955 L297.8129,357.1617 L297.5161,356.1726 L298.0096,355.2661 L297.9777,354.3046 " fill="none" style="stroke:#FFA500;stroke-width:3.125;"/><polygon fill="#FFA500" points="297.3234,360.5203,297.3866,360.5568,298.2238,358.671,299.4316,356.9989,300.5187,355.2573,301.209,353.2867,302.4486,351.633,302.4316,351.612,301.4394,352.2594,300.5328,353.0125,299.6857,353.8392,298.6336,354.4125,297.8686,355.3406,298.018,355.4615,296.957,354.2869,296.3322,353.4654,295.7606,352.687,294.8794,351.6579,294.161,350.7606,294.1836,350.7679,294.783,352.7091,295.4849,354.6836,296.1374,356.642,296.8844,358.6311,297.3234,360.5203" style="stroke:#FFA500;stroke-width:3.125;"/><text fill="#008000" font-family="Segoe Print" font-size="12.5" lengthAdjust="spacing" textLength="49.2554" x="314.5833" y="327.6236">Analyze</text></g><!--SRC=[jLRVRzem47xFN-7oqeU9QPswQK8e4akXwrHQDFAofyaaryJ3s9dZj4qd_lUTxP0V1D5gtNY0vBlpT_VvpcSev_BXnuOzCf5uf-H4fx01agz1Hsavb8NcJ83NXRsJ6EuG9j-cGJYvkRoUaeZJFFVoDHCPLNH3CXgjQGBajqT8IaNye9ZM88XM1I3q6Ss9aeM80ycbGfYA75U2q9X4t_uTJ9fceLGnA0S-f4o3TPz9eMye9XZ8GZ5GdeEMx0d8sVdkJPSSo4hok08SIxcZNcfG87MPGMDq8GYPA2KV72GnrGIyhTTIgo3IYFA_qjiLLQMpRR4B6VyVuYA7YER_WBjjwMpCdJ9LUJL_eW14ZUMsa1-waMm3lZwIWhX6mfH5Qm58UsvYdP9UUz_9LWRxGLOSWPQztqEDhPVpxlmCWkdjWD2SuAzdr96wQeFnoXyN_ZZ7BX-TVVJ7aU4UEMx_Yonf7YgAEkpwrZkASNKPBEQEFBmD7VS1ZGTE2gcFTt1rIyRZ44GkrGoDljyrXyQyK39BGHlRjXOMp0xgSMBUxucPqnWJ-bg8nAPhNxs6Qt0L8YRmqMaDKggJJ9CgW6kDGOLQ3rIehSrvcC-RAlOxVyB91Tm3bndEFA5hZ-6mUNJEd_p8aVOD2MoOO0SMS5h4qCVJ8i49Z4qPEICsN4iWRk5Fd34TbPSsmfv81pwliI8ygYtZLEXYmm-8a9ok-d0Czsq1hVpdLE7LWGAxTN9xqQsInPuNCAUC7wzCiz5RyzLE9uGe5IoYd2oBB9DAa-bZ1aeFNjwIs4s2N0Fi6awO4L47sFLFH-u2LCRXaUcoAxd1Nr2tKgTI71M-r0heXZFTqUwvCpGU3ltsB20ZCiE9vRKXwsFrZSW5owC2R_RTwfwXlT2kmuc0LW2KH9Km_ofwBg5nMU2ePTY1E7j85T0UsX6fDfh-AgWVoDXG6DQMqrkpHtkU2-pMcimTWwv3LHDxf4qAZTyXkWl8MI9gnwP6nvntMThMstEqTvW_4PINJz3R4vFuOTS_]--></g></svg>